SplineFontDB: 3.2
FontName: OverusedGrotesk-Black
FullName: Overused Grotesk Black
FamilyName: Overused Grotesk
Weight: Black
Copyright: Copyright (c) 2023, Bao Nguyen (RandomMaerks) (rmforbusiness@gmail.com)
UComments: "2023-7-28: Created with FontForge (http://fontforge.org)"
Version: 0.4
ItalicAngle: 0
UnderlinePosition: -249
UnderlineWidth: 199
Ascent: 1600
Descent: 400
InvalidEm: 0
UFOAscent: 1600
UFODescent: -400
LayerCount: 2
Layer: 0 0 "Back" 1
Layer: 1 0 "public.default" 0 "glyphs"
StyleMap: 0x0000
FSType: 0
OS2Version: 0
OS2_WeightWidthSlopeOnly: 0
OS2_UseTypoMetrics: 1
CreationTime: 1691315371
ModificationTime: 1712676557
PfmFamily: 17
TTFWeight: 900
TTFWidth: 5
LineGap: 0
VLineGap: 0
OS2TypoAscent: 2000
OS2TypoAOffset: 0
OS2TypoDescent: -700
OS2TypoDOffset: 0
OS2TypoLinegap: 0
OS2WinAscent: 2000
OS2WinAOffset: 0
OS2WinDescent: 700
OS2WinDOffset: 0
HheadAscent: 2000
HheadAOffset: 0
HheadDescent: -700
HheadDOffset: 0
OS2CapHeight: 1300
OS2XHeight: 1000
OS2Vendor: 'Rand'
Lookup: 1 0 0 "'locl' Localized Forms in Latin lookup 26" { "'locl' Localized Forms in Latin lookup 26-1" ("polish") } ['locl' ('latn' <'PLK ' > ) ]
Lookup: 1 0 0 "dieresis" { "dieresis-1" ("calt.ss03") } ['cv06' ('DFLT' <'dflt' > 'bopo' <'dflt' > 'cyrl' <'dflt' > 'grek' <'dflt' > 'latn' <'dflt' > ) ]
Lookup: 6 0 0 "'calt' Contextual Alternates lookup 26" { "'calt' Contextual Alternates lookup 26-1"  } ['calt' ('DFLT' <'dflt' > 'bopo' <'dflt' > 'cyrl' <'dflt' > 'grek' <'dflt' > 'latn' <'dflt' > ) ]
Lookup: 4 0 0 "'dlig' Discretionary Ligatures lookup 23" { "'dlig' Discretionary Ligatures lookup 23-1"  } ['dlig' ('DFLT' <'dflt' > 'bopo' <'dflt' > 'cyrl' <'dflt' > 'grek' <'dflt' > 'latn' <'dflt' > ) ]
Lookup: 4 0 0 "'frac' Diagonal Fractions lookup 22" { "'frac' Diagonal Fractions lookup 22-1"  } ['frac' ('DFLT' <'dflt' > 'bopo' <'dflt' > 'cyrl' <'dflt' > 'grek' <'dflt' > 'latn' <'dflt' > ) ]

StartChar: A
Encoding: 65 65 0
GlifName: A_
Width: 1353
VWidth: 0
GlyphClass: 2
Flags: HW
HStem: 0 21G<29 431.463 924.361 1324> 203 297<346 1010> 1281 20G<454.359 901.595>
AnchorPoint: "bottom2" 1324 0 basechar 0
AnchorPoint: "bottom1" 680 0 basechar 0
AnchorPoint: "top1" 672 1400 basechar 0
LayerCount: 2
Fore
SplineSet
346 500 m 261
 1010 500 l 261
 1010 203 l 261
 346 203 l 261
 346 500 l 261
1324 0 m 261
 930 0 l 261
 674 908 l 261
 426 0 l 261
 29 0 l 261
 461 1301 l 261
 895 1301 l 261
 1324 0 l 261
EndSplineSet
EndChar

StartChar: AE
Encoding: 198 198 1
GlifName: A_E_
Width: 1923
VWidth: 0
GlyphClass: 2
Flags: HW
HStem: 0 355<1254 1834> 203 297<607 873> 494 324<1254 1777> 943 357<1254 1834>
AnchorPoint: "top1" 832 1400 basechar 0
LayerCount: 2
Fore
SplineSet
1834 1301 m 257x90
 1834 943 l 257
 1254 943 l 257
 1254 818 l 257
 1777 818 l 257
 1777 494 l 257
 1254 494 l 257
 1254 355 l 257
 1834 355 l 257
 1834 0 l 257
 873 0 l 257xb0
 873 203 l 257
 500 203 l 257x50
 426 0 l 257
 29 0 l 257
 547 1301 l 257
 1834 1301 l 257x90
607 500 m 257x50
 873 500 l 257
 873 961 l 257
 773 961 l 257
 607 500 l 257x50
EndSplineSet
EndChar

StartChar: Aogonek
Encoding: 260 260 9
GlifName: A_ogonek
Width: 1353
VWidth: 0
GlyphClass: 2
Flags: HW
HStem: -531 279<1173 1408> -39 39G<1040 1324> 0 41G<29 436 919 1324> 203 297<346 1010> 1262 39G<448 907>
VStem: 896 266<-354 -125>
LayerCount: 2
Fore
SplineSet
346 500 m 257
 1010 500 l 257
 1010 203 l 257
 346 203 l 257
 346 500 l 257
1324 0 m 257
 930 0 l 257
 674 908 l 257
 426 0 l 257
 29 0 l 257
 461 1301 l 257
 895 1301 l 257
 1324 0 l 257
1285 0 m 257
 1182.91010643 -21.8966377777 1124 -77.0791248993 1124 -150.8125 c 256
 1124 -217.519327821 1168.98034567 -252 1256 -252 c 258
 1309 -252 l 257
 1309 -511 l 257
 1240 -511 l 258
 967.295147505 -511 801 -403.559742143 801 -227.370117188 c 256
 801 -136.665053037 844.234013235 -60.4625518296 930 0 c 257
 1285 0 l 257
EndSplineSet
EndChar

StartChar: B
Encoding: 66 66 12
GlifName: B_
Width: 1294
VWidth: 0
GlyphClass: 2
Flags: W
HStem: 0 316<471 824.871> 498 316<471 767.681> 984 317<471 763.474>
VStem: 90 381<316 498 814 984> 779 387<823.928 1070.28> 840 387<332.413 483.183>
LayerCount: 2
Fore
SplineSet
752 1301 m 262xf4
 998 1301 1166 1166 1166 973 c 260xf8
 1166 852 1097 742 988 689 c 261
 1134 632 1227 500 1227 342 c 260
 1227 139 1075 0 852 0 c 262
 90 0 l 261
 90 1301 l 261
 752 1301 l 262xf4
703 984 m 262
 471 984 l 261
 471 814 l 261
 703 814 l 262
 742 814 779 853 779 900 c 260
 779 945 742 984 703 984 c 262
752 498 m 262
 471 498 l 261
 471 316 l 261
 744 316 l 262
 797 316 840 359 840 410 c 260xf4
 840 459 801 498 752 498 c 262
EndSplineSet
EndChar

StartChar: C
Encoding: 67 67 13
GlifName: C_
Width: 1353
VWidth: 0
GlyphClass: 2
Flags: HW
HStem: -16 340<564 822> 980 340<563 825>
VStem: 70 385<444 863> 898 385<397 508 799 908>
AnchorPoint: "bottom1" 684 0 basechar 0
AnchorPoint: "top1" 682 1400 basechar 0
LayerCount: 2
Fore
SplineSet
70 654 m 260
 70 1054 315 1320 684 1320 c 260
 1018 1320 1258 1151 1283 799 c 261
 898 799 l 261
 894 910 810 980 689 980 c 260
 541 980 455 861 455 654 c 260
 455 443 541 324 689 324 c 260
 810 324 892 397 898 508 c 261
 1283 508 l 261
 1275 151 1014 -16 684 -16 c 260
 317 -16 70 252 70 654 c 260
EndSplineSet
EndChar

StartChar: D
Encoding: 68 68 20
GlifName: D_
Width: 1357
VWidth: 0
GlyphClass: 2
Flags: HW
HStem: 0 336<471 808.599> 965 336<471 789.916>
VStem: 90 381<336 965> 902 385<430.685 840.311>
AnchorPoint: "top1" 621 1400 basechar 0
LayerCount: 2
Fore
SplineSet
471 965 m 261
 471 336 l 261
 633 336 l 262
 803.563969945 336 902 450.004875832 902 647.545595466 c 260
 902 848.44000322 799.926509628 965 624 965 c 262
 471 965 l 261
644 1301 m 262
 1029.47546221 1301 1287 1038.88898292 1287 646.548251718 c 260
 1287 258.044061711 1034.76229528 0 655 0 c 262
 90 0 l 261
 90 1301 l 261
 644 1301 l 262
EndSplineSet
EndChar

StartChar: Dcroat
Encoding: 272 272 22
GlifName: D_croat
Width: 1488
VWidth: 0
GlyphClass: 2
Flags: HW
HStem: 0 336<602 939> 492 316<61 844> 965 336<602 922>
VStem: 223 379<336 965> 1033 387<431 840>
CounterMasks: 1 e0
LayerCount: 2
Fore
SplineSet
61 809 m 261
 844 809 l 261
 844 492 l 261
 61 492 l 261
 61 809 l 261
604 965 m 261
 604 336 l 261
 766 336 l 262
 936.563969945 336 1035 450.004986699 1035 647.545898438 c 260
 1035 848.440114463 932.926509628 965 757 965 c 262
 604 965 l 261
777 1301 m 262
 1162.47546221 1301 1420 1038.88882266 1420 646.547851562 c 260
 1420 258.043902005 1167.76229528 -4.65059319748e-14 788 0 c 262
 223 0 l 261
 223 1301 l 261
 777 1301 l 262
EndSplineSet
EndChar

StartChar: E
Encoding: 69 69 23
GlifName: E_
Width: 1119
VWidth: 0
GlyphClass: 2
Flags: W
HStem: 0 355<471 1051> 494 324<471 994> 945 356<471 1051>
VStem: 90 381<355 494 818 945>
AnchorPoint: "bottom2" 1021 0 basechar 0
AnchorPoint: "bottom1" 592 0 basechar 0
AnchorPoint: "top1" 596 1400 basechar 0
LayerCount: 2
Fore
SplineSet
1051 1301 m 257
 1051 945 l 257
 471 945 l 257
 471 818 l 257
 994 818 l 257
 994 494 l 257
 471 494 l 257
 471 355 l 257
 1051 355 l 257
 1051 0 l 257
 90 0 l 257
 90 1301 l 257
 1051 1301 l 257
EndSplineSet
EndChar

StartChar: Eng
Encoding: 330 330 34
GlifName: E_ng
Width: 1359
VWidth: 0
GlyphClass: 2
Flags: HW
HStem: 0 41G<90 471> 1262 39G<90 571 891 1270>
VStem: 90 381<0 723> 891 379<-44 61 656 1301>
LayerCount: 2
Fore
SplineSet
891 1301 m 257
 1270 1301 l 257
 1270 16 l 258
 1270 -246 1107 -400 832 -400 c 258
 707 -400 l 257
 707 -64 l 257
 770 -64 l 258
 854 -64 891 -37 891 27 c 258
 891 61 l 257
 471 723 l 257
 471 0 l 257
 90 0 l 257
 90 1301 l 257
 551 1301 l 257
 891 656 l 257
 891 1301 l 257
EndSplineSet
EndChar

StartChar: Eogonek
Encoding: 280 280 35
GlifName: E_ogonek
Width: 1119
VWidth: 0
GlyphClass: 2
Flags: HW
HStem: -531 279<872 1107> -39 39G<739 1023> 0 355<471 1051> 488 336<471 994> 945 355<471 1051>
VStem: 90 381<355 488 824 945> 596 266<-354 -125>
LayerCount: 2
Fore
SplineSet
1051 1301 m 257
 1051 945 l 257
 471 945 l 257
 471 818 l 257
 994 818 l 257
 994 494 l 257
 471 494 l 257
 471 355 l 257
 1051 355 l 257
 1051 0 l 257
 90 0 l 257
 90 1301 l 257
 1051 1301 l 257
1051 0 m 257
 933.057638489 -21.8966377777 865 -77.0791248993 865 -150.8125 c 256
 865 -217.519327821 909.980345671 -252 997 -252 c 258
 1050 -252 l 257
 1050 -511 l 257
 981 -511 l 258
 708.295147505 -511 542 -407.347786505 542 -237.370117188 c 256
 542 -142.675739698 607.018593548 -63.1217645959 736 0 c 257
 1051 0 l 257
EndSplineSet
EndChar

StartChar: Eth
Encoding: 208 208 36
GlifName: E_th
Width: 1488
VWidth: 0
GlyphClass: 2
Flags: HW
HStem: 0 336<602 939.649> 492 317<61 844> 965 336<602 922.05>
VStem: 223 379<336 965> 1033 387<430.685 840.311>
CounterMasks: 1 e0
LayerCount: 2
Fore
SplineSet
61 809 m 261
 844 809 l 261
 844 492 l 261
 61 492 l 261
 61 809 l 261
604 965 m 261
 604 336 l 261
 766 336 l 262
 936.563969945 336 1035 450.004986699 1035 647.545898438 c 260
 1035 848.440114463 932.926509628 965 757 965 c 262
 604 965 l 261
777 1301 m 262
 1162.47546221 1301 1420 1038.88882266 1420 646.547851562 c 260
 1420 258.043902005 1167.76229528 -4.65059319748e-14 788 0 c 262
 223 0 l 261
 223 1301 l 261
 777 1301 l 262
EndSplineSet
EndChar

StartChar: F
Encoding: 70 70 37
GlifName: F_
Width: 1119
VWidth: 0
GlyphClass: 2
Flags: HW
HStem: 0 41G<90 471> 432 342<471 994> 945 355<471 1051>
VStem: 90 381<0 432 773 945>
LayerCount: 2
Fore
SplineSet
1051 1301 m 257
 1051 945 l 257
 471 945 l 257
 471 773 l 257
 994 773 l 257
 994 432 l 261
 471 432 l 261
 471 0 l 257
 90 0 l 257
 90 1301 l 257
 1051 1301 l 257
EndSplineSet
EndChar

StartChar: G
Encoding: 71 71 38
GlifName: G_
Width: 1373
VWidth: 0
GlyphClass: 2
Flags: W
HStem: -16 340<559.998 832.791> 0 21G<998.373 1283> 463 301<641 895> 982 338<565.226 837.237>
VStem: 70 385<440.497 862.676> 1000 283<0 172.098>
AnchorPoint: "bottom1" 732 0 basechar 0
AnchorPoint: "top1" 682 1400 basechar 0
LayerCount: 2
Fore
SplineSet
959 504 m 261x7c
 1283 764 l 261
 1283 0 l 261
 1000 0 l 261
 959 504 l 261x7c
641 764 m 261
 1283 764 l 261
 1244 463 l 261
 641 463 l 261
 641 764 l 261
70 654 m 260
 70 1054 315 1320 684 1320 c 260
 1018 1320 1260 1145 1283 838 c 261
 898 838 l 261
 881 926 814 982 697 982 c 260
 544 982 455 861 455 654 c 260
 455 443 539 324 684 324 c 260
 813 324 895 388 895 488 c 261
 1113 488 l 261
 1113 195 917 -16 641 -16 c 260xbc
 299 -16 70 252 70 654 c 260
EndSplineSet
Substitution2: "ss04StyleSet4inLatinlookup3 subtable" G.ss04
EndChar

StartChar: G.ss04
Encoding: 65540 -1 39
GlifName: G_.ss04
Width: 1373
VWidth: 0
GlyphClass: 2
Flags: HW
HStem: -16 340<569 839> 463 301<641 891> 982 338<565 840>
VStem: 70 385<455 863>
AnchorPoint: "top1" 682 1400 basechar 0
AnchorPoint: "bottom1" 732 0 basechar 0
LayerCount: 2
Fore
SplineSet
70 654 m 256
 70 1054 315 1320 684 1320 c 256
 1030 1320 1260 1135 1283 846 c 257
 898 846 l 257
 886 930 806 982 697 982 c 256
 543 982 455 861 455 654 c 256
 455 443 551 324 711 324 c 256
 819 324 882 379 891 463 c 257
 641 463 l 257
 641 764 l 257
 1283 764 l 257
 1283 654 l 258
 1283 258 1070 -16 705 -16 c 256
 326 -16 70 252 70 654 c 256
EndSplineSet
EndChar

StartChar: H
Encoding: 72 72 44
GlifName: H_
Width: 1318
VWidth: 0
GlyphClass: 2
Flags: W
HStem: 0 21G<90 471 850 1230> 494 356<471 850> 1281 20G<90 471 850 1230>
VStem: 90 381<0 494 850 1301> 850 380<0 494 850 1301>
AnchorPoint: "top1" 662 1400 basechar 0
LayerCount: 2
Fore
SplineSet
90 1301 m 261
 471 1301 l 261
 471 850 l 261
 850 850 l 261
 850 1301 l 261
 1230 1301 l 261
 1230 0 l 261
 850 0 l 261
 850 494 l 261
 471 494 l 261
 471 0 l 261
 90 0 l 261
 90 1301 l 261
EndSplineSet
EndChar

StartChar: Hbar
Encoding: 294 294 45
GlifName: H_bar
Width: 1359
VWidth: 0
GlyphClass: 2
Flags: W
HStem: 0 21G<109 490 869 1250> 494 317<490 869> 943 237<20 1340> 1281 20G<109 490 869 1250>
VStem: 109 381<0 494 811 1301> 869 381<0 494 811 1301>
LayerCount: 2
Fore
SplineSet
20 1180 m 257
 1340 1180 l 257
 1340 943 l 257
 20 943 l 257
 20 1180 l 257
109 1301 m 257
 490 1301 l 257
 490 811 l 257
 869 811 l 257
 869 1301 l 257
 1250 1301 l 257
 1250 0 l 257
 869 0 l 257
 869 494 l 257
 490 494 l 257
 490 0 l 257
 109 0 l 257
 109 1301 l 257
EndSplineSet
EndChar

StartChar: I
Encoding: 73 73 47
GlifName: I_
Width: 550
VWidth: 0
GlyphClass: 2
Flags: W
HStem: 0 21G<86 467> 1281 20G<86 467>
VStem: 86 381<0 1301>
AnchorPoint: "bottom2" 467 0 basechar 0
AnchorPoint: "bottom1" 279 0 basechar 0
AnchorPoint: "top1" 281 1400 basechar 0
LayerCount: 2
Fore
SplineSet
86 1301 m 261
 467 1301 l 261
 467 0 l 261
 86 0 l 261
 86 1301 l 261
EndSplineSet
Substitution2: "'ss11' Style Set 11 in Latin lookup 21-1" I.ss11
EndChar

StartChar: Idieresis
Encoding: 207 207 52
GlifName: I_dieresis
Width: 550
VWidth: 0
GlyphClass: 2
Flags: W
HStem: 0 21G<86 467> 1281 20G<86 467> 1385.39 295<-82 229 338 629>
VStem: -82 311<1385.39 1680.39> 86 381<0 1301> 338 291<1385.39 1680.39>
LayerCount: 2
Fore
SplineSet
-82 1680.390625 m 257xf0
 229 1680.390625 l 257
 229 1385.390625 l 257
 -82 1385.390625 l 257
 -82 1680.390625 l 257xf0
338 1680.390625 m 257xe4
 629 1680.390625 l 257
 629 1385.390625 l 257
 338 1385.390625 l 257
 338 1680.390625 l 257xe4
86 1301 m 257xe8
 467 1301 l 257
 467 0 l 257
 86 0 l 257
 86 1301 l 257xe8
EndSplineSet
Substitution2: "dieresis-1" Idieresis.calt
Substitution2: "'ss11' Style Set 11 in Latin lookup 21-1" Idieresis.ss11
Substitution2: "ss03StyleSet3inLatinlookup2 subtable" Idieresis.ss03
EndChar

StartChar: Idieresis.ss03
Encoding: 65542 -1 53
GlifName: I_dieresis.ss03
Width: 550
VWidth: 0
GlyphClass: 2
Flags: W
HStem: 0 21G<86 467> 1281 20G<86 467> 1388.39 354<-54.0967 176.933 368.067 600.363>
VStem: -115 353<1449.29 1680.75> 86 381<0 1301> 307 355<1449.29 1680.75>
LayerCount: 2
Fore
SplineSet
-115 1564.390625 m 256xf0
 -115 1662.390625 -36 1742.390625 61 1742.390625 c 256
 159 1742.390625 238 1662.390625 238 1564.390625 c 256
 238 1467.390625 159 1388.390625 61 1388.390625 c 256
 -36 1388.390625 -115 1467.390625 -115 1564.390625 c 256xf0
307 1564.390625 m 256xe4
 307 1662.390625 386 1742.390625 484 1742.390625 c 256
 582 1742.390625 662 1662.390625 662 1564.390625 c 256
 662 1467.390625 582 1388.390625 484 1388.390625 c 256
 386 1388.390625 307 1467.390625 307 1564.390625 c 256xe4
86 1301 m 257xe8
 467 1301 l 257
 467 0 l 257
 86 0 l 257
 86 1301 l 257xe8
EndSplineSet
Substitution2: "dieresis-1" Idieresis.calt.ss03
EndChar

StartChar: J
Encoding: 74 74 60
GlifName: J_
Width: 783
VWidth: 0
GlyphClass: 2
Flags: W
HStem: 0 336<31 289.605> 1281 20G<314 693>
VStem: 314 379<362.163 1301>
AnchorPoint: "top1" 506 1400 basechar 0
LayerCount: 2
Fore
SplineSet
31 336 m 261
 193 336 l 262
 275 336 314 383 314 488 c 262
 314 1301 l 261
 693 1301 l 261
 693 436 l 262
 693 163 547 0 297 0 c 262
 31 0 l 261
 31 336 l 261
EndSplineSet
Substitution2: "ss06StyleSet6inLatinlookup5 subtable" J.ss06
EndChar

StartChar: J.ss06
Encoding: 65544 -1 61
GlifName: J_.ss06
Width: 1197
VWidth: 0
GlyphClass: 2
Flags: W
HStem: -16 360<495.45 685.204> 1281 20G<719 1117>
VStem: 719 398<376.096 1301>
AnchorPoint: "top1" 916 1400 basechar 0
LayerCount: 2
Fore
SplineSet
441 537 m 257
 445 416 502 344 592 344 c 256
 672 344 719 396 719 484 c 258
 719 1301 l 257
 1117 1301 l 257
 1117 484 l 258
 1117 183 908 -16 596 -16 c 256
 289 -16 84 205 80 537 c 257
 441 537 l 257
EndSplineSet
EndChar

StartChar: K
Encoding: 75 75 63
GlifName: K_
Width: 1357
VWidth: 0
GlyphClass: 2
Flags: HW
HStem: 0 41G<90 471 881 1348> 1262 39G<90 471 825 1324>
VStem: 90 381<0 275 553 1301>
AnchorPoint: "bottom1" 682 0 basechar 0
AnchorPoint: "top1" 682 1400 basechar 0
LayerCount: 2
Fore
SplineSet
90 1301 m 261
 471 1301 l 261
 471 0 l 261
 90 0 l 261
 90 1301 l 261
854 1301 m 261
 1324 1301 l 261
 848 668 l 261
 1348 0 l 261
 908 0 l 261
 584 467 l 261
 451 275 l 261
 312 553 l 261
 854 1301 l 261
EndSplineSet
EndChar

StartChar: L
Encoding: 76 76 64
GlifName: L_
Width: 1078
VWidth: 0
GlyphClass: 2
Flags: W
HStem: 0 355<471 1027> 1281 20G<90 471>
VStem: 90 381<355 1301>
AnchorPoint: "top2" 564 900 basechar 0
AnchorPoint: "bottom1" 592 0 basechar 0
AnchorPoint: "top1" 285 1400 basechar 0
LayerCount: 2
Fore
SplineSet
1027 0 m 261
 90 0 l 257
 90 1301 l 257
 471 1301 l 257
 471 355 l 257
 1027 355 l 261
 1027 0 l 261
EndSplineSet
EndChar

StartChar: Lslash
Encoding: 321 321 69
GlifName: L_slash
Width: 1068
VWidth: 0
GlyphClass: 2
Flags: HW
HStem: 0 355<529 1010> 1262 39G<150 529>
VStem: 150 379<355 1301>
LayerCount: 2
Fore
SplineSet
10 658 m 261
 876 1077 l 261
 876 722 l 261
 10 301 l 261
 10 658 l 261
1020 0 m 257
 160 0 l 257
 160 1301 l 257
 539 1301 l 257
 539 355 l 257
 1020 355 l 257
 1020 0 l 257
EndSplineSet
EndChar

StartChar: M
Encoding: 77 77 70
GlifName: M_
Width: 1730
VWidth: 0
GlyphClass: 2
Flags: HW
HStem: 0 41G<90 471 684 1047 1262 1643> 1262 39G<90 663 1062 1643>
VStem: 90 381<0 762> 1262 381<0 762>
LayerCount: 2
Fore
SplineSet
1035 0 m 261
 695 0 l 261
 471 762 l 261
 471 0 l 261
 90 0 l 261
 90 1301 l 261
 652 1301 l 261
 865 523 l 261
 1072 1301 l 261
 1643 1301 l 261
 1643 0 l 261
 1262 0 l 261
 1262 762 l 261
 1035 0 l 261
EndSplineSet
EndChar

StartChar: N
Encoding: 78 78 71
GlifName: N_
Width: 1359
VWidth: 0
GlyphClass: 2
Flags: HW
HStem: 0 41G<90 471 855 1270> 1262 39G<90 571 891 1270>
VStem: 90 381<0 723> 891 379<637 1301>
AnchorPoint: "bottom1" 689 0 basechar 0
AnchorPoint: "top1" 682 1400 basechar 0
LayerCount: 2
Fore
SplineSet
891 1301 m 261
 1270 1301 l 261
 1270 0 l 261
 877 0 l 261
 471 723 l 261
 471 0 l 261
 90 0 l 261
 90 1301 l 261
 551 1301 l 261
 891 637 l 261
 891 1301 l 261
EndSplineSet
EndChar

StartChar: O
Encoding: 79 79 75
GlifName: O_
Width: 1408
VWidth: 0
GlyphClass: 2
Flags: W
HStem: -16 340<564.593 844.382> 980 340<567.134 841.862>
VStem: 70 385<442.297 852.427> 953 387<442.297 852.427>
AnchorPoint: "top3" 859 1301 basechar 0
AnchorPoint: "bottom1" 701 0 basechar 0
AnchorPoint: "top1" 705 1400 basechar 0
LayerCount: 2
Fore
SplineSet
70 635 m 260
 70 1047 322 1320 705 1320 c 260
 1086 1320 1340 1047 1340 635 c 260
 1340 244 1086 -16 705 -16 c 260
 322 -16 70 244 70 635 c 260
953 635 m 260
 953 854 861 980 705 980 c 260
 547 980 455 854 455 635 c 260
 455 440 547 324 705 324 c 260
 861 324 953 440 953 635 c 260
EndSplineSet
EndChar

StartChar: OE
Encoding: 338 338 76
GlifName: O_E_
Width: 1982
VWidth: 0
GlyphClass: 2
Flags: HW
HStem: -16 340<565 804> 0 355<1334 1914> 479 355<1334 1857> 943 357<1334 1914> 980 340<568 803>
VStem: 70 385<447 844> 953 146<242 1051>
LayerCount: 2
Fore
SplineSet
1914 1301 m 257x76
 1914 943 l 257
 1334 943 l 257
 1334 818 l 257
 1857 818 l 257
 1857 494 l 261
 1334 494 l 261
 1334 355 l 257
 1914 355 l 257
 1914 0 l 257
 953 0 l 257
 953 1301 l 257
 1914 1301 l 257x76
70 645 m 256
 70 1045 291 1320 613 1320 c 256
 906 1320 1100 1051 1100 645 c 256
 1100 243 910 -16 613 -16 c 256xae
 289 -16 70 249 70 645 c 256
953 645 m 256
 953 854 861 980 705 980 c 256
 549 980 455 854 455 645 c 256
 455 440 547 324 705 324 c 256
 863 324 953 440 953 645 c 256
EndSplineSet
EndChar

StartChar: Ohorn
Encoding: 416 416 83
GlifName: O_horn
Width: 1408
VWidth: 0
GlyphClass: 2
Flags: W
HStem: -16 340<564.593 844.382> 980 340<567.134 831.097> 1104 197<1052 1126.1>
VStem: 70 385<442.297 852.427> 953 387<442.297 852.427> 1182 281<1331.07 1545>
AnchorPoint: "top1" 705 1400 basechar 0
AnchorPoint: "bottom1" 701 0 basechar 0
LayerCount: 2
Fore
SplineSet
70 635 m 256xd8
 70 1047 322 1320 705 1320 c 256
 1086 1320 1340 1047 1340 635 c 256
 1340 244 1086 -16 705 -16 c 256
 322 -16 70 244 70 635 c 256xd8
953 635 m 256
 953 854 861 980 705 980 c 256
 547 980 455 854 455 635 c 256
 455 440 547 324 705 324 c 256
 861 324 953 440 953 635 c 256
841 1301 m 257xb4
 1052 1301 l 258
 1126.1 1301 1182 1325.13513514 1182 1442 c 258
 1182 1545 l 257
 1463 1545 l 257
 1463 1400 l 258
 1463 1173 1289.79387187 1104 1134 1104 c 258
 841 1104 l 257
 841 1301 l 257xb4
EndSplineSet
EndChar

StartChar: Oslash
Encoding: 216 216 86
GlifName: O_slash
Width: 1408
VWidth: 0
GlyphClass: 2
Flags: HW
HStem: -16 340<570 844> 980 340<567 842> 1361 39G<1117 1195>
VStem: 70 385<492 852> 953 387<442 806>
LayerCount: 2
Fore
SplineSet
1148 1400 m 261
 1340 1240 l 261
 262 -100 l 257
 70 61 l 257
 1148 1400 l 261
70 635 m 256
 70 1047 322 1320 705 1320 c 256
 1086 1320 1340 1047 1340 635 c 256
 1340 244 1086 -16 705 -16 c 256
 322 -16 70 244 70 635 c 256
953 635 m 256
 953 854 861 980 705 980 c 256
 547 980 455 854 455 635 c 256
 455 440 547 324 705 324 c 256
 861 324 953 440 953 635 c 256
EndSplineSet
EndChar

StartChar: P
Encoding: 80 80 88
GlifName: P_
Width: 1251
VWidth: 0
GlyphClass: 2
Flags: HW
HStem: 0 41G<90 471> 393 336<471 765> 979 322<471 772>
VStem: 90 381<0 393 729 979> 803 389<763 945>
LayerCount: 2
Fore
SplineSet
656 979 m 262
 471 979 l 261
 471 729 l 261
 656 729 l 262
 748 729 803 775 803 855 c 260
 803 933 748 979 656 979 c 262
727 393 m 262
 471 393 l 261
 471 0 l 261
 90 0 l 261
 90 1301 l 261
 689 1301 l 262
 992 1301 1191 1121 1191 855 c 260
 1191 580 1004 393 727 393 c 262
EndSplineSet
EndChar

StartChar: Q
Encoding: 81 81 89
GlifName: Q_
Width: 1408
VWidth: 0
GlyphClass: 2
Flags: HW
HStem: -16 340<565 815> 980 340<567 842>
VStem: 70 385<442 852> 953 387<544 852>
LayerCount: 2
Fore
SplineSet
1400 205 m 257
 1207 -33 l 257
 588 475 l 257
 779 715 l 257
 1400 205 l 257
70 635 m 256
 70 1047 322 1320 705 1320 c 256
 1086 1320 1340 1047 1340 635 c 256
 1340 244 1086 -16 705 -16 c 256
 322 -16 70 244 70 635 c 256
953 635 m 256
 953 854 861 980 705 980 c 256
 547 980 455 854 455 635 c 256
 455 440 547 324 705 324 c 256
 861 324 953 440 953 635 c 256
EndSplineSet
EndChar

StartChar: R
Encoding: 82 82 90
GlifName: R_
Width: 1251
VWidth: 0
GlyphClass: 2
Flags: W
HStem: 0 21G<90 471 819.417 1195> 418 316<471 742> 559 58<758 1012> 984 317<471 778.747>
VStem: 90 381<0 418 734 984> 807 375<762.814 955.536>
AnchorPoint: "bottom1" 646 0 basechar 0
AnchorPoint: "top1" 621 1400 basechar 0
LayerCount: 2
Fore
SplineSet
646 418 m 261xdc
 758 617 l 261xbc
 1028 617 1133 551 1160 307 c 262
 1195 0 l 261
 822 0 l 261
 787 271 l 262
 775 369 738 418 646 418 c 261xdc
668 984 m 258
 471 984 l 257
 471 734 l 257
 668 734 l 258xdc
 756 734 807 779 807 861 c 256
 807 939 756 984 668 984 c 258
758 559 m 257xbc
 742 418 l 257
 471 418 l 257xdc
 471 0 l 257
 90 0 l 257
 90 1301 l 257
 729 1301 l 258
 1000 1301 1182 1151 1182 922 c 256
 1182 703 1012 559 758 559 c 257xbc
EndSplineSet
Substitution2: "ss05StyleSet5inLatinlookup4 subtable" R.ss05
EndChar

StartChar: R.ss05
Encoding: 65547 -1 91
GlifName: R_.ss05
Width: 1251
VWidth: 0
GlyphClass: 2
Flags: HW
HStem: 0 41G<90 471 788 1229> 418 316<471 756> 418 107<580 947> 984 316<471 778>
VStem: 90 381<0 418 734 984> 807 375<761 955>
AnchorPoint: "top1" 621 1400 basechar 0
AnchorPoint: "bottom1" 646 0 basechar 0
LayerCount: 2
Fore
SplineSet
947 525 m 257xbc
 1229 0 l 257
 805 0 l 257
 580 525 l 257
 947 525 l 257xbc
668 984 m 258
 471 984 l 257
 471 734 l 257
 668 734 l 258xdc
 756 734 807 779 807 861 c 256
 807 939 756 984 668 984 c 258
768 418 m 258xbc
 471 418 l 257xdc
 471 0 l 257
 90 0 l 257
 90 1301 l 257
 729 1301 l 258
 1000 1301 1182 1117 1182 842 c 256
 1182 588 1016 418 768 418 c 258xbc
EndSplineSet
EndChar

StartChar: S
Encoding: 83 83 94
GlifName: S_
Width: 1259
VWidth: 0
GlyphClass: 2
Flags: W
HStem: -16 303<508.084 778.531> 1020 298<490.755 740.912>
VStem: 80 385<335.22 420 857.652 990.93> 807 382<317.2 448.361>
AnchorPoint: "bottom1" 656 0 basechar 0
AnchorPoint: "top1" 611 1400 basechar 0
LayerCount: 2
Fore
SplineSet
699 465 m 262
 471 486 l 262
 219 509 80 659 80 906 c 260
 80 1160 285 1318 613 1318 c 260
 929 1318 1139 1158 1166 895 c 261
 781 895 l 261
 765 981 711 1020 609 1020 c 260
 521 1020 465 981 465 920 c 260
 465 875 490 852 545 846 c 262
 748 826 l 262
 1047 797 1189 657 1189 398 c 260
 1189 148 980 -16 660 -16 c 260
 324 -16 101 150 70 420 c 261
 457 420 l 261
 473 330 541 287 662 287 c 260
 750 287 807 331 807 395 c 260
 807 438 769 459 699 465 c 262
EndSplineSet
EndChar

StartChar: T
Encoding: 84 84 99
GlifName: T_
Width: 1197
VWidth: 0
GlyphClass: 2
Flags: W
HStem: 0 21G<410 789> 943 358<51 410 789 1148>
VStem: 410 379<0 943>
AnchorPoint: "bottom1" 607 0 basechar 0
AnchorPoint: "top1" 594 1400 basechar 0
LayerCount: 2
Fore
SplineSet
1148 1301 m 257
 1148 943 l 257
 789 943 l 257
 789 0 l 257
 410 0 l 257
 410 943 l 257
 51 943 l 257
 51 1301 l 257
 1148 1301 l 257
EndSplineSet
EndChar

StartChar: Tbar
Encoding: 358 358 100
GlifName: T_bar
Width: 1197
VWidth: 0
GlyphClass: 2
Flags: W
HStem: 0 21G<410 789> 385 336<170 1053> 943 358<51 410 789 1148>
VStem: 410 379<0 943>
LayerCount: 2
Fore
SplineSet
170 721 m 257
 1053 721 l 261
 1053 385 l 261
 170 385 l 257
 170 721 l 257
1148 1301 m 261
 1148 943 l 261
 789 943 l 261
 789 0 l 261
 410 0 l 261
 410 943 l 261
 51 943 l 257
 51 1301 l 257
 1148 1301 l 261
EndSplineSet
EndChar

StartChar: Thorn
Encoding: 222 222 102
GlifName: T_horn
Width: 1251
VWidth: 0
GlyphClass: 2
Flags: HW
HStem: 0 41G<86 471> 213 336<471 765> 799 320<471 772> 1262 39G<86 467>
VStem: 86 385<0 213 549 799 1119 1301> 803 389<584 765>
LayerCount: 2
Fore
SplineSet
86 1301 m 257
 467 1301 l 257
 467 1119 l 257
 689 1119 l 258
 992 1119 1191 942 1191 676 c 256
 1191 401 1004 213 727 213 c 258
 471 213 l 257
 471 0 l 257
 86 0 l 257
 86 1301 l 257
471 799 m 257
 471 549 l 257
 656 549 l 258
 748 549 803 596 803 676 c 256
 803 754 748 799 656 799 c 258
 471 799 l 257
EndSplineSet
EndChar

StartChar: U
Encoding: 85 85 103
GlifName: U_
Width: 1277
VWidth: 0
GlyphClass: 2
Flags: W
HStem: -16 360<514.148 770.346> 1281 20G<80 461 818 1197>
VStem: 80 381<399.926 1301> 818 379<399.926 1301>
AnchorPoint: "top3" 818 1301 basechar 0
AnchorPoint: "bottom2" 793 0 basechar 0
AnchorPoint: "bottom1" 652 0 basechar 0
AnchorPoint: "top1" 629 1400 basechar 0
LayerCount: 2
Fore
SplineSet
80 1301 m 257
 461 1301 l 257
 461 514 l 258
 461 407 531 344 652 344 c 256
 757 344 818 407 818 514 c 258
 818 1301 l 257
 1197 1301 l 257
 1197 514 l 258
 1197 196 978 -16 652 -16 c 256
 308 -16 80 196 80 514 c 258
 80 1301 l 257
EndSplineSet
EndChar

StartChar: Uogonek
Encoding: 370 370 113
GlifName: U_ogonek
Width: 1277
VWidth: 0
GlyphClass: 2
Flags: HW
HStem: -531 279<642 877> -39 39G<509 793> -16 359<514 771> 1262 39G<80 461 818 1197>
VStem: 80 381<400 1301> 365 266<-354 -125> 818 379<400 1301>
LayerCount: 2
Fore
SplineSet
80 1301 m 1
 461 1301 l 1
 461 514 l 2
 461 407 531 344 652 344 c 0
 757 344 818 407 818 514 c 2
 818 1301 l 1
 1197 1301 l 1
 1197 514 l 2
 1197 84.7140711419 854.999995408 63.7900294474 855 -150.8125 c 0
 855.000001427 -217.519327821 899.980345671 -252 987 -252 c 2
 1040 -252 l 1
 1040 -511 l 1
 971 -511 l 2
 698.295147505 -511 532 -407.347786505 532 -237.370117188 c 0
 532 -149.819004481 587.579229782 -75.2102188448 697.903266623 -14.56472439 c 1
 682.853682997 -15.51774119 667.548543579 -15.9999999126 652 -16 c 0
 308 -16 80 196 80 514 c 2
 80 1301 l 1
EndSplineSet
EndChar

StartChar: V
Encoding: 86 86 116
GlifName: V_
Width: 1353
VWidth: 0
GlyphClass: 2
Flags: HW
HStem: 0 41G<448 907> 1262 39G<29 435 917 1324>
LayerCount: 2
Fore
SplineSet
29 1301 m 257
 424 1301 l 257
 680 393 l 257
 928 1301 l 257
 1324 1301 l 257
 895 0 l 257
 461 0 l 257
 29 1301 l 257
EndSplineSet
EndChar

StartChar: W
Encoding: 87 87 117
GlifName: W_
Width: 2089
VWidth: 0
GlyphClass: 2
Flags: HW
HStem: 0 21G<359.835 864.878 1229.47 1716.38> 1281 20G<29 428.071 802.551 1283.61 1662 2061>
AnchorPoint: "top1" 1029 1400 basechar 0
LayerCount: 2
Fore
SplineSet
29 1301 m 257
 424 1301 l 257
 607 422 l 257
 797 1301 l 257
 1289 1301 l 257
 1486 422 l 257
 1666 1301 l 257
 2061 1301 l 257
 1731 0 l 257
 1214 0 l 257
 1033 867 l 257
 881 0 l 257
 345 0 l 257
 29 1301 l 257
EndSplineSet
EndChar

StartChar: X
Encoding: 88 88 119
GlifName: X_
Width: 1312
VWidth: 0
GlyphClass: 2
Flags: HW
HStem: 0 41G<29 475 841 1283> 1262 39G<29 473 840 1283>
LayerCount: 2
Fore
SplineSet
29 1301 m 261
 455 1301 l 261
 660 863 l 261
 857 1301 l 261
 1283 1301 l 261
 969 650 l 261
 1283 0 l 261
 859 0 l 261
 654 436 l 261
 457 0 l 261
 29 0 l 261
 346 650 l 261
 29 1301 l 261
EndSplineSet
EndChar

StartChar: Y
Encoding: 89 89 120
GlifName: Y_
Width: 1312
VWidth: 0
GlyphClass: 2
Flags: HW
HStem: 0 41G<465 844> 1262 39G<29 461 850 1283>
VStem: 465 379<0 432>
AnchorPoint: "bottom1" 662 0 basechar 0
AnchorPoint: "top1" 654 1400 basechar 0
LayerCount: 2
Fore
SplineSet
465 434 m 261
 29 1301 l 261
 443 1301 l 261
 660 822 l 261
 867 1301 l 261
 1283 1301 l 261
 844 432 l 261
 844 0 l 261
 465 0 l 261
 465 434 l 261
EndSplineSet
EndChar

StartChar: Z
Encoding: 90 90 126
GlifName: Z_
Width: 1203
VWidth: 0
GlyphClass: 2
Flags: W
HStem: 0 316<504 1113> 984 317<90 697>
AnchorPoint: "top1" 604 1400 basechar 0
LayerCount: 2
Fore
SplineSet
90 1301 m 257
 1113 1301 l 257
 1113 924 l 257
 504 316 l 257
 1113 316 l 257
 1113 0 l 257
 90 0 l 257
 90 377 l 257
 697 984 l 257
 90 984 l 257
 90 1301 l 257
EndSplineSet
EndChar

StartChar: a
Encoding: 97 97 131
GlifName: a
Width: 1154
VWidth: 0
GlyphClass: 2
Flags: HW
HStem: -27 275<304 578.323> 0 21G<686 1066> 773 260<478.042 669.002>
VStem: 66 383<263.873 390.736> 686 50<111 344>
AnchorPoint: "bottom1" 611 0 basechar 0
AnchorPoint: "bottom2" 1066 0 basechar 0
AnchorPoint: "top1" 576 1119 basechar 0
LayerCount: 2
Fore
SplineSet
1066 631 m 258x78
 1066 0 l 257
 686 0 l 257
 686 684 l 258
 686 731.8375 647 773 582 773 c 256
 515.529411765 773 476.596638655 741.846153846 469 683 c 257
 80 683 l 257
 94.8185483871 895.278106509 288.447580645 1033 570 1033 c 256
 871 1033 1066 875 1066 631 c 258x78
736 344 m 257
 736 64 611 -27 400 -27 c 256
 208 -27 66 108.609756098 66 293 c 256
 66 505.515625 201.411522461 611.679767668 474 628 c 258
 628 637 l 258
 671.628167541 638.983098525 686 649.115384615 686 679 c 257
 688 406 l 257
 531 400 l 258
 478.999513875 398.012720275 449 371 449 326 c 256
 449 280 493 248 555 248 c 256xb8
 627 248 686 300 686 365 c 257
 736 344 l 257
EndSplineSet
Substitution2: "'cv05' Character Variants 05 in Latin lookup 22-1" a.spur
Substitution2: "ss01StyleSet1inLatinlookup0 subtable" a.ss01
EndChar

StartChar: a.ss01
Encoding: 65551 -1 132
GlifName: a.ss01
Width: 1214
VWidth: 0
GlyphClass: 2
Flags: HW
HStem: -35 318<343 622> 721 318<343 624>
VStem: 66 385<342 663> 750 86<180 826>
AnchorPoint: "bottom2" 1131 0 basechar 0
AnchorPoint: "top1" 615 1119 basechar 0
AnchorPoint: "bottom1" 652 0 basechar 0
LayerCount: 2
Fore
SplineSet
1131 1000 m 257
 750 1000 l 257
 750 0 l 257
 1131 0 l 257
 1131 1000 l 257
836 504 m 256
 836 826 688 1039 461 1039 c 256
 225 1039 66 826 66 504 c 256
 66 180 225 -35 461 -35 c 256
 688 -35 836 180 836 504 c 256
451 504 m 256
 451 641 508 721 600 721 c 256
 694 721 750 641 750 504 c 256
 750 363 694 283 600 283 c 256
 508 283 451 363 451 504 c 256
EndSplineSet
Substitution2: "'cv05' Character Variants 05 in Latin lookup 22-1" a.spur.ss01
EndChar

StartChar: acutecomb
Encoding: 769 769 139
GlifName: acutecomb
Width: 599
VWidth: 0
GlyphClass: 4
Flags: W
HStem: 1000 342<279 398>
VStem: 117 543
AnchorPoint: "top1" 312 1000 mark 0
LayerCount: 2
Fore
SplineSet
660 1342 m 261
 398 1000 l 261
 117 1000 l 257
 279 1342 l 257
 660 1342 l 261
EndSplineSet
EndChar

StartChar: adieresis.ss01.ss03
Encoding: 65556 -1 142
GlifName: adieresis.ss01.ss03
Width: 1214
VWidth: 0
GlyphClass: 2
Flags: HW
HStem: -35 318<343 622> 721 318<343 624> 1086 432<206 465 787 1045>
VStem: 66 385<342 663> 119 434<1173 1431> 699 434<1173 1431> 750 86<180 826>
LayerCount: 2
Fore
SplineSet
119 1303 m 256xe8
 119 1422 217 1518 336 1518 c 256
 455 1518 553 1422 553 1303 c 256
 553 1184 455 1086 336 1086 c 256
 217 1086 119 1184 119 1303 c 256xe8
699 1303 m 256xe4
 699 1422 797 1518 916 1518 c 256
 1035 1518 1133 1422 1133 1303 c 256
 1133 1184 1035 1086 916 1086 c 256
 797 1086 699 1184 699 1303 c 256xe4
EndSplineSet
Refer: 132 -1 N 1 0 0 1 0 0 2
EndChar

StartChar: ae
Encoding: 230 230 144
GlifName: ae
Width: 1799
VWidth: 0
GlyphClass: 2
Flags: HW
HStem: -27 291<463 653 1091 1336> 398 236<1033 1336> 422 205<513 685> 752 268<1096 1303> 768 266<482 668>
VStem: 1033 8<398 635>
AnchorPoint: "top1" 896 1119 basechar 0
LayerCount: 2
Fore
SplineSet
725 504.57907031 m 256xd4
 725 819.613698411 912.698951608 1020 1207.78733313 1020 c 256
 1522.43109104 1020 1744 790.667960551 1744 465 c 258
 1744 398 l 257
 1033 398 l 257
 1033 635 l 257
 1336 635 l 257
 1328.00787229 706.929149352 1274.07693989 752 1196 752 c 256
 1092.36493773 752 1041 672.565367167 1041 512.29625201 c 256
 1041 338.070414432 1101.73959689 250 1221.89807702 250 c 256
 1287.70553344 250 1329.91550945 276.529630241 1346 328 c 257
 1730 328 l 257
 1698.70867656 105.049320508 1535.17969139 -16 1265.28057272 -16 c 256
 925.753478763 -16 725 177.4329395 725 504.57907031 c 256xd4
967 336 m 257
 686 301 l 257
 686 686 l 258
 686 731.51599305 634.27157754 768 569.737259245 768 c 256
 508.877658087 768 470.856374043 733.803475805 463 672 c 257
 74 672 l 257
 88.8584988068 891.530172798 271.037667546 1033 538.881319328 1033 c 256x8c
 813.294386854 1033 967 888.671664718 967 631 c 258
 967 336 l 257
906 344 m 257
 882.64232929 104.367600494 734.52223967 -27 487.688688518 -27 c 256
 236.001745644 -27 66 112.816819094 66 319.815092121 c 256
 66 507.460754467 204.194074691 611.846362747 474 628 c 258
 628 637 l 258
 671.830978354 638.992317198 686 649.252643218 686 679 c 257
 688 406 l 257
 531 400 l 258
 479.819966151 398.04407514 449 371.67551 449 329.843455025 c 256
 449 281.487135476 491.105695345 248 551.907445929 248 c 256xb8
 626.701884781 248 686 299.739483439 686 365 c 257
 906 344 l 257
EndSplineSet
EndChar

StartChar: ampersand
Encoding: 38 38 149
GlifName: ampersand
Width: 1421
VWidth: 0
GlyphClass: 2
Flags: HW
HStem: -16 289<499 761> 0 41G<956 1412> 1047 270<572 744>
VStem: 70 385<320 529> 189 369<876 1030> 758 326<869 1032>
LayerCount: 2
Fore
SplineSet
621 1316 m 256x6c
 894 1316 1084 1174 1084 963 c 256
 1084 774 957 656 676 588 c 256
 514 551 455 502 455 412 c 256
 455 324 527 273 648 273 c 256
 826 273 957 416 980 637 c 257
 1324 637 l 257
 1303 256 1016 -16 635 -16 c 256
 299 -16 70 143 70 377 c 256xb4
 70 584 211 687 523 771 c 257
 675 826 758 871 758 953 c 256
 758 1012 722 1047 660 1047 c 256
 598 1047 559 1012 559 955 c 256
 559 877 698 805 768 721 c 258
 1412 0 l 257
 994 0 l 257
 355 652 l 258
 240 769 189 850 189 971 c 256
 189 1174 365 1316 621 1316 c 256x6c
EndSplineSet
EndChar

StartChar: aogonek
Encoding: 261 261 150
GlifName: aogonek
Width: 1154
VWidth: 0
GlyphClass: 2
Flags: HW
HStem: -531 279<915 1150> -39 39G<782 1066> -27 275<304 578> 0 41G<686 1066> 773 260<478 670>
VStem: 639 266<-354 -125> 686 51<111 344>
LayerCount: 2
Fore
SplineSet
1041 0 m 257
 938.910106434 -21.8966377777 880 -77.0791248993 880 -150.8125 c 256
 880 -217.519327821 924.980345671 -252 1012 -252 c 258
 1065 -252 l 257
 1065 -511 l 257
 996 -511 l 258
 723.295147505 -511 557 -403.559742143 557 -227.370117188 c 256
 557 -136.665053037 600.234013235 -60.4625518296 686 0 c 257
 1041 0 l 257
1066 631 m 258x78
 1066 0 l 257
 686 0 l 257
 686 684 l 258
 686 731.837890625 647 773 582 773 c 256
 515.529296875 773 476.596679688 741.845703125 469 683 c 257
 80 683 l 257
 94.818359375 895.278320312 288.447265625 1033 570 1033 c 256
 871 1033 1066 875 1066 631 c 258x78
736 344 m 257
 736 64 611 -27 400 -27 c 256
 208 -27 66 108.609375 66 293 c 256
 66 505.515625 201.388430166 612.06815501 474 628 c 258
 628 637 l 258
 671.594947712 639.547756684 686 649.115234375 686 679 c 257
 688 406 l 257
 531 400 l 258
 478.999998338 398.01273879 449 371 449 326 c 256
 449 280 493 248 555 248 c 256xb8
 627 248 686 300 686 365 c 257
 736 344 l 257
EndSplineSet
Substitution2: "ss01StyleSet1inLatinlookup0 subtable" aogonek.ss01
EndChar

StartChar: asciicircum
Encoding: 94 94 154
GlifName: asciicircum
Width: 939
VWidth: 0
GlyphClass: 2
Flags: HW
HStem: 1000 439<289 369 570 650>
LayerCount: 2
Fore
SplineSet
289 1439 m 257
 650 1439 l 257
 869 1000 l 257
 570 1000 l 257
 471 1271 l 257
 369 1000 l 257
 70 1000 l 257
 289 1439 l 257
EndSplineSet
EndChar

StartChar: asciitilde
Encoding: 126 126 155
GlifName: asciitilde
Width: 1013
VWidth: 0
GlyphClass: 2
Flags: HW
HStem: 621 281<514 744> 730 279<275 470>
LayerCount: 2
Fore
SplineSet
299 1010 m 260x40
 408 1010 466 970 525 939 c 260
 562 919 598 902 645 902 c 260
 717 902 758 937 758 998 c 261
 965 998 l 261
 965 758 858 621 670 621 c 260x80
 582 621 529 653 482 680 c 260
 439 705 404 730 355 730 c 260
 296 730 260 692 260 631 c 261
 51 631 l 261
 51 881 137 1010 299 1010 c 260x40
EndSplineSet
EndChar

StartChar: asterisk
Encoding: 42 42 156
GlifName: asterisk
Width: 1130
VWidth: 0
GlyphClass: 2
Flags: HW
HStem: 1361 39G<436 695>
LayerCount: 2
Fore
SplineSet
436 1400 m 261
 695 1400 l 261
 664 1033 l 261
 1002 1178 l 261
 1082 930 l 261
 725 848 l 261
 967 572 l 261
 754 420 l 261
 566 734 l 261
 379 420 l 261
 166 572 l 261
 408 848 l 261
 51 930 l 261
 131 1178 l 261
 469 1033 l 261
 436 1400 l 261
EndSplineSet
Substitution2: "ss09StyleSet9inLatinlookup8 subtable" asterisk.ss09
EndChar

StartChar: asterisk.ss09
Encoding: 65562 -1 157
GlifName: asterisk.ss09
Width: 1394
VWidth: 0
GlyphClass: 2
Flags: HW
HStem: 0 41G<527 867> 1262 39G<527 867>
VStem: 527 340<0 277 1024 1301> 547 303<110 387 914 1191>
LayerCount: 2
Fore
SplineSet
527 1301 m 257xe0
 867 1301 l 257xe0
 850 914 l 257
 1176 1121 l 257
 1346 828 l 257
 1004 650 l 257
 1346 473 l 257
 1176 178 l 257
 850 387 l 257xd0
 867 0 l 257
 527 0 l 257xe0
 547 387 l 257
 221 178 l 257
 51 473 l 257
 393 650 l 257
 51 828 l 257
 221 1121 l 257
 547 914 l 257xd0
 527 1301 l 257xe0
EndSplineSet
EndChar

StartChar: at
Encoding: 64 64 158
GlifName: at
Width: 1890
VWidth: 0
GlyphClass: 2
Flags: HW
HStem: -316 301<727 1319> 111 273<1357 1479> 129 260<733 958> 664 260<733 961> 1080 301<721 1198>
VStem: 70 326<291 766> 525 326<407 646> 1029 72<287 766> 1494 328<394 772>
LayerCount: 2
Fore
SplineSet
852 527 m 256xbf80
 852 613 882 664 939 664 c 256
 996 664 1029 613 1029 527 c 256
 1029 439 998 389 939 389 c 256
 882 389 852 439 852 527 c 256xbf80
1102 527 m 256
 1102 765 990 924 822 924 c 256
 644 924 525 765 525 527 c 256
 525 287 644 129 822 129 c 256
 990 129 1102 287 1102 527 c 256
1350 885 m 257
 1029 885 l 257
 1029 402 l 258
 1029 213 1164 111 1418 111 c 256
 1678 111 1822 272 1822 551 c 256
 1822 1049 1481 1381 967 1381 c 256
 430 1381 70 1034 70 514 c 256
 70 16 441 -316 1002 -316 c 256
 1143 -316 1274 -295 1393 -248 c 257
 1393 53 l 257
 1288 8 1148 -16 986 -16 c 256
 613 -16 396 178 396 514 c 256
 396 871 608 1080 967 1080 c 256
 1301 1080 1494 875 1494 527 c 256
 1494 423 1473 385 1418 385 c 256xdf80
 1373 385 1350 410 1350 463 c 258
 1350 885 l 257
EndSplineSet
EndChar

StartChar: b
Encoding: 98 98 161
GlifName: b
Width: 1214
VWidth: 0
GlyphClass: 2
Flags: W
HStem: -35 318<593.416 874> 0 21G<86 467> 721 318<593.416 874> 1380 20G<86 467>
VStem: 86 381<504 1400> 381 86<180 826> 764 386<342.142 663.574>
LayerCount: 2
Fore
SplineSet
86 1400 m 257x7a
 467 1400 l 257x7a
 467 0 l 257x76
 86 0 l 257
 86 1400 l 257x7a
381 504 m 256xb6
 381 826 529 1039 756 1039 c 256
 992 1039 1150 826 1150 504 c 256
 1150 180 992 -35 756 -35 c 256
 529 -35 381 180 381 504 c 256xb6
764 504 m 256
 764 641 707 721 615 721 c 256
 521 721 467 641 467 504 c 256xba
 467 363 521 283 615 283 c 256
 707 283 764 363 764 504 c 256
EndSplineSet
EndChar

StartChar: backslash
Encoding: 92 92 162
GlifName: backslash
Width: 1000
VWidth: 0
GlyphClass: 2
Flags: HW
HStem: 0 41G<500 934> 1262 39G<66 500>
LayerCount: 2
Fore
SplineSet
486 1301 m 257
 934 0 l 257
 514 0 l 257
 66 1301 l 257
 486 1301 l 257
EndSplineSet
EndChar

StartChar: bar
Encoding: 124 124 163
GlifName: bar
Width: 550
VWidth: 0
GlyphClass: 2
Flags: HW
VStem: 86 381<-400 1600>
LayerCount: 2
Fore
SplineSet
86 1600 m 257
 467 1600 l 257
 467 -400 l 257
 86 -400 l 257
 86 1600 l 257
EndSplineSet
EndChar

StartChar: braceleft
Encoding: 123 123 164
GlifName: braceleft
Width: 718
VWidth: 0
GlyphClass: 2
Flags: HW
VStem: 170 359<83 388 731 1037>
LayerCount: 2
Fore
SplineSet
670 1045 m 257
 609 1045 l 258
 552 1045 529 1024 529 973 c 258
 529 764 l 258
 529 660 466 588 357 561 c 257
 466 534 529 459 529 355 c 258
 529 148 l 258
 529 97 552 76 609 76 c 258
 670 76 l 257
 670 -260 l 257
 549 -260 l 258
 311 -260 170 -121 170 115 c 258
 170 324 l 258
 170 375 147 396 90 396 c 258
 51 396 l 257
 51 725 l 257
 90 725 l 258
 147 725 170 746 170 797 c 258
 170 1004 l 258
 170 1240 311 1381 549 1381 c 258
 670 1381 l 257
 670 1045 l 257
EndSplineSet
EndChar

StartChar: braceright
Encoding: 125 125 165
GlifName: braceright
Width: 718
VWidth: 0
GlyphClass: 2
Flags: HW
VStem: 189 361<83 388 731 1037>
LayerCount: 2
Fore
SplineSet
51 76 m 257
 109 76 l 258
 166 76 189 97 189 148 c 258
 189 355 l 258
 189 459 252 534 361 561 c 257
 252 588 189 660 189 764 c 258
 189 973 l 258
 189 1024 166 1045 109 1045 c 258
 51 1045 l 257
 51 1381 l 257
 172 1381 l 258
 410 1381 551 1240 551 1004 c 258
 551 797 l 258
 551 746 574 725 631 725 c 258
 670 725 l 257
 670 396 l 257
 631 396 l 258
 574 396 551 375 551 324 c 258
 551 115 l 258
 551 -121 410 -260 172 -260 c 258
 51 -260 l 257
 51 76 l 257
EndSplineSet
EndChar

StartChar: bracketleft
Encoding: 91 91 166
GlifName: bracketleft
Width: 718
VWidth: 0
GlyphClass: 2
Flags: HW
VStem: 70 600
LayerCount: 2
Fore
SplineSet
449 1023 m 257
 670 1023 l 257
 670 1381 l 257
 70 1381 l 257
 70 -260 l 257
 670 -260 l 257
 670 96 l 257
 449 96 l 257
 449 1023 l 257
EndSplineSet
EndChar

StartChar: bracketright
Encoding: 93 93 167
GlifName: bracketright
Width: 718
VWidth: 0
GlyphClass: 2
Flags: HW
VStem: 51 600
LayerCount: 2
Fore
SplineSet
270 96 m 257
 51 96 l 257
 51 -260 l 257
 650 -260 l 257
 650 1381 l 257
 51 1381 l 257
 51 1023 l 257
 270 1023 l 257
 270 96 l 257
EndSplineSet
EndChar

StartChar: bullet
Encoding: 8226 8226 168
GlifName: bullet
Width: 671
VWidth: 0
GlyphClass: 2
Flags: HW
HStem: 371 553<187 485>
VStem: 61 551<498 798>
LayerCount: 2
Fore
SplineSet
61 648 m 256
 61 802 182 924 336 924 c 256
 490 924 611 802 611 648 c 256
 611 494 490 371 336 371 c 256
 182 371 61 494 61 648 c 256
EndSplineSet
EndChar

StartChar: c
Encoding: 99 99 169
GlifName: c
Width: 1168
VWidth: 0
GlyphClass: 2
Flags: W
HStem: -35 318<501.97 701.392> 721 318<500.391 699.85>
VStem: 60 385<342.142 663.937>
AnchorPoint: "bottom1" 605 0 basechar 0
AnchorPoint: "top1" 590 1119 basechar 0
LayerCount: 2
Fore
SplineSet
60 504 m 256
 60 826 272 1039 594 1039 c 256
 883 1039 1113 873 1113 578 c 261
 728 578 l 257
 726 683 674 721 594 721 c 256
 500 721 445 643 445 504 c 256
 445 363 500 283 594 283 c 256
 672 283 724 312 728 408 c 257
 1113 408 l 261
 1105 121 881 -35 594 -35 c 256
 274 -35 60 180 60 504 c 256
EndSplineSet
EndChar

StartChar: colon
Encoding: 58 58 176
GlifName: colon
Width: 550
VWidth: 0
GlyphClass: 2
Flags: HW
HStem: 0 395<72 480> 604 395<72 480>
VStem: 72 408<0 395 604 998>
LayerCount: 2
Fore
SplineSet
72 998 m 261
 480 998 l 261
 480 604 l 261
 72 604 l 261
 72 998 l 261
72 395 m 261
 480 395 l 261
 480 0 l 261
 72 0 l 261
 72 395 l 261
EndSplineSet
Substitution2: "'tnum' Tabular Numbers in Latin lookup 11-1" colon.tabl
Substitution2: "ss03StyleSet3inLatinlookup2 subtable" colon.ss03
EndChar

StartChar: colon.ss03
Encoding: 65565 -1 177
GlifName: colon.ss03
Width: 550
VWidth: 0
GlyphClass: 2
Flags: HW
HStem: -21 432<147 405> 592 432<147 405>
VStem: 61 432<65 323 679 937>
LayerCount: 2
Fore
SplineSet
61 809 m 256
 61 928 156 1023 275 1023 c 256
 394 1023 492 928 492 809 c 256
 492 690 394 592 275 592 c 256
 156 592 61 690 61 809 c 256
61 193 m 256
 61 312 156 410 275 410 c 256
 394 410 492 312 492 193 c 256
 492 74 394 -21 275 -21 c 256
 156 -21 61 74 61 193 c 256
EndSplineSet
EndChar

StartChar: comma
Encoding: 44 44 178
GlifName: comma
Width: 550
VWidth: 0
GlyphClass: 2
Flags: W
HStem: 0 395<72 312>
VStem: 72 408<0 395>
LayerCount: 2
Fore
SplineSet
72 395 m 257
 480 395 l 257
 480 0 l 257
 324 -369 l 257
 62 -369 l 257
 312 0 l 257
 72 0 l 257
 72 395 l 257
EndSplineSet
Substitution2: "'tnum' Tabular Numbers in Latin lookup 11-1" comma.tabl
Substitution2: "ss03StyleSet3inLatinlookup2 subtable" comma.ss03
EndChar

StartChar: comma.ss03
Encoding: 65566 -1 179
GlifName: comma.ss03
Width: 550
VWidth: 0
GlyphClass: 2
Flags: HW
HStem: -326 176<90 283>
VStem: 61 432<65 323> 312 180<-120 -20>
LayerCount: 2
Fore
SplineSet
61 193 m 260xc0
 61 312 156 410 275 410 c 260
 394 410 492 312 492 193 c 262xc0
 492 -51 l 262
 492 -225 381 -326 193 -326 c 262
 90 -326 l 261
 90 -150 l 261
 133 -150 l 262
 256 -150 312 -115 312 -37 c 262
 312 -20 l 261xa0
 300 -22 287 -21 275 -21 c 260
 156 -21 61 74 61 193 c 260xc0
EndSplineSet
EndChar

StartChar: d
Encoding: 100 100 180
GlifName: d
Width: 1214
VWidth: 0
GlyphClass: 2
Flags: W
HStem: -35 318<343 622.601> 721 318<343 622.601>
VStem: 66 385<342.142 663.574> 750 86<180 826>
AnchorPoint: "top2" 1217 1000 basechar 0
LayerCount: 2
Fore
SplineSet
1131 1400 m 257
 750 1400 l 257
 750 0 l 257
 1131 0 l 257
 1131 1400 l 257
836 504 m 256
 836 826 688 1039 461 1039 c 256
 225 1039 66 826 66 504 c 256
 66 180 225 -35 461 -35 c 256
 688 -35 836 180 836 504 c 256
451 504 m 256
 451 641 508 721 600 721 c 256
 694 721 750 641 750 504 c 256
 750 363 694 283 600 283 c 256
 508 283 451 363 451 504 c 256
EndSplineSet
EndChar

StartChar: dagger
Encoding: 8224 8224 181
GlifName: dagger
Width: 835
VWidth: 0
GlyphClass: 2
Flags: HW
HStem: 0 41G<229 607> 703 297<47 229 607 789>
VStem: 229 379<0 703 1000 1260>
LayerCount: 2
Fore
SplineSet
229 703 m 257
 47 703 l 257
 47 1000 l 257
 229 1000 l 257
 229 1260 l 257
 607 1260 l 257
 607 1000 l 257
 789 1000 l 257
 789 703 l 257
 607 703 l 257
 607 0 l 257
 229 0 l 257
 229 703 l 257
EndSplineSet
EndChar

StartChar: daggerdbl
Encoding: 8225 8225 182
GlifName: daggerdbl
Width: 835
VWidth: 0
GlyphClass: 2
Flags: HW
HStem: 0 41G<229 607> 260 297<47 229 607 789> 703 297<47 229 607 789>
VStem: 47 742<260 557 703 1000> 229 379<0 260 557 703 1000 1260>
LayerCount: 2
Fore
SplineSet
607 1000 m 257xe8
 789 1000 l 257
 789 703 l 257xf0
 607 703 l 257
 607 557 l 257xe8
 789 557 l 257
 789 260 l 257xf0
 607 260 l 257
 607 0 l 257
 229 0 l 257
 229 260 l 257xe8
 47 260 l 257
 47 557 l 257xf0
 229 557 l 257
 229 703 l 257xe8
 47 703 l 257
 47 1000 l 257xf0
 229 1000 l 257
 229 1260 l 257
 607 1260 l 257
 607 1000 l 257xe8
EndSplineSet
EndChar

StartChar: dcroat
Encoding: 273 273 184
GlifName: dcroat
Width: 1298
VWidth: 0
GlyphClass: 2
Flags: W
HStem: -35 318<343 624.648> 680 320<343 624.648>
VStem: 66 385<332.824 626.436> 750 86<172 795>
LayerCount: 2
Fore
SplineSet
500 1301 m 261
 500 1068 l 261
 1283 1068 l 261
 1283 1301 l 261
 500 1301 l 261
1131 1400 m 261
 750 1400 l 261
 750 0 l 261
 1131 0 l 261
 1131 1400 l 261
836 484 m 260
 836 795 688 1000 461 1000 c 260
 225 1000 66 795 66 484 c 260
 66 172 225 -35 461 -35 c 260
 688 -35 836 172 836 484 c 260
451 484 m 260
 451 607 508 680 600 680 c 260
 694 680 750 607 750 484 c 260
 750 357 694 283 600 283 c 260
 508 283 451 357 451 484 c 260
EndSplineSet
EndChar

StartChar: divide
Encoding: 247 247 185
GlifName: divide
Width: 1023
VWidth: 0
GlyphClass: 2
Flags: HW
HStem: -8 334<352 680> 404 295<51 975> 775 334<352 680>
VStem: 352 328<-8 326 775 1109>
LayerCount: 2
Fore
SplineSet
352 1109 m 257
 680 1109 l 257
 680 775 l 257
 352 775 l 257
 352 1109 l 257
352 326 m 257
 680 326 l 257
 680 -8 l 257
 352 -8 l 257
 352 326 l 257
51 699 m 257
 975 699 l 257
 975 404 l 257
 51 404 l 257
 51 699 l 257
EndSplineSet
Substitution2: "'tnum' Tabular Numbers in Latin lookup 11-1" divide.tabl
Substitution2: "ss03StyleSet3inLatinlookup2 subtable" divide.ss03
EndChar

StartChar: divide.ss03
Encoding: 65567 -1 186
GlifName: divide.ss03
Width: 1023
VWidth: 0
GlyphClass: 2
Flags: HW
HStem: -61 412<381 647> 404 295<51 975> 750 412<381 647>
VStem: 299 432<22 270 832 1079>
LayerCount: 2
Fore
SplineSet
299 955 m 256
 299 1070 395 1162 514 1162 c 256
 633 1162 730 1070 730 955 c 256
 730 840 633 750 514 750 c 256
 395 750 299 840 299 955 c 256
299 146 m 256
 299 261 395 352 514 352 c 256
 633 352 730 261 730 146 c 256
 730 31 633 -61 514 -61 c 256
 395 -61 299 31 299 146 c 256
51 699 m 257
 975 699 l 257
 975 404 l 257
 51 404 l 257
 51 699 l 257
EndSplineSet
EndChar

StartChar: dollar
Encoding: 36 36 187
GlifName: dollar
Width: 1259
VWidth: 0
GlyphClass: 2
Flags: HW
HStem: -16 295<493 779> 1027 291<491 756>
VStem: 80 385<848 999> 574 119<-260 1520> 807 383<308 458>
LayerCount: 2
Fore
SplineSet
574 1520 m 261
 693 1520 l 261
 693 -260 l 261
 574 -260 l 261
 574 1520 l 261
699 479 m 258
 471 498 l 258
 219 519 80 666 80 906 c 256
 80 1160 285 1318 613 1318 c 256
 929 1318 1139 1160 1166 902 c 257
 803 902 l 257
 787 988 722 1027 609 1027 c 256
 521 1027 465 989 465 928 c 256
 465 871 490 840 545 834 c 258
 748 814 l 258
 1047 785 1189 650 1189 398 c 256
 1189 148 980 -16 660 -16 c 256
 324 -16 101 146 70 412 c 257
 438 412 l 257
 456 322 527 279 662 279 c 256
 750 279 807 323 807 387 c 256
 807 442 769 473 699 479 c 258
EndSplineSet
EndChar

StartChar: dotbelowcomb
Encoding: 803 803 188
GlifName: dotbelowcomb
Width: 550
VWidth: 0
GlyphClass: 4
Flags: HW
HStem: -400 295<64 473>
VStem: 64 408<-400 -105>
AnchorPoint: "bottom1" 275 0 mark 0
LayerCount: 2
Fore
SplineSet
74 -95 m 261
 463 -95 l 261
 463 -450 l 257
 74 -450 l 257
 74 -95 l 261
EndSplineSet
Substitution2: "ss03StyleSet3inLatinlookup2 subtable" dotbelowcomb.ss03
EndChar

StartChar: dotbelowcomb.ss03
Encoding: 65568 -1 189
GlifName: dotbelowcomb.ss03
Width: 599
VWidth: 0
GlyphClass: 4
Flags: W
HStem: -523 431<171.529 429.749>
VStem: 84 432<-437.388 -179.529>
AnchorPoint: "bottom1" 301 0 mark 0
LayerCount: 2
Fore
SplineSet
84 -309 m 256
 84 -190 182 -92 301 -92 c 256
 420 -92 516 -190 516 -309 c 256
 516 -428 420 -523 301 -523 c 256
 182 -523 84 -428 84 -309 c 256
EndSplineSet
EndChar

StartChar: dotlessi
Encoding: 305 305 190
GlifName: dotlessi
Width: 550
VWidth: 0
GlyphClass: 2
Flags: W
HStem: 0 21G<86 467> 980 20G<86 467>
VStem: 86 381<0 1000>
AnchorPoint: "bottom1" 287 0 basechar 0
AnchorPoint: "top1" 283 1119 basechar 0
LayerCount: 2
Fore
SplineSet
86 1000 m 257
 467 1000 l 257
 467 0 l 257
 86 0 l 257
 86 1000 l 257
EndSplineSet
PickledDataWithLists: "(dp0
Vcom.fontlab.hintData\\u000d\\u000d\\u000d\\u000d\\u000d\\u000d\\u000d\\u000d\\u000d\\u000d\\u000d\\u000d\\u000d\\u000d\\u000d\\u000d\\u000d\\u000d\\u000d\\u000d\\u000d\\u000d\\u000d\\u000d\\u000d\\u000d\\u000d\\u000d\\u000d\\u000d\\u000d\\u000d\\u000d\\u000d\\u000d\\u000d\\u000d\\u000d\\u000d\\u000d\\u000d\\u000d\\u000d\\u000d\\u000d\\u000d\\u000d\\u000d\\u000d\\u000d\\u000d
p1
(dp2
Vhhints\\u000d\\u000d\\u000d\\u000d\\u000d\\u000d\\u000d\\u000d\\u000d\\u000d\\u000d\\u000d\\u000d\\u000d\\u000d\\u000d\\u000d\\u000d\\u000d\\u000d\\u000d\\u000d\\u000d\\u000d\\u000d\\u000d\\u000d\\u000d\\u000d\\u000d\\u000d\\u000d\\u000d\\u000d\\u000d\\u000d\\u000d\\u000d\\u000d\\u000d\\u000d\\u000d\\u000d\\u000d\\u000d\\u000d\\u000d\\u000d\\u000d\\u000d\\u000d
p3
(lp4
(dp5
Vposition\\u000d\\u000d\\u000d\\u000d\\u000d\\u000d\\u000d\\u000d\\u000d\\u000d\\u000d\\u000d\\u000d\\u000d\\u000d\\u000d\\u000d\\u000d\\u000d\\u000d\\u000d\\u000d\\u000d\\u000d\\u000d\\u000d\\u000d\\u000d\\u000d\\u000d\\u000d\\u000d\\u000d\\u000d\\u000d\\u000d\\u000d\\u000d\\u000d\\u000d\\u000d\\u000d\\u000d\\u000d\\u000d\\u000d\\u000d\\u000d\\u000d\\u000d\\u000d
p6
I0
sVwidth\\u000d\\u000d\\u000d\\u000d\\u000d\\u000d\\u000d\\u000d\\u000d\\u000d\\u000d\\u000d\\u000d\\u000d\\u000d\\u000d\\u000d\\u000d\\u000d\\u000d\\u000d\\u000d\\u000d\\u000d\\u000d\\u000d\\u000d\\u000d\\u000d\\u000d\\u000d\\u000d\\u000d\\u000d\\u000d\\u000d\\u000d\\u000d\\u000d\\u000d\\u000d\\u000d\\u000d\\u000d\\u000d\\u000d\\u000d\\u000d\\u000d\\u000d\\u000d
p7
I21
sa(dp8
g6
I480
sg7
I20
sasVvhints\\u000d\\u000d\\u000d\\u000d\\u000d\\u000d\\u000d\\u000d\\u000d\\u000d\\u000d\\u000d\\u000d\\u000d\\u000d\\u000d\\u000d\\u000d\\u000d\\u000d\\u000d\\u000d\\u000d\\u000d\\u000d\\u000d\\u000d\\u000d\\u000d\\u000d\\u000d\\u000d\\u000d\\u000d\\u000d\\u000d\\u000d\\u000d\\u000d\\u000d\\u000d\\u000d\\u000d\\u000d\\u000d\\u000d\\u000d\\u000d\\u000d\\u000d\\u000d
p9
(lp10
(dp11
g6
I43
sg7
I190
sass."
Substitution2: "ss03StyleSet3inLatinlookup2 subtable" dotlessi.ss03
EndChar

StartChar: dotlessi.ss03
Encoding: 65569 -1 191
GlifName: dotlessi.ss03
Width: 550
VWidth: 0
GlyphClass: 2
Flags: HW
HStem: 0 41G<86 467> 961 39G<86 467>
VStem: 86 381<0 1000>
AnchorPoint: "top1" 283 1119 basechar 0
AnchorPoint: "bottom1" 287 0 basechar 0
LayerCount: 2
Fore
SplineSet
86 1000 m 257
 467 1000 l 257
 467 0 l 257
 86 0 l 257
 86 1000 l 257
EndSplineSet
EndChar

StartChar: e
Encoding: 101 101 192
GlifName: e
Width: 1194
VWidth: 0
GlyphClass: 2
Flags: W
HStem: -16 266<504.651 722.017> 398 237<428 730> 752 268<488.409 695.199>
VStem: 428 7<398 635>
AnchorPoint: "bottom1" 611 0 basechar 0
AnchorPoint: "bottom2" 996 104 basechar 0
AnchorPoint: "top1" 596 1119 basechar 0
LayerCount: 2
Fore
SplineSet
60 485.797851562 m 256
 60 802.606445312 275.2578125 1020 588.954101562 1020 c 256
 911.36328125 1020 1139 790.313476562 1139 465 c 258
 1139 398 l 257
 428 398 l 257
 428 635 l 257
 730 635 l 257
 721.975585938 707.21875 668.764648438 752 590.973632812 752 c 256
 486.942382812 752 435 671.911132812 435 511.508789062 c 256
 435 337.954101562 495.810546875 250 615.803710938 250 c 256
 681.689453125 250 723.911132812 276.516601562 740 328 c 257
 1125 328 l 257
 1091.0546875 110.061523438 905.95703125 -16 619.899414062 -16 c 256
 270.486328125 -16 60 172.64453125 60 485.797851562 c 256
EndSplineSet
EndChar

StartChar: eight
Encoding: 56 56 202
GlifName: eight
Width: 1193
VWidth: 0
GlyphClass: 2
Flags: HW
HStem: -16 289<483 710> 514 281<495 698> 1025 291<500 693>
VStem: 70 385<302 490> 109 367<815 1003> 719 365<815 1002> 738 385<302 487>
LayerCount: 2
Fore
SplineSet
902 658 m 5xec
 1052 601 1123 495 1123 354 c 4
 1123 133 910 -16 596 -16 c 4
 284 -16 70 131 70 352 c 4xf2
 70 493 141 601 293 658 c 5
 168 717 109 820 109 951 c 4
 109 1168 309 1316 596 1316 c 4
 885 1316 1084 1168 1084 949 c 4
 1084 818 1027 717 902 658 c 5xec
602 795 m 6
 676 795 719 838 719 910 c 4
 719 984 674 1025 596 1025 c 4
 520 1025 477 984 477 910 c 4xec
 477 836 518 795 592 795 c 6
 602 795 l 6
602 514 m 6
 592 514 l 6
 504 514 455 472 455 396 c 4
 455 318 508 273 596 273 c 4
 686 273 738 318 738 396 c 4xf2
 738 470 688 514 602 514 c 6
EndSplineSet
Substitution2: "'cv04' Character Variants 04 in Latin lookup 19-1" uni2467
Substitution2: "'cv03' Character Variants 03 in Latin lookup 18-1" uni277D
Substitution2: "'cv02' Character Variants 02 in Latin lookup 17-1" eight.cv02
Substitution2: "'cv01' Character Variants 01 in Latin lookup 16-1" eight.cv01
Substitution2: "'sups' Superscript in Latin lookup 15-1" uni2078
Substitution2: "'subs' Subscript in Latin lookup 14-1" uni2088
Substitution2: "'numr' Numerators in Latin lookup 13-1" eight.numr
Substitution2: "'dnom' Denominators in Latin lookup 12-1" eight.dnom
Substitution2: "'tnum' Tabular Numbers in Latin lookup 11-1" eight.tabl
EndChar

StartChar: ellipsis
Encoding: 8230 8230 203
GlifName: ellipsis
Width: 1607
VWidth: 0
GlyphClass: 2
Flags: HW
HStem: 0 395<72 480 600 1008 1129 1535>
VStem: 72 408<0 395> 600 408<0 395> 1129 406<0 395>
LayerCount: 2
Fore
SplineSet
1129 395 m 257
 1535 395 l 257
 1535 0 l 257
 1129 0 l 257
 1129 395 l 257
600 395 m 257
 1008 395 l 257
 1008 0 l 257
 600 0 l 257
 600 395 l 257
72 395 m 257
 480 395 l 257
 480 0 l 257
 72 0 l 257
 72 395 l 257
EndSplineSet
Substitution2: "ss03StyleSet3inLatinlookup2 subtable" ellipsis.ss03
EndChar

StartChar: ellipsis.ss03
Encoding: 65572 -1 204
GlifName: ellipsis.ss03
Width: 1654
VWidth: 0
GlyphClass: 2
Flags: HW
HStem: -21 432<147 405 699 958 1251 1510>
VStem: 61 432<65 323> 611 434<65 323> 1164 432<65 323>
CounterMasks: 1 70
LayerCount: 2
Fore
SplineSet
1164 193 m 256
 1164 312 1262 410 1381 410 c 256
 1500 410 1596 312 1596 193 c 256
 1596 74 1500 -21 1381 -21 c 256
 1262 -21 1164 74 1164 193 c 256
611 193 m 256
 611 312 709 410 828 410 c 256
 947 410 1045 312 1045 193 c 256
 1045 74 947 -21 828 -21 c 256
 709 -21 611 74 611 193 c 256
61 193 m 256
 61 312 156 410 275 410 c 256
 394 410 492 312 492 193 c 256
 492 74 394 -21 275 -21 c 256
 156 -21 61 74 61 193 c 256
EndSplineSet
EndChar

StartChar: emdash
Encoding: 8212 8212 206
GlifName: emdash
Width: 2000
VWidth: 0
GlyphClass: 2
Flags: HW
HStem: 385 336<51 1951>
LayerCount: 2
Fore
SplineSet
51 721 m 257
 1951 721 l 257
 1951 385 l 257
 51 385 l 257
 51 721 l 257
EndSplineSet
EndChar

StartChar: endash
Encoding: 8211 8211 207
GlifName: endash
Width: 1398
VWidth: 0
GlyphClass: 2
Flags: HW
HStem: 385 336<51 1350>
LayerCount: 2
Fore
SplineSet
51 721 m 257
 1350 721 l 257
 1350 385 l 257
 51 385 l 257
 51 721 l 257
EndSplineSet
EndChar

StartChar: eng
Encoding: 331 331 208
GlifName: eng
Width: 1210
VWidth: 0
GlyphClass: 2
Flags: HW
HStem: -400 336<568 737> -2 41G<90 471> 697 340<566 878> 959 39G<90 471>
VStem: 90 381<-2 998> 393 78<562 824> 750 381<-55 653>
LayerCount: 2
Fore
SplineSet
90 998 m 257xda
 471 998 l 257
 471 -2 l 257
 90 -2 l 257
 90 998 l 257xda
750 537 m 262
 750 642 699 697 605 697 c 260
 527 697 471 637 471 551 c 261xea
 393 562 l 261
 393 824 561 1037 768 1037 c 260xe6
 989 1037 1131 873 1131 617 c 262
 1131 16 l 262
 1131 -244 975 -400 713 -400 c 262
 568 -400 l 261
 568 -64 l 261
 650 -64 l 262
 720 -64 750 -37 750 27 c 262
 750 537 l 262
EndSplineSet
EndChar

StartChar: eogonek
Encoding: 281 281 209
GlifName: eogonek
Width: 1234
VWidth: 0
GlyphClass: 2
Flags: HW
HStem: -428 279<851 1086> -16 266<507 727> 64 39G<718 1002> 398 236<434 736> 752 268<498 705>
VStem: 434 8<398 635> 574 266<-250 -22>
LayerCount: 2
Fore
SplineSet
66 485.860374251 m 0
 66 802.615701179 281.266978102 1020 594.937111571 1020 c 0
 917.359989717 1020 1145 790.316797652 1145 465 c 2
 1145 398 l 1
 452.244720146 398 l 1
 474.903438322 299.583602054 531.709946058 250 621.804066312 250 c 0
 687.689689832 250 729.911190615 276.516786526 746 328 c 1
 1131 328 l 1
 1086 48.9999831954 885 0.999982111193 885 -137.709960938 c 0
 885 -215.303422991 927.382942598 -252 1017 -252 c 2
 1070 -252 l 1
 1070 -511 l 1
 1001 -511 l 2
 736.133336246 -511 572 -412.868443832 572 -254.510742188 c 0
 572 -161.510426577 626.652297909 -77.6860535378 736.052734375 -2.890625 c 1
 700.119903175 -12.0048204791 662.740689297 -16 613.400390625 -16 c 0
 274.120803093 -16 66 174.806557537 66 485.860374251 c 0
455.254056526 635 m 1
 736 635 l 1
 727.975550272 707.219070981 674.764302695 752 596.973943532 752 c 0
 524.394681118 752 477.17632181 713.017834859 455.254056526 635 c 1
EndSplineSet
EndChar

StartChar: equal
Encoding: 61 61 210
GlifName: equal
Width: 1175
VWidth: 0
GlyphClass: 2
Flags: HW
HStem: 184 316<51 1127> 725 314<51 1127>
LayerCount: 2
Fore
SplineSet
1127 500 m 261
 1127 184 l 261
 51 184 l 261
 51 500 l 261
 1127 500 l 261
1127 1039 m 261
 1127 725 l 261
 51 725 l 261
 51 1039 l 261
 1127 1039 l 261
EndSplineSet
Substitution2: "'tnum' Tabular Numbers in Latin lookup 11-1" equal.tabl
Substitution2: "'sups' Superscript in Latin lookup 15-1" uni207C
Substitution2: "'subs' Subscript in Latin lookup 14-1" uni208C
EndChar

StartChar: eth
Encoding: 240 240 211
GlifName: eth
Width: 1312
VWidth: 0
GlyphClass: 2
Flags: HW
HStem: -16 301<518 743> 699 303<376 682> 1361 39G<566 1059>
VStem: 70 385<354 637> 857 387<775 1021>
LayerCount: 2
Fore
SplineSet
814 500 m 256
 814 619 742 699 635 699 c 256
 528 699 455 619 455 496 c 256
 455 369 526 285 631 285 c 256
 738 285 814 375 814 500 c 256
984 1400 m 257
 1132 1234 1244 1006 1244 736 c 256
 1244 275 1010 -16 639 -16 c 256
 303 -16 70 199 70 510 c 256
 70 793 252 1002 500 1002 c 256
 660 1002 798 914 857 775 c 257
 857 783 857 793 857 801 c 256
 857 1041 732 1240 566 1400 c 257
 984 1400 l 257
480 1283 m 257
 1256 1332 l 257
 1256 1096 l 257
 480 1049 l 257
 480 1283 l 257
EndSplineSet
EndChar

StartChar: exclam
Encoding: 33 33 212
GlifName: exclam
Width: 550
VWidth: 0
GlyphClass: 2
Flags: HW
HStem: 0 295<72 480> 1262 39G<86 467>
VStem: 72 408<0 295 1070 1301> 127 299<400 708>
LayerCount: 2
Fore
SplineSet
480 0 m 261xe0
 72 0 l 261
 72 295 l 261
 480 295 l 261
 480 0 l 261xe0
426 400 m 261xd0
 127 400 l 261
 86 1301 l 261
 467 1301 l 261
 426 400 l 261xd0
EndSplineSet
Substitution2: "ss03StyleSet3inLatinlookup2 subtable" exclam.ss03
EndChar

StartChar: exclam.ss03
Encoding: 65573 -1 213
GlifName: exclam.ss03
Width: 550
VWidth: 0
GlyphClass: 2
Flags: HW
HStem: -21 391<143 409> 1262 39G<86 467>
VStem: 61 432<57 290> 86 381<1005 1301> 127 299<434 730>
LayerCount: 2
Fore
SplineSet
61 174 m 256xe0
 61 281 156 369 275 369 c 256
 394 369 492 281 492 174 c 256
 492 67 394 -21 275 -21 c 256
 156 -21 61 67 61 174 c 256xe0
426 434 m 257xc8
 127 434 l 257xc8
 86 1301 l 257
 467 1301 l 257xd0
 426 434 l 257xc8
EndSplineSet
EndChar

StartChar: exclamdown
Encoding: 161 161 214
GlifName: exclamdown
Width: 550
VWidth: 0
GlyphClass: 2
Flags: HW
HStem: 705 295<72 480>
VStem: 72 408<-301 -70 705 1000> 127 299<292 600>
LayerCount: 2
Fore
SplineSet
72 1000 m 257xc0
 480 1000 l 257
 480 705 l 257
 72 705 l 257
 72 1000 l 257xc0
127 600 m 257xa0
 426 600 l 257
 467 -301 l 257
 86 -301 l 257
 127 600 l 257xa0
EndSplineSet
Substitution2: "ss03StyleSet3inLatinlookup2 subtable" exclamdown.ss03
EndChar

StartChar: exclamdown.ss03
Encoding: 65574 -1 215
GlifName: exclamdown.ss03
Width: 550
VWidth: 0
GlyphClass: 2
Flags: HW
HStem: 629 391<143 409>
VStem: 61 432<708 941> 86 381<-303 -7> 127 299<268 564>
LayerCount: 2
Fore
SplineSet
492 824 m 256xc0
 492 717 394 629 275 629 c 256
 156 629 61 717 61 824 c 256
 61 931 156 1020 275 1020 c 256
 394 1020 492 931 492 824 c 256xc0
127 564 m 257x90
 426 564 l 257x90
 467 -303 l 257
 86 -303 l 257xa0
 127 564 l 257x90
EndSplineSet
EndChar

StartChar: f
Encoding: 102 102 216
GlifName: f
Width: 724
VWidth: 0
GlyphClass: 2
Flags: W
HStem: 0 21G<171 551> 703 297<30 694> 1380 20G<444 694>
VStem: 171 380<0 1095.98>
LayerCount: 2
Fore
SplineSet
30 703 m 261
 30 1000 l 261
 694 1000 l 261
 694 703 l 261
 30 703 l 261
694 1104 m 257
 631 1104 l 258
 574 1104 551 1082 551 1031 c 258
 551 0 l 257
 171 0 l 257
 171 1045 l 258
 171 1270 319 1400 569 1400 c 258
 694 1400 l 257
 694 1104 l 257
EndSplineSet
EndChar

StartChar: five
Encoding: 53 53 217
GlifName: five
Width: 1193
VWidth: 0
GlyphClass: 2
Flags: W
HStem: -16 321<486.774 701.928> 611 276<571.909 856.5>
VStem: 738 385<337.114 568.86>
LayerCount: 2
Fore
SplineSet
738 449 m 260
 738 355 688 305 598 305 c 260
 514 305 459 350 455 424 c 261
 70 424 l 261
 90 162 306 -16 611 -16 c 260
 923 -16 1123 168 1123 453 c 260
 1123 709 969 887 744 887 c 260
 625 887 525 836 461 744 c 261
 492 986 l 261
 1078 986 l 261
 1078 1303 l 261
 150 1303 l 261
 70 535 l 261
 447 535 l 261
 474 586 526 611 588 611 c 260
 682 611 738 551 738 449 c 260
EndSplineSet
Substitution2: "'cv04' Character Variants 04 in Latin lookup 19-1" uni2464
Substitution2: "'cv03' Character Variants 03 in Latin lookup 18-1" uni277A
Substitution2: "'cv02' Character Variants 02 in Latin lookup 17-1" five.cv02
Substitution2: "'cv01' Character Variants 01 in Latin lookup 16-1" five.cv01
Substitution2: "'sups' Superscript in Latin lookup 15-1" uni2075
Substitution2: "'subs' Subscript in Latin lookup 14-1" uni2085
Substitution2: "'numr' Numerators in Latin lookup 13-1" five.numr
Substitution2: "'dnom' Denominators in Latin lookup 12-1" five.dnom
Substitution2: "'tnum' Tabular Numbers in Latin lookup 11-1" five.tabl
EndChar

StartChar: four
Encoding: 52 52 218
GlifName: four
Width: 1220
VWidth: 0
GlyphClass: 2
Flags: W
HStem: 0 21G<668 1027> 264 314<434 668 1027 1191> 1281 20G<533.51 1027>
VStem: 668 359<0 264 578 893>
LayerCount: 2
Fore
SplineSet
1027 264 m 261
 1027 0 l 261
 668 0 l 261
 668 264 l 261
 51 264 l 261
 51 658 l 261
 549 1301 l 261
 1027 1301 l 261
 1027 578 l 261
 1191 578 l 261
 1191 264 l 261
 1027 264 l 261
668 578 m 261
 668 893 l 261
 434 578 l 261
 668 578 l 261
EndSplineSet
Substitution2: "'cv04' Character Variants 04 in Latin lookup 19-1" uni2463
Substitution2: "'cv03' Character Variants 03 in Latin lookup 18-1" uni2779
Substitution2: "'cv02' Character Variants 02 in Latin lookup 17-1" four.cv02
Substitution2: "'cv01' Character Variants 01 in Latin lookup 16-1" four.cv01
Substitution2: "'sups' Superscript in Latin lookup 15-1" uni2074
Substitution2: "'subs' Subscript in Latin lookup 14-1" uni2084
Substitution2: "'numr' Numerators in Latin lookup 13-1" four.numr
Substitution2: "'dnom' Denominators in Latin lookup 12-1" four.dnom
Substitution2: "'tnum' Tabular Numbers in Latin lookup 11-1" four.tabl
EndChar

StartChar: g
Encoding: 103 103 219
GlifName: g
Width: 1214
VWidth: 0
GlyphClass: 2
Flags: W
HStem: -406 279<479.043 721.037> 33 321<337 619.68> 721 314<337 621.709>
VStem: 66 385<-92.7039 -31 401.146 672.251> 750 86<234 836>
AnchorPoint: "top1" 596 1119 basechar 0
LayerCount: 2
Fore
SplineSet
451 537 m 256
 451 652 508 721 604 721 c 256
 696 721 750 652 750 537 c 256
 750 422 696 354 604 354 c 256
 508 354 451 422 451 537 c 256
836 537 m 256
 836 836 683 1035 453 1035 c 256
 221 1035 66 836 66 537 c 256
 66 234 221 33 453 33 c 256
 683 33 836 234 836 537 c 256
1131 1000 m 257
 750 1000 l 257
 750 -12 l 258
 750 -84 696 -127 602 -127 c 256
 514 -127 457 -90 451 -31 c 257
 66 -31 l 257
 101 -258 312 -406 621 -406 c 256
 928 -406 1131 -251 1131 -21 c 258
 1131 1000 l 257
EndSplineSet
EndChar

StartChar: germandbls
Encoding: 223 223 224
GlifName: germandbls
Width: 1289
VWidth: 0
GlyphClass: 2
Flags: HW
HStem: 0 320<588 827> 553 299<607 785> 633 139<689 772> 1102 314<549 797>
VStem: 90 381<0 1023> 689 96<553 633 771 852> 834 365<882 1063> 854 367<347 518>
LayerCount: 2
Fore
SplineSet
678 1102 m 256xde
 549 1102 471 1014 471 871 c 258
 471 0 l 257
 90 0 l 257
 90 885 l 258
 90 1196 323 1416 678 1416 c 256
 969 1416 1199 1230 1199 1000 c 256
 1199 779 994 633 689 633 c 257xbe
 689 852 l 257
 781 852 834 897 834 973 c 256
 834 1047 768 1102 678 1102 c 256xde
785 852 m 257xdc
 785 553 l 257
 607 553 l 257
 607 852 l 257
 785 852 l 257xdc
689 771 m 257xbd
 1007 771 1221 609 1221 369 c 256
 1221 146 1031 0 750 0 c 258
 588 0 l 257
 588 320 l 257
 711 320 l 258
 803 320 854 362 854 434 c 256
 854 508 793 553 689 553 c 257xdd
 689 771 l 257xbd
EndSplineSet
EndChar

StartChar: grave
Encoding: 96 96 225
GlifName: grave
Width: 859
VWidth: 0
GlyphClass: 2
Flags: HW
HStem: 1039 400<490 529>
LayerCount: 2
Fore
SplineSet
70 1439 m 257
 529 1439 l 257
 789 1039 l 257
 490 1039 l 257
 70 1439 l 257
EndSplineSet
EndChar

StartChar: gravecomb
Encoding: 768 768 226
GlifName: gravecomb
Width: 599
VWidth: 0
GlyphClass: 4
Flags: W
HStem: 1000 342<242 361>
VStem: -20 541
AnchorPoint: "top1" 312 1000 mark 0
LayerCount: 2
Fore
SplineSet
-20 1342 m 261
 361 1342 l 257
 521 1000 l 257
 242 1000 l 261
 -20 1342 l 261
EndSplineSet
EndChar

StartChar: greater
Encoding: 62 62 227
GlifName: greater
Width: 1181
VWidth: 0
GlyphClass: 2
Flags: HW
LayerCount: 2
Fore
SplineSet
53 80 m 261
 53 473 l 261
 801 623 l 261
 53 764 l 261
 53 1160 l 261
 1133 836 l 261
 1133 404 l 261
 53 80 l 261
EndSplineSet
Substitution2: "'tnum' Tabular Numbers in Latin lookup 11-1" greater.tabl
EndChar

StartChar: h
Encoding: 104 104 228
GlifName: h
Width: 1210
VWidth: 0
GlyphClass: 2
Flags: W
HStem: 0 21G<86 467 746 1127> 699 340<563 869.5> 1380 20G<86 467>
VStem: 86 381<0 1400> 389 78<564 861> 746 381<0 656.175>
AnchorPoint: "top1" 277 1504 basechar 0
LayerCount: 2
Fore
SplineSet
746 539 m 258xec
 746 650 690 699 602 699 c 256
 524 699 467 639 467 553 c 257xf4
 389 564 l 257
 389 861 584 1039 764 1039 c 256
 975 1039 1127 889 1127 619 c 258
 1127 0 l 257
 746 0 l 257
 746 539 l 258xec
86 1400 m 257
 467 1400 l 257
 467 0 l 257
 86 0 l 257
 86 1400 l 257
EndSplineSet
EndChar

StartChar: hbar
Encoding: 295 295 229
GlifName: hbar
Width: 1291
VWidth: 0
GlyphClass: 2
Flags: HW
HStem: 0 41G<166 547 826 1205> 660 340<643 949> 1068 232<20 805> 1361 39G<166 547>
VStem: 166 381<0 1400> 469 78<545 828> 826 379<0 623>
LayerCount: 2
Fore
SplineSet
20 1301 m 257xf2
 805 1301 l 257
 805 1068 l 257
 20 1068 l 257
 20 1301 l 257xf2
826 520 m 258
 826 618 770 660 682 660 c 256
 604 660 547 605 547 531 c 257xfa
 469 545 l 257xf6
 469 828 664 1000 844 1000 c 256
 1055 1000 1205 858 1205 600 c 258
 1205 0 l 257
 826 0 l 257
 826 520 l 258
166 1400 m 257
 547 1400 l 257
 547 0 l 257
 166 0 l 257
 166 1400 l 257
EndSplineSet
EndChar

StartChar: hookabovecomb
Encoding: 777 777 231
GlifName: hookabovecomb
Width: 599
VWidth: 0
GlyphClass: 4
Flags: HW
HStem: 1000 41G<191 418> 1283 178<261 381>
VStem: 385 252<1172 1279>
AnchorPoint: "top1" 312 1000 mark 0
LayerCount: 2
Fore
SplineSet
191 1000 m 257
 191 1071 244 1113 295 1146 c 256
 342 1171 385 1193 385 1219 c 256
 385 1258 361 1283 326 1283 c 256
 283 1283 256 1258 254 1213 c 257
 -2 1213 l 257
 10 1383 115 1461 330 1461 c 256
 516 1461 637 1371 637 1232 c 256
 637 1158 580 1119 523 1090 c 256
 468 1062 418 1041 418 1000 c 257
 191 1000 l 257
EndSplineSet
EndChar

StartChar: hyphen
Encoding: 45 45 232
GlifName: hyphen
Width: 1023
VWidth: 0
GlyphClass: 2
Flags: HW
HStem: 385 336<51 975>
LayerCount: 2
Fore
SplineSet
51 721 m 261
 975 721 l 261
 975 385 l 261
 51 385 l 261
 51 721 l 261
EndSplineSet
Substitution2: "'sups' Superscript in Latin lookup 15-1" uni207B
Substitution2: "'subs' Subscript in Latin lookup 14-1" uni208B
Substitution2: "'tnum' Tabular Numbers in Latin lookup 11-1" hyphen.tabl
EndChar

StartChar: i
Encoding: 105 105 233
GlifName: i
Width: 550
VWidth: 0
GlyphClass: 2
Flags: HW
HStem: 0 41G<86 467> 961 39G<86 467> 1105 295<72 480>
VStem: 86 381<0 1000 1105 1400>
AnchorPoint: "bottom2" 467 0 basechar 0
AnchorPoint: "bottom1" 287 0 basechar 0
LayerCount: 2
Fore
SplineSet
82 1450 m 261
 470 1450 l 261
 470 1095 l 261
 82 1095 l 261
 82 1450 l 261
86 1000 m 257
 467 1000 l 257
 467 0 l 257
 86 0 l 257
 86 1000 l 257
EndSplineSet
Substitution2: "ss03StyleSet3inLatinlookup2 subtable" i.ss03
EndChar

StartChar: i.ss03
Encoding: 65576 -1 234
GlifName: i.ss03
Width: 550
VWidth: 0
GlyphClass: 2
Flags: W
HStem: 0 21G<86 467> 980 20G<86 467> 1084 432<146.612 404.471>
VStem: 61 431<1171.53 1429.75> 86 381<0 1000>
AnchorPoint: "bottom1" 287 0 basechar 0
AnchorPoint: "bottom2" 467 0 basechar 0
LayerCount: 2
Fore
SplineSet
61 1301 m 260xf0
 61 1420 156 1516 275 1516 c 260
 394 1516 492 1420 492 1301 c 260
 492 1182 394 1084 275 1084 c 260
 156 1084 61 1182 61 1301 c 260xf0
86 1000 m 257xe8
 467 1000 l 257
 467 0 l 257
 86 0 l 257
 86 1000 l 257xe8
EndSplineSet
EndChar

StartChar: idieresis
Encoding: 239 239 238
GlifName: idieresis
Width: 550
VWidth: 0
GlyphClass: 2
Flags: W
HStem: 0 21G<86 467> 980 20G<86 467> 1105 295<-82 229 338 629>
VStem: -82 311<1105 1400> 86 381<0 1000> 338 291<1105 1400>
LayerCount: 2
Fore
SplineSet
86 1000 m 257xe8
 467 1000 l 257
 467 0 l 257
 86 0 l 257
 86 1000 l 257xe8
338 1400 m 261xe4
 629 1400 l 261
 629 1105 l 261
 338 1105 l 261
 338 1400 l 261xe4
-82 1400 m 261xf0
 229 1400 l 261
 229 1105 l 261
 -82 1105 l 261
 -82 1400 l 261xf0
EndSplineSet
Substitution2: "dieresis-1" idieresis.calt
Substitution2: "ss03StyleSet3inLatinlookup2 subtable" idieresis.ss03
EndChar

StartChar: idieresis.ss03
Encoding: 65577 -1 239
GlifName: idieresis.ss03
Width: 550
VWidth: 0
GlyphClass: 2
Flags: HW
HStem: 0 41G<86 467> 961 39G<86 467> 1107 354<-55 177 368 600>
VStem: -115 354<1168 1399> 86 381<0 1000> 307 355<1168 1399>
LayerCount: 2
Fore
SplineSet
86 1000 m 257xe8
 467 1000 l 257
 467 0 l 257
 86 0 l 257
 86 1000 l 257xe8
-115 1283 m 260xf0
 -115 1381 -36 1461 61 1461 c 260
 159 1461 238 1381 238 1283 c 260
 238 1186 159 1107 61 1107 c 260
 -36 1107 -115 1186 -115 1283 c 260xf0
307 1283 m 260xe4
 307 1381 386 1461 484 1461 c 260
 582 1461 662 1381 662 1283 c 260
 662 1186 582 1107 484 1107 c 260
 386 1107 307 1186 307 1283 c 260xe4
EndSplineSet
Substitution2: "dieresis-1" idieresis.calt.ss03
EndChar

StartChar: j
Encoding: 106 106 247
GlifName: j
Width: 550
VWidth: 0
GlyphClass: 2
Flags: HW
HStem: 961 39G<86 467> 1105 295<72 480>
VStem: 86 381<-60 1000 1105 1400>
LayerCount: 2
Fore
SplineSet
-57 -64 m 257
 6 -64 l 258
 63 -64 86 -43 86 8 c 258
 86 1000 l 257
 467 1000 l 257
 467 -4 l 258
 467 -252 318 -400 68 -400 c 258
 -57 -400 l 257
 -57 -64 l 257
82 1450 m 257
 470 1450 l 257
 470 1095 l 261
 82 1095 l 261
 82 1450 l 257
EndSplineSet
Substitution2: "ss03StyleSet3inLatinlookup2 subtable" j.ss03
EndChar

StartChar: j.ss03
Encoding: 65580 -1 248
GlifName: j.ss03
Width: 550
VWidth: 0
GlyphClass: 2
Flags: W
HStem: 980 20G<86 467> 1084 432<146.612 404.471>
VStem: 61 431<1171.53 1429.75> 86 381<-49.3164 1000>
LayerCount: 2
Fore
SplineSet
61 1301 m 256xe0
 61 1420 156 1516 275 1516 c 256
 394 1516 492 1420 492 1301 c 256
 492 1182 394 1084 275 1084 c 256
 156 1084 61 1182 61 1301 c 256xe0
-57 -64 m 257
 6 -64 l 258
 63 -64 86 -43 86 8 c 258
 86 1000 l 257
 467 1000 l 257
 467 -4 l 258xd0
 467 -252 318 -400 68 -400 c 258
 -57 -400 l 257
 -57 -64 l 257
EndSplineSet
EndChar

StartChar: k
Encoding: 107 107 250
GlifName: k
Width: 1203
VWidth: 0
GlyphClass: 2
Flags: HW
HStem: 0 41G<90 471 758 1225> 961 39G<693 1188> 1361 39G<90 471>
VStem: 90 381<0 176 393 1400>
AnchorPoint: "bottom1" 633 0 basechar 0
LayerCount: 2
Fore
SplineSet
90 1400 m 257
 471 1400 l 257
 471 0 l 257
 90 0 l 257
 90 1400 l 257
719 1000 m 257
 1188 1000 l 257
 848 549 l 257
 1225 0 l 257
 783 0 l 257
 564 346 l 257
 432 176 l 257
 312 393 l 257
 719 1000 l 257
EndSplineSet
EndChar

StartChar: kgreenlandic
Encoding: 312 312 251
GlifName: kgreenlandic
Width: 1207
VWidth: 0
GlyphClass: 2
Flags: HW
HStem: 0 41G<90 471 758 1225> 961 39G<90 471 693 1188>
VStem: 90 381<0 176 393 1000>
LayerCount: 2
Fore
SplineSet
90 1000 m 257
 471 1000 l 257
 471 0 l 257
 90 0 l 257
 90 1000 l 257
719 1000 m 257
 1188 1000 l 257
 848 549 l 257
 1225 0 l 257
 783 0 l 257
 564 346 l 257
 432 176 l 257
 312 393 l 257
 719 1000 l 257
EndSplineSet
EndChar

StartChar: l
Encoding: 108 108 252
GlifName: l
Width: 550
VWidth: 0
GlyphClass: 2
Flags: W
HStem: 0 21G<86 467> 1380 20G<86 467>
VStem: 86 381<0 1400>
AnchorPoint: "top2" 553 1000 basechar 0
AnchorPoint: "bottom1" 287 0 basechar 0
AnchorPoint: "top1" 277 1504 basechar 0
LayerCount: 2
Fore
SplineSet
86 1400 m 257
 467 1400 l 257
 467 0 l 257
 86 0 l 257
 86 1400 l 257
EndSplineSet
Substitution2: "ss02StyleSet2inLatinlookup1 subtable" l.ss02
EndChar

StartChar: l.ss02
Encoding: 65581 -1 253
GlifName: l.ss02
Width: 656
VWidth: 0
GlyphClass: 2
Flags: W
HStem: 0 21G<363 611> 1380 20G<90 471>
VStem: 90 381<323.989 1400>
AnchorPoint: "top1" 277 1504 basechar 0
AnchorPoint: "bottom1" 367 0 basechar 0
AnchorPoint: "top2" 553 1000 basechar 0
LayerCount: 2
Fore
SplineSet
611 316 m 261
 611 0 l 261
 488 0 l 262
 238 0 90 130 90 355 c 262
 90 1400 l 261
 471 1400 l 261
 471 408 l 262
 471 344 494 316 551 316 c 262
 611 316 l 261
EndSplineSet
EndChar

StartChar: ldot.ss02
Encoding: 65584 -1 259
GlifName: ldot.ss02
Width: 1019
VWidth: 0
GlyphClass: 2
Flags: HW
HStem: 0 41G<363 611> 480 393<611 1020> 1361 39G<90 471>
VStem: 90 381<325 1400> 611 408<480 873>
LayerCount: 2
Fore
SplineSet
611 873 m 257
 1020 873 l 257
 1020 480 l 257
 611 480 l 257
 611 873 l 257
EndSplineSet
Refer: 253 -1 N 1 0 0 1 0 0 2
Substitution2: "ss03StyleSet3inLatinlookup2 subtable" ldot.ss02.ss03
EndChar

StartChar: ldot.ss02.ss03
Encoding: 65585 -1 260
GlifName: ldot.ss02.ss03
Width: 1126
VWidth: 0
GlyphClass: 2
Flags: HW
HStem: 0 41G<363 611> 479 432<783 1042> 1361 39G<90 471>
VStem: 90 381<325 1400> 695 434<565 823>
LayerCount: 2
Fore
SplineSet
695 693 m 256
 695 812 793 910 912 910 c 256
 1031 910 1129 812 1129 693 c 256
 1129 574 1031 479 912 479 c 256
 793 479 695 574 695 693 c 256
611 316 m 257
 611 0 l 257
 488 0 l 258
 238 0 90 130 90 355 c 258
 90 1400 l 257
 471 1400 l 257
 471 408 l 258
 471 344 494 316 551 316 c 258
 611 316 l 257
EndSplineSet
EndChar

StartChar: less
Encoding: 60 60 262
GlifName: less
Width: 1181
VWidth: 0
GlyphClass: 2
Flags: HW
LayerCount: 2
Fore
SplineSet
1133 1160 m 261
 1133 768 l 261
 385 615 l 261
 1133 477 l 261
 1133 80 l 261
 53 404 l 261
 53 836 l 261
 1133 1160 l 261
EndSplineSet
Substitution2: "'tnum' Tabular Numbers in Latin lookup 11-1" less.tabl
EndChar

StartChar: longs
Encoding: 383 383 263
GlifName: longs
Width: 650
VWidth: 0
GlyphClass: 2
Flags: W
HStem: 0 21G<90 471> 1380 20G<389.5 611>
VStem: 90 381<0 1083.92>
LayerCount: 2
Fore
SplineSet
611 1104 m 257
 590 1104 l 258
 506 1104 471 1070 471 992 c 258
 471 0 l 257
 90 0 l 257
 90 1006 l 258
 90 1255 252 1400 527 1400 c 258
 611 1400 l 257
 611 1104 l 257
EndSplineSet
EndChar

StartChar: lslash
Encoding: 322 322 264
GlifName: lslash
Width: 715
VWidth: 0
GlyphClass: 2
Flags: HW
HStem: 0 21G<156 535> 1380 20G<156 535>
VStem: 156 379<0 1400>
LayerCount: 2
Fore
SplineSet
10 738 m 261
 705 1056 l 261
 705 701 l 261
 10 381 l 261
 10 738 l 261
166 1400 m 261
 545 1400 l 261
 545 0 l 261
 166 0 l 261
 166 1400 l 261
EndSplineSet
Substitution2: "ss02StyleSet2inLatinlookup1 subtable" lslash.ss02
EndChar

StartChar: lslash.ss02
Encoding: 65587 -1 265
GlifName: lslash.ss02
Width: 715
VWidth: 0
GlyphClass: 2
Flags: HW
HStem: 0 41G<402 652> 1361 39G<131 510>
VStem: 131 379<325 1400>
LayerCount: 2
Fore
SplineSet
10 738 m 257
 705 1056 l 257
 705 701 l 257
 10 381 l 257
 10 738 l 257
687 316 m 257
 687 0 l 257
 562 0 l 258
 312 0 166 130 166 355 c 258
 166 1400 l 257
 545 1400 l 257
 545 408 l 258
 545 344 568 316 625 316 c 258
 687 316 l 257
EndSplineSet
EndChar

StartChar: m
Encoding: 109 109 266
GlifName: m
Width: 1791
VWidth: 0
GlyphClass: 2
Flags: W
HStem: 0 21G<86 467 705 1086 1326 1705> 699 340<549 842.5 1168 1461.5> 980 20G<86 467>
VStem: 86 381<0 1000> 389 78<564 861> 705 381<0 559.089> 1008 78<564 861> 1326 379<0 668.211>
LayerCount: 2
Fore
SplineSet
1326 539 m 262xc3
 1326 650 1277 699 1201 699 c 260
 1135 699 1086 639 1086 553 c 261xc5
 1008 564 l 261
 1008 861 1193 1039 1363 1039 c 260
 1560 1039 1705 889 1705 619 c 262
 1705 0 l 261
 1326 0 l 261
 1326 539 l 262xc3
705 539 m 262
 705 650 658 699 582 699 c 260
 516 699 467 639 467 553 c 261xd5
 389 564 l 261
 389 861 574 1039 744 1039 c 260
 941 1039 1086 889 1086 619 c 262xcb
 1086 0 l 261
 705 0 l 261
 705 539 l 262
86 1000 m 261xb1
 467 1000 l 261
 467 0 l 261
 86 0 l 261
 86 1000 l 261xb1
EndSplineSet
EndChar

StartChar: minute
Encoding: 8242 8242 267
GlifName: minute
Width: 779
VWidth: -99
GlyphClass: 2
Flags: HW
HStem: 900 400<311 350>
LayerCount: 2
Fore
SplineSet
730 1301 m 257
 350 900 l 257
 51 900 l 257
 311 1301 l 257
 730 1301 l 257
EndSplineSet
EndChar

StartChar: multiply
Encoding: 215 215 268
GlifName: multiply
Width: 1175
VWidth: 0
GlyphClass: 2
Flags: HW
LayerCount: 2
Fore
SplineSet
588 850 m 261
 850 1133 l 261
 1088 895 l 261
 807 633 l 261
 1088 369 l 261
 850 133 l 261
 588 414 l 261
 326 133 l 261
 88 369 l 261
 369 633 l 261
 88 895 l 261
 326 1133 l 261
 588 850 l 261
EndSplineSet
Substitution2: "'tnum' Tabular Numbers in Latin lookup 11-1" multiply.tabl
EndChar

StartChar: n
Encoding: 110 110 269
GlifName: n
Width: 1210
VWidth: 0
GlyphClass: 2
Flags: W
HStem: 0 21G<90 471 750 1131> 699 340<566 873.5> 980 20G<90 471>
VStem: 90 381<0 1000> 393 78<564 861> 750 381<0 656.175>
AnchorPoint: "bottom1" 617 0 basechar 0
AnchorPoint: "top1" 623 1121 basechar 0
LayerCount: 2
Fore
SplineSet
750 539 m 258xcc
 750 650 693 699 605 699 c 256
 527 699 471 639 471 553 c 257xd4
 393 564 l 257
 393 861 588 1039 768 1039 c 256
 979 1039 1131 889 1131 619 c 258
 1131 0 l 257
 750 0 l 257
 750 539 l 258xcc
90 1000 m 261xb4
 471 1000 l 261
 471 0 l 261
 90 0 l 261
 90 1000 l 261xb4
EndSplineSet
Substitution2: "'sups' Superscript in Latin lookup 15-1" uni207F
Substitution2: "'subs' Subscript in Latin lookup 14-1" uni2099
EndChar

StartChar: nine
Encoding: 57 57 273
GlifName: nine
Width: 1232
VWidth: 0
GlyphClass: 2
Flags: HW
HStem: -16 279<501 690> 451 283<359 665> 1037 283<493 692>
VStem: 70 385<772 1000> 777 387<365 598>
LayerCount: 2
Fore
SplineSet
1164 639 m 260
 1164 200 953 -16 602 -16 c 260
 325 -16 134 130 86 379 c 261
 473 379 l 261
 486 316 528 283 600 283 c 260
 706 283 777 369 777 574 c 260
 777 582 777 590 777 598 c 261
 726 508 612 451 477 451 c 260
 243 451 70 629 70 871 c 260
 70 1135 277 1320 578 1320 c 260
 937 1320 1164 1057 1164 639 c 260
734 883 m 260
 734 967 674 1027 590 1027 c 260
 510 1027 455 973 455 887 c 260
 455 801 510 744 594 744 c 260
 678 744 734 801 734 883 c 260
EndSplineSet
Substitution2: "'cv04' Character Variants 04 in Latin lookup 19-1" uni2468
Substitution2: "'cv03' Character Variants 03 in Latin lookup 18-1" uni277E
Substitution2: "'cv02' Character Variants 02 in Latin lookup 17-1" nine.cv02
Substitution2: "'cv01' Character Variants 01 in Latin lookup 16-1" nine.cv01
Substitution2: "'sups' Superscript in Latin lookup 15-1" uni2079
Substitution2: "'subs' Subscript in Latin lookup 14-1" uni2089
Substitution2: "'numr' Numerators in Latin lookup 13-1" nine.numr
Substitution2: "'dnom' Denominators in Latin lookup 12-1" nine.dnom
Substitution2: "'tnum' Tabular Numbers in Latin lookup 11-1" nine.tabl
EndChar

StartChar: numbersign
Encoding: 35 35 275
GlifName: numbersign
Width: 1478
VWidth: 0
GlyphClass: 2
Flags: HW
HStem: 0 41G<105 477 666 1036> 277 256<51 1330> 758 256<150 1430> 1262 39G<443 814 1003 1373>
LayerCount: 2
Fore
SplineSet
1330 533 m 257
 1330 277 l 257
 51 277 l 257
 51 533 l 257
 1330 533 l 257
1430 1014 m 257
 1430 758 l 257
 150 758 l 257
 150 1014 l 257
 1430 1014 l 257
1014 1301 m 257
 1373 1301 l 257
 1025 0 l 257
 666 0 l 257
 1014 1301 l 257
453 1301 m 257
 814 1301 l 257
 467 0 l 257
 105 0 l 257
 453 1301 l 257
EndSplineSet
EndChar

StartChar: o
Encoding: 111 111 276
GlifName: o
Width: 1191
VWidth: 0
GlyphClass: 2
Flags: W
HStem: -35 318<503.331 687.427> 721 318<503.331 687.427>
VStem: 60 385<342.142 663.574> 744 387<342.142 663.574>
AnchorPoint: "top3" 715 1000 basechar 0
AnchorPoint: "bottom1" 596 0 basechar 0
AnchorPoint: "top1" 596 1119 basechar 0
LayerCount: 2
Fore
SplineSet
60 504 m 260
 60 826 274 1039 596 1039 c 260
 916 1039 1131 826 1131 504 c 260
 1131 180 916 -35 596 -35 c 260
 274 -35 60 180 60 504 c 260
744 504 m 260
 744 641 688 721 596 721 c 260
 502 721 445 641 445 504 c 260
 445 363 502 283 596 283 c 260
 688 283 744 363 744 504 c 260
EndSplineSet
EndChar

StartChar: oe
Encoding: 339 339 282
GlifName: oe
Width: 1871
VWidth: 0
GlyphClass: 2
Flags: HW
HStem: -35 318<500 689> -16 266<1176 1398> 398 236<1105 1408> 721 318<500 689> 752 268<1168 1375>
VStem: 60 385<342 663> 797 252<184 821> 1105 8<398 635>
AnchorPoint: "top1" 922 1119 basechar 0
LayerCount: 2
Fore
SplineSet
797 504 m 256x6f
 797 821 986 1020 1289 1020 c 256
 1597 1020 1816 788 1816 465 c 258
 1816 398 l 257
 1105 398 l 257
 1105 635 l 257
 1408 635 l 257
 1400 707 1346 752 1267 752 c 256
 1164 752 1113 672 1113 490 c 256
 1113 332 1178 250 1289 250 c 256
 1364 250 1403 280 1418 328 c 257
 1803 328 l 257
 1771 100 1601 -16 1301 -16 c 256
 991 -16 797 184 797 504 c 256x6f
60 504 m 256
 60 826 266 1039 572 1039 c 256
 858 1039 1049 826 1049 504 c 256
 1049 180 858 -35 572 -35 c 256xb7
 266 -35 60 180 60 504 c 256
744 504 m 256
 744 641 688 721 596 721 c 256
 502 721 445 641 445 504 c 256
 445 363 502 283 596 283 c 256
 688 283 744 363 744 504 c 256
EndSplineSet
EndChar

StartChar: ohorn
Encoding: 417 417 284
GlifName: ohorn
Width: 1265
VWidth: 0
GlyphClass: 2
Flags: W
HStem: -35 318<509.331 693.427> 721 318<509.331 693.427> 805 195<721 962.03>
VStem: 66 385<342.142 663.574> 750 387<342.142 663.574> 1021 282<1031.1 1244>
AnchorPoint: "top1" 602 1119 basechar 0
AnchorPoint: "bottom1" 602 0 basechar 0
LayerCount: 2
Fore
SplineSet
66 504 m 256xd8
 66 826 280 1039 602 1039 c 256
 922 1039 1137 826 1137 504 c 256
 1137 180 922 -35 602 -35 c 256
 280 -35 66 180 66 504 c 256xd8
750 504 m 256
 750 641 694 721 602 721 c 256
 508 721 451 641 451 504 c 256
 451 363 508 283 602 283 c 256
 694 283 750 363 750 504 c 256
721 1000 m 257xb4
 882 1000 l 258
 962.03030303 1000 1021 1025.84684685 1021 1151 c 258
 1021 1244 l 257
 1303 1244 l 257
 1303 1100 l 258
 1303 873 1134.11111111 805 983 805 c 258
 721 805 l 257
 721 1000 l 257xb4
EndSplineSet
EndChar

StartChar: one
Encoding: 49 49 287
GlifName: one
Width: 830
VWidth: 0
GlyphClass: 2
Flags: W
HStem: 0 21G<361 742> 760 326<51 334.532> 1281 20G<361 742>
VStem: 361 381<0 760 1112.59 1301>
LayerCount: 2
Fore
SplineSet
361 1301 m 261
 742 1301 l 261
 742 0 l 261
 361 0 l 261
 361 760 l 261
 51 760 l 261
 51 1086 l 261
 203 1086 l 262
 307 1086 361 1117 361 1221 c 262
 361 1301 l 261
EndSplineSet
Substitution2: "'cv04' Character Variants 04 in Latin lookup 19-1" uni2460
Substitution2: "'cv03' Character Variants 03 in Latin lookup 18-1" uni2776
Substitution2: "'cv02' Character Variants 02 in Latin lookup 17-1" one.cv02
Substitution2: "'cv01' Character Variants 01 in Latin lookup 16-1" one.cv01
Substitution2: "'sups' Superscript in Latin lookup 15-1" uni00B9
Substitution2: "'subs' Subscript in Latin lookup 14-1" uni2081
Substitution2: "'numr' Numerators in Latin lookup 13-1" one.numr
Substitution2: "'dnom' Denominators in Latin lookup 12-1" one.dnom
Substitution2: "'tnum' Tabular Numbers in Latin lookup 11-1" one.tabl
EndChar

StartChar: oslash
Encoding: 248 248 288
GlifName: oslash
Width: 1201
VWidth: 0
GlyphClass: 2
Flags: W
HStem: -35 299<483.756 705.212> 740 299<497.506 718.901>
VStem: 66 366<399.305 673.296> 770 367<332.422 604.46>
LayerCount: 2
Fore
SplineSet
1004 1092 m 257
 1137 973 l 257
 201 -88 l 257
 70 31 l 257
 1004 1092 l 257
66 504 m 260
 66 826 280 1039 602 1039 c 260
 922 1039 1137 826 1137 504 c 260
 1137 180 922 -35 602 -35 c 260
 280 -35 66 180 66 504 c 260
770 504 m 260
 770 652 706 740 602 740 c 260
 495 740 432 652 432 504 c 260
 432 352 495 264 602 264 c 260
 706 264 770 352 770 504 c 260
EndSplineSet
EndChar

StartChar: p
Encoding: 112 112 290
GlifName: p
Width: 1214
VWidth: 0
GlyphClass: 2
Flags: HW
HStem: -326 41G<86 467> -35 318<594 874> 721 318<594 874> 961 39G<86 467>
VStem: 86 381<-326 1000> 381 86<180 826> 764 387<342 663>
LayerCount: 2
Fore
SplineSet
86 1000 m 261xda
 467 1000 l 261
 467 -326 l 261
 86 -326 l 261
 86 1000 l 261xda
381 504 m 260xe6
 381 826 529 1039 756 1039 c 260
 992 1039 1150 826 1150 504 c 260
 1150 180 992 -35 756 -35 c 260
 529 -35 381 180 381 504 c 260xe6
764 504 m 260
 764 641 707 721 615 721 c 260
 521 721 467 641 467 504 c 260xea
 467 363 521 283 615 283 c 260
 707 283 764 363 764 504 c 260
EndSplineSet
EndChar

StartChar: parenleft
Encoding: 40 40 291
GlifName: parenleft
Width: 718
VWidth: 0
GlyphClass: 2
Flags: W
VStem: 51 395<184.427 925.257>
LayerCount: 2
Fore
SplineSet
689 -268 m 257
 309 -268 l 257
 161 -112 51 217 51 555 c 256
 51 893 161 1221 309 1377 c 257
 689 1377 l 257
 525.719367589 1207 446 914 446 555 c 260
 446 196 525.719367589 -98 689 -268 c 257
EndSplineSet
Substitution2: "'sups' Superscript in Latin lookup 15-1" uni207D
Substitution2: "'subs' Subscript in Latin lookup 14-1" uni208D
EndChar

StartChar: parenright
Encoding: 41 41 292
GlifName: parenright
Width: 718
VWidth: 0
GlyphClass: 2
Flags: W
VStem: 273 397<184.427 925.257>
LayerCount: 2
Fore
SplineSet
29 1377 m 257
 412 1377 l 257
 560 1221 670 893 670 555 c 256
 670 217 560 -112 412 -268 c 257
 29 -268 l 257
 192.307086614 -98 273 196 273 555 c 260
 273 914 192.307086614 1207 29 1377 c 257
EndSplineSet
Substitution2: "'sups' Superscript in Latin lookup 15-1" uni207E
Substitution2: "'subs' Subscript in Latin lookup 14-1" uni208E
EndChar

StartChar: percent
Encoding: 37 37 293
GlifName: percent
Width: 2060
VWidth: 0
GlyphClass: 2
Flags: HW
HStem: -39 238<1525 1677> 0 41G<609 946> 504 240<386 538> 557 240<1524 1678> 1100 240<385 539> 1262 39G<1123 1457>
VStem: 66 285<777 1068> 570 285<771 1069> 1205 287<228 526> 1711 285<229 525>
LayerCount: 2
Fore
SplineSet
1205 381 m 260x93c0
 1205 631 1364 797 1602 797 c 260
 1838 797 1996 631 1996 381 c 260
 1996 129 1838 -39 1602 -39 c 260
 1364 -39 1205 129 1205 381 c 260x93c0
1711 381 m 260
 1711 492 1670 557 1602 557 c 260
 1532 557 1492 492 1492 381 c 260
 1492 268 1532 199 1602 199 c 260
 1670 199 1711 268 1711 381 c 260
1139 1301 m 257x47c0
 1457 1301 l 257
 930 0 l 257
 609 0 l 257
 1139 1301 l 257x47c0
66 924 m 256
 66 1174 225 1340 463 1340 c 256
 699 1340 855 1174 855 924 c 256
 855 672 699 504 463 504 c 256x2bc0
 225 504 66 672 66 924 c 256
570 924 m 256
 570 1035 531 1100 463 1100 c 256
 393 1100 352 1035 352 924 c 256
 352 811 393 744 463 744 c 256
 531 744 570 811 570 924 c 256
EndSplineSet
EndChar

StartChar: period
Encoding: 46 46 294
GlifName: period
Width: 550
VWidth: 0
GlyphClass: 2
Flags: HW
HStem: 0 395<72 480>
VStem: 72 408<0 395>
LayerCount: 2
Fore
SplineSet
72 395 m 257
 480 395 l 257
 480 0 l 257
 72 0 l 257
 72 395 l 257
EndSplineSet
Substitution2: "'tnum' Tabular Numbers in Latin lookup 11-1" period.tabl
Substitution2: "ss03StyleSet3inLatinlookup2 subtable" period.ss03
EndChar

StartChar: period.ss03
Encoding: 65589 -1 295
GlifName: period.ss03
Width: 550
VWidth: 0
GlyphClass: 2
Flags: HW
HStem: -21 432<147 405>
VStem: 61 432<65 323>
LayerCount: 2
Fore
SplineSet
61 193 m 256
 61 312 156 410 275 410 c 256
 394 410 492 312 492 193 c 256
 492 74 394 -21 275 -21 c 256
 156 -21 61 74 61 193 c 256
EndSplineSet
EndChar

StartChar: periodcentered
Encoding: 183 183 296
GlifName: periodcentered
Width: 550
VWidth: 0
GlyphClass: 2
Flags: HW
HStem: 480 393<72 480>
VStem: 72 408<480 873>
LayerCount: 2
Fore
SplineSet
72 873 m 261
 480 873 l 261
 480 480 l 261
 72 480 l 261
 72 873 l 261
EndSplineSet
Substitution2: "ss03StyleSet3inLatinlookup2 subtable" periodcentered.ss03
EndChar

StartChar: periodcentered.ss03
Encoding: 65590 -1 297
GlifName: periodcentered.ss03
Width: 550
VWidth: 0
GlyphClass: 2
Flags: HW
HStem: 479 432<147 405>
VStem: 61 432<565 823>
LayerCount: 2
Fore
SplineSet
61 693 m 256
 61 812 156 910 275 910 c 256
 394 910 492 812 492 693 c 256
 492 574 394 479 275 479 c 256
 156 479 61 574 61 693 c 256
EndSplineSet
EndChar

StartChar: perthousand
Encoding: 8240 8240 298
GlifName: perthousand
Width: 2919
VWidth: 0
GlyphClass: 2
Flags: HW
HStem: -39 238<1525 1677 2384 2536> 0 41G<609 946> 504 240<386 538> 557 240<1524 1678 2383 2537> 1100 240<385 539> 1262 39G<1123 1457>
VStem: 66 285<777 1068> 570 285<771 1069> 1205 287<228 526> 1711 285<229 525> 2064 285<229 525> 2568 285<228 526>
LayerCount: 2
Fore
SplineSet
2064 381 m 256x93f0
 2064 631 2223 797 2461 797 c 256
 2697 797 2854 631 2854 381 c 256
 2854 129 2697 -39 2461 -39 c 256
 2223 -39 2064 129 2064 381 c 256x93f0
2568 381 m 256
 2568 492 2529 557 2461 557 c 256
 2391 557 2350 492 2350 381 c 256
 2350 268 2391 199 2461 199 c 256
 2529 199 2568 268 2568 381 c 256
1205 381 m 256
 1205 631 1364 797 1602 797 c 256
 1838 797 1996 631 1996 381 c 256
 1996 129 1838 -39 1602 -39 c 256
 1364 -39 1205 129 1205 381 c 256
1711 381 m 256
 1711 492 1670 557 1602 557 c 256
 1532 557 1492 492 1492 381 c 256
 1492 268 1532 199 1602 199 c 256
 1670 199 1711 268 1711 381 c 256
1139 1301 m 257x47f0
 1457 1301 l 257
 930 0 l 257
 609 0 l 257
 1139 1301 l 257x47f0
66 924 m 256
 66 1174 225 1340 463 1340 c 256
 699 1340 855 1174 855 924 c 256
 855 672 699 504 463 504 c 256x2bf0
 225 504 66 672 66 924 c 256
570 924 m 256
 570 1035 531 1100 463 1100 c 256
 393 1100 352 1035 352 924 c 256
 352 811 393 744 463 744 c 256
 531 744 570 811 570 924 c 256
EndSplineSet
EndChar

StartChar: plus
Encoding: 43 43 299
GlifName: plus
Width: 1175
VWidth: 0
GlyphClass: 2
Flags: W
HStem: 465 336<51 420 756 1127>
VStem: 420 336<94 465 801 1170>
LayerCount: 2
Fore
SplineSet
756 801 m 261
 1127 801 l 261
 1127 465 l 261
 756 465 l 261
 756 94 l 257
 420 94 l 257
 420 465 l 261
 51 465 l 261
 51 801 l 261
 420 801 l 261
 420 1170 l 257
 756 1170 l 257
 756 801 l 261
EndSplineSet
Substitution2: "'sups' Superscript in Latin lookup 15-1" uni207A
Substitution2: "'subs' Subscript in Latin lookup 14-1" uni208A
Substitution2: "'tnum' Tabular Numbers in Latin lookup 11-1" plus.tabl
EndChar

StartChar: q
Encoding: 113 113 300
GlifName: q
Width: 1214
VWidth: 0
GlyphClass: 2
Flags: HW
HStem: -35 318<343 622> 721 318<343 624>
VStem: 66 385<342 663> 750 86<180 826>
LayerCount: 2
Fore
SplineSet
1131 1000 m 257
 750 1000 l 257
 750 -326 l 257
 1131 -326 l 257
 1131 1000 l 257
836 504 m 256
 836 826 688 1039 461 1039 c 256
 225 1039 66 826 66 504 c 256
 66 180 225 -35 461 -35 c 256
 688 -35 836 180 836 504 c 256
451 504 m 256
 451 641 508 721 600 721 c 256
 694 721 750 641 750 504 c 256
 750 363 694 283 600 283 c 256
 508 283 451 363 451 504 c 256
EndSplineSet
EndChar

StartChar: question
Encoding: 63 63 301
GlifName: question
Width: 1173
VWidth: 0
GlyphClass: 2
Flags: HW
HStem: 0 295<393 801> 1020 297<494 692>
VStem: 393 408<0 295> 719 385<792 996>
LayerCount: 2
Fore
SplineSet
406 400 m 261xd0
 426 564 500 638 572 699 c 260
 646 761 719 804 719 906 c 260
 719 978 670 1020 594 1020 c 260
 512 1020 459 961 455 867 c 261
 70 867 l 261
 90 1133 293 1316 570 1316 c 260
 892 1316 1104 1152 1104 906 c 260
 1104 722 1021 649 939 588 c 260
 871 537 803 494 785 400 c 261
 406 400 l 261xd0
801 0 m 257xe0
 393 0 l 257
 393 295 l 257
 801 295 l 257
 801 0 l 257xe0
EndSplineSet
Substitution2: "ss03StyleSet3inLatinlookup2 subtable" question.ss03
EndChar

StartChar: question.ss03
Encoding: 65591 -1 302
GlifName: question.ss03
Width: 1173
VWidth: 0
GlyphClass: 2
Flags: HW
HStem: -21 391<463 729> 1021 295<494 692>
VStem: 381 432<57 290> 719 385<802 998>
LayerCount: 2
Fore
SplineSet
381 174 m 256xe0
 381 281 477 369 596 369 c 256
 715 369 812 281 812 174 c 256
 812 67 715 -21 596 -21 c 256
 477 -21 381 67 381 174 c 256xe0
406 439 m 257
 424 582 493 652 561 707 c 256
 639 769 719 810 719 908 c 256
 719 980 670 1021 594 1021 c 256
 512 1021 459 963 455 869 c 257
 70 869 l 257
 90 1133 293 1316 570 1316 c 256
 892 1316 1104 1154 1104 908 c 256xd0
 1104 744 1025 676 947 619 c 256
 875 568 805 529 785 439 c 257
 406 439 l 257
EndSplineSet
EndChar

StartChar: questiondown
Encoding: 191 191 303
GlifName: questiondown
Width: 1173
VWidth: 0
GlyphClass: 2
Flags: HW
HStem: -316 297<482 680> 705 295<373 781>
VStem: 70 385<4 208> 373 408<705 1000>
LayerCount: 2
Fore
SplineSet
768 600 m 257xe0
 748 436 674 362 602 301 c 256
 528 239 455 196 455 94 c 256
 455 22 504 -20 580 -20 c 256
 662 -20 715 39 719 133 c 257
 1104 133 l 257
 1084 -133 881 -316 604 -316 c 256
 282 -316 70 -152 70 94 c 256
 70 278 152 351 234 412 c 256
 302 463 371 506 389 600 c 257
 768 600 l 257xe0
373 1000 m 257xd0
 781 1000 l 257
 781 705 l 257
 373 705 l 257
 373 1000 l 257xd0
EndSplineSet
Substitution2: "ss03StyleSet3inLatinlookup2 subtable" questiondown.ss03
EndChar

StartChar: questiondown.ss03
Encoding: 65592 -1 304
GlifName: questiondown.ss03
Width: 1173
VWidth: 0
GlyphClass: 2
Flags: HW
HStem: -316 295<482 680> 631 391<445 712>
VStem: 70 385<2 198> 361 434<710 943>
LayerCount: 2
Fore
SplineSet
795 826 m 256xd0
 795 719 697 631 578 631 c 256
 459 631 361 719 361 826 c 256
 361 933 459 1021 578 1021 c 256
 697 1021 795 933 795 826 c 256xd0
768 561 m 257
 750 418 681 348 613 293 c 256
 535 231 455 190 455 92 c 256
 455 20 504 -21 580 -21 c 256
 662 -21 715 37 719 131 c 257
 1104 131 l 257
 1084 -133 881 -316 604 -316 c 256
 282 -316 70 -154 70 92 c 256xe0
 70 256 149 326 227 381 c 256
 299 432 369 471 389 561 c 257
 768 561 l 257
EndSplineSet
EndChar

StartChar: quotedbl
Encoding: 34 34 305
GlifName: quotedbl
Width: 982
VWidth: 0
GlyphClass: 2
Flags: W
HStem: 801 599<90 391 555 854>
VStem: 90 340<1184.97 1400> 90 301<801 1016.03> 555 340<1195.46 1400> 555 299<801 1005.54>
LayerCount: 2
Fore
SplineSet
555 1400 m 257x90
 895 1400 l 257x90
 854 801 l 257
 555 801 l 257x88
 555 1400 l 257x90
90 1400 m 257xc0
 430 1400 l 257xc0
 391 801 l 257
 90 801 l 257xa0
 90 1400 l 257xc0
EndSplineSet
EndChar

StartChar: quotedblbase
Encoding: 8222 8222 306
GlifName: quotedblbase
Width: 1101
VWidth: 0
GlyphClass: 2
Flags: HW
HStem: 0 395<72 312 623 863>
VStem: 72 408<0 395> 623 408<0 395>
LayerCount: 2
Fore
SplineSet
72 395 m 257
 480 395 l 257
 480 0 l 257
 324 -369 l 257
 62 -369 l 257
 312 0 l 257
 72 0 l 257
 72 395 l 257
623 395 m 257
 1031 395 l 257
 1031 0 l 257
 877 -369 l 257
 613 -369 l 257
 863 0 l 257
 623 0 l 257
 623 395 l 257
EndSplineSet
Substitution2: "ss03StyleSet3inLatinlookup2 subtable" quotedblbase.ss03
EndChar

StartChar: quotedblbase.ss03
Encoding: 65593 -1 307
GlifName: quotedblbase.ss03
Width: 1101
VWidth: 0
GlyphClass: 2
Flags: HW
HStem: -328 176<90 276 641 826> 0 432<147 308 697 859>
VStem: 61 432<87 346> 312 180<-118 2> 609 434<87 346> 861 182<-118 2>
LayerCount: 2
Fore
SplineSet
61 217 m 256xe0
 61 336 156 432 275 432 c 256
 394 432 492 336 492 217 c 258xe0
 492 -27 l 258
 492 -216 381 -328 193 -328 c 258
 90 -328 l 257
 90 -152 l 257
 133 -152 l 258
 256 -152 312 -110 312 -16 c 258
 312 2 l 257xd0
 300 0 287 0 275 0 c 256
 156 0 61 98 61 217 c 256xe0
609 217 m 256xc8
 609 336 707 432 826 432 c 256
 945 432 1043 336 1043 217 c 258xc8
 1043 -27 l 258
 1043 -216 932 -328 744 -328 c 258
 641 -328 l 257
 641 -152 l 257
 682 -152 l 258
 805 -152 861 -110 861 -16 c 258
 861 2 l 257xc4
 849 0 838 0 826 0 c 256
 707 0 609 98 609 217 c 256xc8
EndSplineSet
EndChar

StartChar: quotedblleft
Encoding: 8220 8220 308
GlifName: quotedblleft
Width: 1101
VWidth: 0
GlyphClass: 2
Flags: HW
HStem: 637 393<230 471 781 1021> 1361 39G<202 480 753 1031>
VStem: 62 408<637 1029> 613 408<637 1029>
LayerCount: 2
Fore
SplineSet
1021 637 m 257
 613 637 l 257
 613 1029 l 257
 770 1400 l 257
 1031 1400 l 257
 781 1029 l 257
 1021 1029 l 257
 1021 637 l 257
471 637 m 257
 62 637 l 257
 62 1029 l 257
 219 1400 l 257
 480 1400 l 257
 230 1029 l 257
 471 1029 l 257
 471 637 l 257
EndSplineSet
Substitution2: "ss03StyleSet3inLatinlookup2 subtable" quotedblleft.ss03
EndChar

StartChar: quotedblleft.ss03
Encoding: 65594 -1 309
GlifName: quotedblleft.ss03
Width: 1101
VWidth: 0
GlyphClass: 2
Flags: HW
HStem: 641 431<242.223 404.471 793.148 955.471> 1225 175<274.841 463 825.644 1012>
VStem: 61 431<726.612 984.471> 61 179<1070 1190.37> 609 434<726.612 984.471> 609 180<1070 1189.61>
LayerCount: 2
Fore
SplineSet
1042 907 m 260xe0
 1042 793.509259259 947 701 828 701 c 260
 709 701 611 793.509259259 611 907 c 262xe0
 611 1142 l 262
 611 1318.31543624 722 1420 910 1420 c 262
 1013 1420 l 261
 1013 1245 l 261
 970 1245 l 262
 847 1245 791 1210.07407407 791 1130 c 262
 791 1110 l 261xd0
 803 1112 816 1112 828 1112 c 260
 947 1112 1042 1020.46511628 1042 907 c 260xe0
492 907 m 260xe0
 492 793.509259259 397 701 278 701 c 260
 159 701 61 793.509259259 61 907 c 262xe0
 61 1142 l 262
 61 1318.31543624 172 1420 360 1420 c 262
 463 1420 l 261
 463 1245 l 261
 420 1245 l 262
 297 1245 241 1210.07407407 241 1130 c 262
 241 1110 l 261xd0
 253 1112 266 1112 278 1112 c 260
 397 1112 492 1020.46511628 492 907 c 260xe0
EndSplineSet
EndChar

StartChar: quotedblright
Encoding: 8221 8221 310
GlifName: quotedblright
Width: 1101
VWidth: 0
GlyphClass: 2
Flags: HW
HStem: 1006 395<72 312 623 863>
VStem: 72 408<1006 1400> 623 408<1006 1400>
LayerCount: 2
Fore
SplineSet
72 1400 m 257
 480 1400 l 257
 480 1006 l 257
 324 637 l 257
 62 637 l 257
 312 1006 l 257
 72 1006 l 257
 72 1400 l 257
623 1400 m 257
 1031 1400 l 257
 1031 1006 l 257
 877 637 l 257
 613 637 l 257
 863 1006 l 257
 623 1006 l 257
 623 1400 l 257
EndSplineSet
Substitution2: "ss03StyleSet3inLatinlookup2 subtable" quotedblright.ss03
EndChar

StartChar: quotedblright.ss03
Encoding: 65595 -1 311
GlifName: quotedblright.ss03
Width: 1101
VWidth: 0
GlyphClass: 2
Flags: HW
HStem: 641 176<90 276 641 826> 969 432<147 308 697 859>
VStem: 61 432<1055 1313> 312 180<849 971> 609 434<1055 1313> 861 182<849 971>
LayerCount: 2
Fore
SplineSet
611 1214 m 260xe0
 611 1327.49074074 706 1420 825 1420 c 260
 944 1420 1042 1327.49074074 1042 1214 c 262xe0
 1042 979 l 262
 1042 802.684563758 931 701 743 701 c 262
 640 701 l 261
 640 876 l 261
 683 876 l 262
 806 876 862 910.925925926 862 991 c 262
 862 1011 l 261xd0
 850 1009 837 1009 825 1009 c 260
 706 1009 611 1100.53488372 611 1214 c 260xe0
61 1214 m 260xe0
 61 1327.49074074 156 1420 275 1420 c 260
 394 1420 492 1327.49074074 492 1214 c 262xe0
 492 979 l 262
 492 802.684563758 381 701 193 701 c 262
 90 701 l 261
 90 876 l 261
 133 876 l 262
 256 876 312 910.925925926 312 991 c 262
 312 1011 l 261xd0
 300 1009 287 1009 275 1009 c 260
 156 1009 61 1100.53488372 61 1214 c 260xe0
EndSplineSet
EndChar

StartChar: quoteleft
Encoding: 8216 8216 312
GlifName: quoteleft
Width: 550
VWidth: 0
GlyphClass: 2
Flags: HW
HStem: 637 393<230 471> 1361 39G<202 480>
VStem: 62 408<637 1029>
LayerCount: 2
Fore
SplineSet
471 637 m 257
 62 637 l 257
 62 1029 l 257
 219 1400 l 257
 480 1400 l 257
 230 1029 l 257
 471 1029 l 257
 471 637 l 257
EndSplineSet
Substitution2: "ss03StyleSet3inLatinlookup2 subtable" quoteleft.ss03
EndChar

StartChar: quoteleft.ss03
Encoding: 65596 -1 313
GlifName: quoteleft.ss03
Width: 550
VWidth: 0
GlyphClass: 2
Flags: HW
HStem: 641 431<242.223 404.471> 1225 175<274.841 463>
VStem: 61 431<726.612 984.471> 61 179<1070 1190.37>
LayerCount: 2
Fore
SplineSet
492 907 m 260xe0
 492 793.509259259 397 701 278 701 c 260
 159 701 61 793.509259259 61 907 c 262xe0
 61 1142 l 262
 61 1318.31543624 172 1420 360 1420 c 262
 463 1420 l 261
 463 1245 l 261
 420 1245 l 262
 297 1245 241 1210.07407407 241 1130 c 262
 241 1110 l 261xd0
 253 1112 266 1112 278 1112 c 260
 397 1112 492 1020.46511628 492 907 c 260xe0
EndSplineSet
EndChar

StartChar: quotereversed
Encoding: 8219 8219 314
GlifName: quotereversed
Width: 550
VWidth: 0
GlyphClass: 2
Flags: HW
HStem: 1006 395<230 471>
VStem: 62 408<1006 1400>
LayerCount: 2
Fore
SplineSet
471 1400 m 257
 471 1006 l 257
 230 1006 l 257
 480 637 l 257
 219 637 l 257
 62 1006 l 257
 62 1400 l 257
 471 1400 l 257
EndSplineSet
Substitution2: "ss03StyleSet3inLatinlookup2 subtable" quotereversed.ss03
EndChar

StartChar: quotereversed.ss03
Encoding: 65597 -1 315
GlifName: quotereversed.ss03
Width: 550
VWidth: 0
GlyphClass: 2
Flags: HW
HStem: 641 176<90 276> 1361 39G<216 335>
VStem: 61 432<1055 1313> 312 180<849 971>
LayerCount: 2
Fore
SplineSet
492 1214 m 256xe0
 492 1100.53488372 397 1009 278 1009 c 256
 266 1009 253 1009 241 1011 c 257xd0
 241 991 l 258
 241 910.925925926 297 876 420 876 c 258
 463 876 l 257
 463 701 l 257
 360 701 l 258
 172 701 61 802.684563758 61 979 c 258
 61 1214 l 258xe0
 61 1327.49074074 159 1420 278 1420 c 256
 397 1420 492 1327.49074074 492 1214 c 256xe0
EndSplineSet
EndChar

StartChar: quoteright
Encoding: 8217 8217 316
GlifName: quoteright
Width: 550
VWidth: 0
GlyphClass: 2
Flags: HW
HStem: 1006 395<72 312>
VStem: 72 408<1006 1400>
LayerCount: 2
Fore
SplineSet
72 1400 m 257
 480 1400 l 257
 480 1006 l 257
 324 637 l 257
 62 637 l 257
 312 1006 l 257
 72 1006 l 257
 72 1400 l 257
EndSplineSet
Substitution2: "ss03StyleSet3inLatinlookup2 subtable" quoteright.ss03
EndChar

StartChar: quoteright.ss03
Encoding: 65598 -1 317
GlifName: quoteright.ss03
Width: 550
VWidth: 0
GlyphClass: 2
Flags: HW
HStem: 641 176<90 276> 1361 39G<216 335>
VStem: 61 432<1055 1313> 312 180<849 971>
LayerCount: 2
Fore
SplineSet
61 1214 m 260xe0
 61 1327.49074074 156 1420 275 1420 c 260
 394 1420 492 1327.49074074 492 1214 c 262xe0
 492 979 l 262
 492 802.684563758 381 701 193 701 c 262
 90 701 l 261
 90 876 l 261
 133 876 l 262
 256 876 312 910.925925926 312 991 c 262
 312 1011 l 261xd0
 300 1009 287 1009 275 1009 c 260
 156 1009 61 1100.53488372 61 1214 c 260xe0
EndSplineSet
EndChar

StartChar: quotesinglbase
Encoding: 8218 8218 318
GlifName: quotesinglbase
Width: 550
VWidth: 0
GlyphClass: 2
Flags: HW
HStem: 0 395<72 312>
VStem: 72 408<0 395>
LayerCount: 2
Fore
SplineSet
72 395 m 257
 480 395 l 257
 480 0 l 257
 324 -369 l 257
 62 -369 l 257
 312 0 l 257
 72 0 l 257
 72 395 l 257
EndSplineSet
Substitution2: "ss03StyleSet3inLatinlookup2 subtable" quotesinglbase.ss03
EndChar

StartChar: quotesinglbase.ss03
Encoding: 65599 -1 319
GlifName: quotesinglbase.ss03
Width: 550
VWidth: 0
GlyphClass: 2
Flags: HW
HStem: -326 176<90 276> 2 41G<216 281>
VStem: 61 432<89 348> 312 180<-116 4>
LayerCount: 2
Fore
SplineSet
61 219 m 256xe0
 61 338 156 434 275 434 c 256
 394 434 492 338 492 219 c 258xe0
 492 -25 l 258
 492 -214 381 -326 193 -326 c 258
 90 -326 l 257
 90 -150 l 257
 133 -150 l 258
 256 -150 312 -108 312 -14 c 258
 312 4 l 257xd0
 300 2 287 2 275 2 c 256
 156 2 61 100 61 219 c 256xe0
EndSplineSet
EndChar

StartChar: quotesingle
Encoding: 39 39 320
GlifName: quotesingle
Width: 519
VWidth: 0
GlyphClass: 2
Flags: HW
HStem: 801 600<90 391>
VStem: 90 340<1185 1400> 90 301<801 1016>
LayerCount: 2
Fore
SplineSet
90 1400 m 257xc0
 430 1400 l 257xc0
 391 801 l 257
 90 801 l 257xa0
 90 1400 l 257xc0
EndSplineSet
EndChar

StartChar: r
Encoding: 114 114 321
GlifName: r
Width: 841
VWidth: 0
GlyphClass: 2
Flags: W
HStem: 0 21G<86 467> 1000 0G<86 467 651 795>
VStem: 86 381<0 1000> 389 78<484 816>
AnchorPoint: "bottom1" 283 0 basechar 0
AnchorPoint: "top1" 504 1119 basechar 0
LayerCount: 2
Fore
SplineSet
795 633 m 261xd0
 717 633 l 262
 553 633 467 567 467 473 c 261xe0
 389 484 l 261
 389 816 568 1020 734 1020 c 258
 795 1020 l 257
 795 633 l 261xd0
86 1000 m 257
 467 1000 l 257
 467 0 l 257
 86 0 l 257
 86 1000 l 257
EndSplineSet
EndChar

StartChar: s
Encoding: 115 115 324
GlifName: s
Width: 1120
VWidth: 0
GlyphClass: 2
Flags: W
HStem: -29 254<467.336 684.293> 773 260<461.55 657.933>
AnchorPoint: "bottom1" 588 0 basechar 0
AnchorPoint: "top1" 547 1119 basechar 0
LayerCount: 2
Fore
SplineSet
631 348 m 262
 420 367 l 262
 178 389 70 503 70 689 c 260
 70 902 252 1033 545 1033 c 260
 826 1033 1012 906 1037 699 c 261
 670 699 l 261
 660 750 621 773 549 773 c 260
 490 773 455 750 455 713 c 260
 455 680 471 662 508 656 c 262
 738 637 l 262
 967 618 1060 513 1060 305 c 260
 1060 105 873 -29 590 -29 c 260
 287 -29 89 101 60 314 c 261
 447 314 l 261
 459 252 502 225 584 225 c 260
 650 225 693 248 693 287 c 260
 693 318 676 342 631 348 c 262
EndSplineSet
EndChar

StartChar: second
Encoding: 8243 8243 329
GlifName: second
Width: 1289
VWidth: -99
GlyphClass: 2
Flags: HW
HStem: 900 400<311 350 822 861>
LayerCount: 2
Fore
SplineSet
1242 1301 m 257
 861 900 l 257
 562 900 l 257
 822 1301 l 257
 1242 1301 l 257
730 1301 m 257
 350 900 l 257
 51 900 l 257
 311 1301 l 257
 730 1301 l 257
EndSplineSet
EndChar

StartChar: semicolon
Encoding: 59 59 330
GlifName: semicolon
Width: 550
VWidth: 0
GlyphClass: 2
Flags: HW
HStem: 0 395<72 312> 604 395<72 480>
VStem: 72 408<0 395 604 998>
LayerCount: 2
Fore
SplineSet
72 998 m 257
 480 998 l 257
 480 604 l 257
 72 604 l 257
 72 998 l 257
72 395 m 257
 480 395 l 257
 480 0 l 257
 324 -369 l 257
 62 -369 l 257
 312 0 l 257
 72 0 l 257
 72 395 l 257
EndSplineSet
Substitution2: "'tnum' Tabular Numbers in Latin lookup 11-1" semicolon.tabl
Substitution2: "ss03StyleSet3inLatinlookup2 subtable" semicolon.ss03
EndChar

StartChar: semicolon.ss03
Encoding: 65600 -1 331
GlifName: semicolon.ss03
Width: 550
VWidth: 0
GlyphClass: 2
Flags: HW
HStem: -326 176<90 283> 592 432<147 405>
VStem: 61 432<65 323 679 937> 312 180<-120 -20>
LayerCount: 2
Fore
SplineSet
61 809 m 260xe0
 61 928 156 1023 275 1023 c 260
 394 1023 492 928 492 809 c 260
 492 690 394 592 275 592 c 260
 156 592 61 690 61 809 c 260xe0
61 193 m 260
 61 312 156 410 275 410 c 260
 394 410 492 312 492 193 c 262xe0
 492 -51 l 262
 492 -225 381 -326 193 -326 c 262
 90 -326 l 261
 90 -150 l 261
 133 -150 l 262
 256 -150 312 -115 312 -37 c 262
 312 -20 l 261xd0
 300 -22 287 -21 275 -21 c 260
 156 -21 61 74 61 193 c 260
EndSplineSet
EndChar

StartChar: seven
Encoding: 55 55 332
GlifName: seven
Width: 1162
VWidth: 0
GlyphClass: 2
Flags: W
VStem: 281 436<0 376.239>
LayerCount: 2
Fore
SplineSet
717 0 m 257
 717 426 813 711 1094 924 c 257
 1094 1301 l 257
 70 1301 l 257
 70 943 l 257
 672 943 l 257
 456 744 281 498 281 0 c 261
 717 0 l 257
EndSplineSet
Substitution2: "'cv04' Character Variants 04 in Latin lookup 19-1" uni2466
Substitution2: "'cv03' Character Variants 03 in Latin lookup 18-1" uni277C
Substitution2: "'cv02' Character Variants 02 in Latin lookup 17-1" seven.cv02
Substitution2: "'cv01' Character Variants 01 in Latin lookup 16-1" seven.cv01
Substitution2: "'sups' Superscript in Latin lookup 15-1" uni2077
Substitution2: "'subs' Subscript in Latin lookup 14-1" uni2087
Substitution2: "'numr' Numerators in Latin lookup 13-1" seven.numr
Substitution2: "'dnom' Denominators in Latin lookup 12-1" seven.dnom
Substitution2: "'tnum' Tabular Numbers in Latin lookup 11-1" seven.tabl
EndChar

StartChar: six
Encoding: 54 54 333
GlifName: six
Width: 1232
VWidth: 0
GlyphClass: 2
Flags: HW
HStem: -16 281<543 740> 570 281<569 875> 1039 281<545 734>
VStem: 70 385<705 925> 777 387<302 533>
LayerCount: 2
Fore
SplineSet
70 666 m 260
 70 1105 282 1320 633 1320 c 260
 910 1320 1100 1175 1148 926 c 261
 762 926 l 261
 749 989 707 1021 635 1021 c 260
 529 1021 457 935 457 730 c 260
 457 722 457 715 457 707 c 261
 508 797 623 854 758 854 c 260
 992 854 1164 676 1164 434 c 260
 1164 170 957 -16 656 -16 c 260
 297 -16 70 248 70 666 c 260
500 422 m 260
 500 338 561 277 645 277 c 260
 725 277 779 332 779 418 c 260
 779 504 725 561 641 561 c 260
 557 561 500 504 500 422 c 260
EndSplineSet
Substitution2: "'cv04' Character Variants 04 in Latin lookup 19-1" uni2465
Substitution2: "'cv03' Character Variants 03 in Latin lookup 18-1" uni277B
Substitution2: "'cv02' Character Variants 02 in Latin lookup 17-1" six.cv02
Substitution2: "'cv01' Character Variants 01 in Latin lookup 16-1" six.cv01
Substitution2: "'sups' Superscript in Latin lookup 15-1" uni2076
Substitution2: "'subs' Subscript in Latin lookup 14-1" uni2086
Substitution2: "'numr' Numerators in Latin lookup 13-1" six.numr
Substitution2: "'dnom' Denominators in Latin lookup 12-1" six.dnom
Substitution2: "'tnum' Tabular Numbers in Latin lookup 11-1" six.tabl
EndChar

StartChar: slash
Encoding: 47 47 334
GlifName: slash
Width: 1000
VWidth: 0
GlyphClass: 2
Flags: W
HStem: 0 21G<66 492.887> 1281 20G<507.113 934>
LayerCount: 2
Fore
SplineSet
514 1301 m 261
 934 1301 l 261
 486 0 l 261
 66 0 l 261
 514 1301 l 261
EndSplineSet
Substitution2: "'tnum' Tabular Numbers in Latin lookup 11-1" slash.tabl
EndChar

StartChar: t
Encoding: 116 116 336
GlifName: t
Width: 724
VWidth: 0
GlyphClass: 2
Flags: W
HStem: 0 21G<444 694> 703 297<30 694>
VStem: 171 380<323.989 1260>
AnchorPoint: "top2" 620 1057 basechar 0
AnchorPoint: "bottom1" 577 0 basechar 0
LayerCount: 2
Fore
SplineSet
30 1000 m 257
 694 1000 l 257
 694 703 l 257
 30 703 l 257
 30 1000 l 257
694 316 m 257
 694 0 l 257
 569 0 l 258
 319 0 171 130 171 355 c 258
 171 1260 l 257
 551 1260 l 257
 551 408 l 258
 551 344 574 316 631 316 c 258
 694 316 l 257
EndSplineSet
Substitution2: "ss08StyleSet8inLatinlookup7 subtable" t.ss08
EndChar

StartChar: t.ss08
Encoding: 65601 -1 337
GlifName: t.ss08
Width: 755
VWidth: 0
GlyphClass: 2
Flags: HW
HStem: 0 41G<188 568> 703 297<47 711>
VStem: 188 381<0 1260>
AnchorPoint: "bottom1" 389 0 basechar 0
AnchorPoint: "top2" 637 1057 basechar 0
LayerCount: 2
Fore
SplineSet
47 1000 m 261
 711 1000 l 261
 711 703 l 261
 47 703 l 261
 47 1000 l 261
188 0 m 261
 188 1260 l 261
 568 1260 l 261
 568 0 l 261
 188 0 l 261
EndSplineSet
EndChar

StartChar: tbar
Encoding: 359 359 338
GlifName: tbar
Width: 724
VWidth: 0
GlyphClass: 2
Flags: HW
HStem: 0 21G<444 694> 430 197<30 694> 725 275<30 694>
VStem: 30 664<430 627 725 1000> 171 380<323.989 1260>
LayerCount: 2
Fore
SplineSet
30 627 m 261xf0
 694 627 l 261
 694 430 l 261
 30 430 l 261
 30 627 l 261xf0
30 1000 m 257
 694 1000 l 257
 694 725 l 257
 30 725 l 257
 30 1000 l 257
694 316 m 257
 694 0 l 257xf0
 569 0 l 258
 319 0 171 130 171 355 c 258
 171 1260 l 257
 551 1260 l 257
 551 389 l 258xe8
 551 338 574 316 631 316 c 258
 694 316 l 257
EndSplineSet
Substitution2: "ss08StyleSet8inLatinlookup7 subtable" tbar.ss08
EndChar

StartChar: thorn
Encoding: 254 254 340
GlifName: thorn
Width: 1214
VWidth: 0
GlyphClass: 2
Flags: HW
HStem: -326 41G<86 467> -35 318<594 874> 721 318<594 874> 1361 39G<86 467>
VStem: 86 381<-326 1400> 381 86<180 826> 764 387<342 663>
LayerCount: 2
Fore
SplineSet
86 1400 m 257xfa
 467 1400 l 257
 467 -326 l 257
 86 -326 l 257
 86 1400 l 257xfa
381 504 m 256xf6
 381 826 529 1039 756 1039 c 256
 992 1039 1150 826 1150 504 c 256
 1150 180 992 -35 756 -35 c 256
 529 -35 381 180 381 504 c 256xf6
764 504 m 256
 764 641 707 721 615 721 c 256
 521 721 467 641 467 504 c 256xfa
 467 363 521 283 615 283 c 256
 707 283 764 363 764 504 c 256
EndSplineSet
EndChar

StartChar: three
Encoding: 51 51 341
GlifName: three
Width: 1193
VWidth: 0
GlyphClass: 2
Flags: HW
HStem: -16 301<501 712> 520 273<492 750> 580 152<631 738> 1018 299<503 692>
VStem: 631 119<520 580 732 793> 719 385<784 991> 738 385<316 500>
LayerCount: 2
Fore
SplineSet
750 793 m 261xd8
 750 520 l 261
 492 520 l 261
 492 793 l 261
 750 793 l 261xd8
631 580 m 261xb8
 631 793 l 261xd8
 688 793 719 829 719 893 c 260
 719 971 672 1018 598 1018 c 260
 524 1018 479 971 477 891 c 261
 90 891 l 261
 110 1147 316 1316 609 1316 c 260
 896 1316 1104 1153 1104 926 c 260xd4
 1104 711 924 580 631 580 c 261xb8
631 732 m 261xb8
 930 732 1123 586 1123 361 c 260
 1123 136 926 -16 633 -16 c 260
 319 -16 91 162 70 424 c 261
 455 424 l 261
 465 336 521 285 607 285 c 260
 689 285 738 332 738 412 c 260xb2
 738 482 699 520 631 520 c 261xd8
 631 732 l 261xb8
EndSplineSet
Substitution2: "'cv04' Character Variants 04 in Latin lookup 19-1" uni2462
Substitution2: "'cv03' Character Variants 03 in Latin lookup 18-1" uni2778
Substitution2: "'cv02' Character Variants 02 in Latin lookup 17-1" three.cv02
Substitution2: "'cv01' Character Variants 01 in Latin lookup 16-1" three.cv01
Substitution2: "'sups' Superscript in Latin lookup 15-1" uni00B3
Substitution2: "'subs' Subscript in Latin lookup 14-1" uni2083
Substitution2: "'numr' Numerators in Latin lookup 13-1" three.numr
Substitution2: "'dnom' Denominators in Latin lookup 12-1" three.dnom
Substitution2: "'tnum' Tabular Numbers in Latin lookup 11-1" three.tabl
EndChar

StartChar: tildecomb
Encoding: 771 771 342
GlifName: tildecomb
Width: 599
VWidth: 0
GlyphClass: 4
Flags: W
HStem: 992 242<303.866 515.274> 1098 244<81.1562 260.292>
VStem: -141 211<1000 1085.06> 529 205<1246.06 1328>
AnchorPoint: "top1" 312 1000 mark 0
LayerCount: 2
Fore
SplineSet
88 1342 m 256x70
 169 1342 222 1322 316 1271 c 256
 377 1238 398 1234 434 1234 c 256
 494 1234 529 1269 529 1328 c 257
 734 1328 l 257
 734 1123 628 992 461 992 c 256xb0
 394 992 347 1006 271 1049 c 256
 198 1092 183 1098 146 1098 c 256
 100 1098 70 1060 70 1000 c 257
 -141 1000 l 257
 -141 1214 -55 1342 88 1342 c 256x70
EndSplineSet
EndChar

StartChar: two
Encoding: 50 50 343
GlifName: two
Width: 1173
VWidth: 0
GlyphClass: 2
Flags: W
HStem: 0 336<543 1096> 1002 314<493.582 698.458>
VStem: 719 385<820.66 975.939>
LayerCount: 2
Fore
SplineSet
543 336 m 257
 1096 336 l 257
 1096 0 l 257
 70 0 l 257
 70 68 l 258
 70 541 351 663 543 747 c 0
 643 791 719 824 719 891 c 256
 719 963 670 1002 594 1002 c 256
 512 1002 459 944 455 850 c 257
 70 850 l 257
 90 1125 293 1316 570 1316 c 256
 892 1316 1104 1147 1104 891 c 256
 1104 641 888 545 724 473 c 0
 624 429 543 394 543 336 c 257
EndSplineSet
Substitution2: "'cv04' Character Variants 04 in Latin lookup 19-1" uni2461
Substitution2: "'cv03' Character Variants 03 in Latin lookup 18-1" uni2777
Substitution2: "'cv02' Character Variants 02 in Latin lookup 17-1" two.cv02
Substitution2: "'cv01' Character Variants 01 in Latin lookup 16-1" two.cv01
Substitution2: "'sups' Superscript in Latin lookup 15-1" uni00B2
Substitution2: "'subs' Subscript in Latin lookup 14-1" uni2082
Substitution2: "'numr' Numerators in Latin lookup 13-1" two.numr
Substitution2: "'dnom' Denominators in Latin lookup 12-1" two.dnom
Substitution2: "'tnum' Tabular Numbers in Latin lookup 11-1" two.tabl
EndChar

StartChar: u
Encoding: 117 117 344
GlifName: u
Width: 1191
VWidth: 0
GlyphClass: 2
Flags: W
HStem: -39 340<336.5 636> 0 21G<727 1105> 980 20G<86 467 727 1105>
VStem: 86 381<335.159 1000> 727 378<416 1000> 727 78<133 416>
AnchorPoint: "top3" 727 1000 basechar 0
AnchorPoint: "bottom1" 613 0 basechar 0
AnchorPoint: "bottom2" 1105 0 basechar 0
AnchorPoint: "top1" 594 1119 basechar 0
LayerCount: 2
Fore
SplineSet
467 439 m 258xb4
 467 341 518 301 600 301 c 256
 672 301 727 354 727 428 c 257xb8
 805 416 l 257
 805 133 614 -39 438 -39 c 256
 235 -39 86 101 86 359 c 258
 86 1000 l 257
 467 1000 l 257
 467 439 l 258xb4
1105 0 m 257x78
 727 0 l 257x74
 727 1000 l 257
 1105 1000 l 257
 1105 0 l 257x78
EndSplineSet
Substitution2: "ss10StyleSet10inLatinlookup9 subtable" u.ss10
EndChar

StartChar: u.ss10
Encoding: 65602 -1 345
GlifName: u.ss10
Width: 1191
VWidth: 0
GlyphClass: 2
Flags: W
HStem: -16 360<502.237 687.986> 980 20G<86 467 727 1105>
VStem: 86 381<378.834 1000> 727 378<378.834 1000>
AnchorPoint: "bottom2" 732 0 basechar 0
AnchorPoint: "top3" 727 1000 basechar 0
AnchorPoint: "top1" 594 1119 basechar 0
AnchorPoint: "bottom1" 613 0 basechar 0
LayerCount: 2
Fore
SplineSet
86 1000 m 261
 467 1000 l 261
 467 504 l 262
 467 402 516 344 600 344 c 260
 680 344 727 402 727 504 c 262
 727 1000 l 261
 1105 1000 l 261
 1105 504 l 262
 1105 192 903 -16 600 -16 c 260
 291 -16 86 192 86 504 c 262
 86 1000 l 261
EndSplineSet
EndChar

StartChar: underscore
Encoding: 95 95 355
GlifName: underscore
Width: 1279
VWidth: 0
GlyphClass: 2
Flags: HW
HStem: -268 268<51 1230>
LayerCount: 2
Fore
SplineSet
51 0 m 261
 1230 0 l 261
 1230 -268 l 261
 51 -268 l 261
 51 0 l 261
EndSplineSet
EndChar

StartChar: uni0237
Encoding: 567 567 378
GlifName: uni0237
Width: 550
VWidth: 0
GlyphClass: 2
Flags: W
HStem: 980 20G<86 467>
VStem: 86 381<-49.3164 1000>
AnchorPoint: "top1" 283 1119 basechar 0
LayerCount: 2
Fore
SplineSet
-57 -64 m 257
 6 -64 l 258
 63 -64 86 -43 86 8 c 258
 86 1000 l 257
 467 1000 l 257
 467 -4 l 258
 467 -252 318 -400 68 -400 c 258
 -57 -400 l 257
 -57 -64 l 257
EndSplineSet
PickledDataWithLists: "(dp0
Vcom.fontlab.hintData\\u000d\\u000d\\u000d\\u000d\\u000d\\u000d\\u000d\\u000d\\u000d\\u000d\\u000d\\u000d\\u000d\\u000d\\u000d\\u000d\\u000d\\u000d\\u000d\\u000d\\u000d\\u000d\\u000d\\u000d\\u000d\\u000d\\u000d\\u000d\\u000d\\u000d\\u000d\\u000d\\u000d\\u000d\\u000d\\u000d\\u000d\\u000d\\u000d\\u000d\\u000d\\u000d\\u000d\\u000d\\u000d\\u000d\\u000d\\u000d\\u000d\\u000d\\u000d
p1
(dp2
Vhhints\\u000d\\u000d\\u000d\\u000d\\u000d\\u000d\\u000d\\u000d\\u000d\\u000d\\u000d\\u000d\\u000d\\u000d\\u000d\\u000d\\u000d\\u000d\\u000d\\u000d\\u000d\\u000d\\u000d\\u000d\\u000d\\u000d\\u000d\\u000d\\u000d\\u000d\\u000d\\u000d\\u000d\\u000d\\u000d\\u000d\\u000d\\u000d\\u000d\\u000d\\u000d\\u000d\\u000d\\u000d\\u000d\\u000d\\u000d\\u000d\\u000d\\u000d\\u000d
p3
(lp4
(dp5
Vposition\\u000d\\u000d\\u000d\\u000d\\u000d\\u000d\\u000d\\u000d\\u000d\\u000d\\u000d\\u000d\\u000d\\u000d\\u000d\\u000d\\u000d\\u000d\\u000d\\u000d\\u000d\\u000d\\u000d\\u000d\\u000d\\u000d\\u000d\\u000d\\u000d\\u000d\\u000d\\u000d\\u000d\\u000d\\u000d\\u000d\\u000d\\u000d\\u000d\\u000d\\u000d\\u000d\\u000d\\u000d\\u000d\\u000d\\u000d\\u000d\\u000d\\u000d\\u000d
p6
I480
sVwidth\\u000d\\u000d\\u000d\\u000d\\u000d\\u000d\\u000d\\u000d\\u000d\\u000d\\u000d\\u000d\\u000d\\u000d\\u000d\\u000d\\u000d\\u000d\\u000d\\u000d\\u000d\\u000d\\u000d\\u000d\\u000d\\u000d\\u000d\\u000d\\u000d\\u000d\\u000d\\u000d\\u000d\\u000d\\u000d\\u000d\\u000d\\u000d\\u000d\\u000d\\u000d\\u000d\\u000d\\u000d\\u000d\\u000d\\u000d\\u000d\\u000d\\u000d\\u000d
p7
I20
sasVvhints\\u000d\\u000d\\u000d\\u000d\\u000d\\u000d\\u000d\\u000d\\u000d\\u000d\\u000d\\u000d\\u000d\\u000d\\u000d\\u000d\\u000d\\u000d\\u000d\\u000d\\u000d\\u000d\\u000d\\u000d\\u000d\\u000d\\u000d\\u000d\\u000d\\u000d\\u000d\\u000d\\u000d\\u000d\\u000d\\u000d\\u000d\\u000d\\u000d\\u000d\\u000d\\u000d\\u000d\\u000d\\u000d\\u000d\\u000d\\u000d\\u000d\\u000d\\u000d
p8
(lp9
(dp10
g6
I43
sg7
I190
sass."
EndChar

StartChar: uni02BC
Encoding: 700 700 379
GlifName: uni02B_C_
Width: 464
VWidth: 0
GlyphClass: 2
Flags: W
HStem: 686 175<64 265.405> 1006 394<59 285>
VStem: 59 408<794.192 861 1006 1400> 285 182<883.531 1006>
LayerCount: 2
Fore
SplineSet
59 1400 m 257xe0
 467 1400 l 257xe0
 467 941 l 258
 467 779 356 686 168 686 c 258
 64 686 l 257
 64 861 l 257
 105 861 l 258
 228 861 285 889 285 953 c 258
 285 1006 l 257xd0
 59 1006 l 257
 59 1400 l 257xe0
EndSplineSet
EndChar

StartChar: uni0302
Encoding: 770 770 380
GlifName: uni0302
Width: 599
VWidth: 0
GlyphClass: 4
Flags: W
HStem: 1000 342<121 182 422 482>
AnchorPoint: "top1" 312 1000 mark 0
LayerCount: 2
Fore
SplineSet
121 1342 m 261
 482 1342 l 261
 742 1000 l 261
 422 1000 l 261
 303 1174 l 261
 182 1000 l 261
 -139 1000 l 261
 121 1342 l 261
EndSplineSet
EndChar

StartChar: uni0304
Encoding: 772 772 381
GlifName: uni0304
Width: 599
VWidth: 0
GlyphClass: 4
Flags: HW
HStem: 1020 273<-61 660>
AnchorPoint: "top1" 312 1000 mark 0
LayerCount: 2
Fore
SplineSet
-61 1293 m 257
 660 1293 l 257
 660 1020 l 257
 -61 1020 l 257
 -61 1293 l 257
EndSplineSet
EndChar

StartChar: uni0306
Encoding: 774 774 382
GlifName: uni0306
Width: 599
VWidth: 0
GlyphClass: 4
Flags: W
HStem: 986 231<201.665 406.409>
AnchorPoint: "top1" 312 1000 mark 0
LayerCount: 2
Fore
SplineSet
730 1326 m 257
 700 1121 531 986 305 986 c 256
 77 986 -97 1121 -125 1326 c 257
 172 1326 l 257
 184 1256 235 1217 305 1217 c 256
 375 1217 422 1256 434 1326 c 257
 730 1326 l 257
EndSplineSet
EndChar

StartChar: uni0307
Encoding: 775 775 383
GlifName: uni0307
Width: 599
VWidth: 0
GlyphClass: 4
Flags: HW
HStem: 1000 295<102 510>
VStem: 102 408<1000 1295>
AnchorPoint: "top1" 312 1000 mark 0
LayerCount: 2
Fore
SplineSet
112 1355 m 257
 500 1355 l 257
 500 1000 l 257
 112 1000 l 257
 112 1355 l 257
EndSplineSet
Substitution2: "ss03StyleSet3inLatinlookup2 subtable" uni0307.ss03
EndChar

StartChar: uni0307.ss03
Encoding: 65614 -1 384
GlifName: uni0307.ss03
Width: 599
VWidth: 0
GlyphClass: 4
Flags: HW
HStem: 988 432<181 439>
VStem: 94 432<1074 1333>
AnchorPoint: "top1" 312 1000 mark 0
LayerCount: 2
Fore
SplineSet
94 1203 m 256
 94 1322 192 1420 311 1420 c 256
 430 1420 525 1322 525 1203 c 256
 525 1084 430 988 311 988 c 256
 192 988 94 1084 94 1203 c 256
EndSplineSet
EndChar

StartChar: uni0308
Encoding: 776 776 385
GlifName: uni0308
Width: 599
VWidth: 0
GlyphClass: 4
Flags: W
HStem: 986 295<-113 256 365 734>
VStem: -113 369<986 1281> 365 369<986 1281>
AnchorPoint: "top1" 312 1000 mark 0
LayerCount: 2
Fore
SplineSet
365 1281 m 261
 734 1281 l 261
 734 986 l 261
 365 986 l 261
 365 1281 l 261
-113 1281 m 261
 256 1281 l 261
 256 986 l 261
 -113 986 l 261
 -113 1281 l 261
EndSplineSet
Substitution2: "ss03StyleSet3inLatinlookup2 subtable" uni0308.ss03
EndChar

StartChar: uni0308.ss03
Encoding: 65615 -1 386
GlifName: uni0308.ss03
Width: 599
VWidth: 0
GlyphClass: 4
Flags: W
HStem: 988 432<-118.749 139.471 460.529 719.471>
VStem: -205 432<1074.25 1332.47> 373 434<1074.25 1332.47>
AnchorPoint: "top1" 312 1000 mark 0
LayerCount: 2
Fore
SplineSet
-205 1203 m 256
 -205 1322 -109 1420 10 1420 c 256
 129 1420 227 1322 227 1203 c 256
 227 1084 129 988 10 988 c 256
 -109 988 -205 1084 -205 1203 c 256
373 1203 m 256
 373 1322 471 1420 590 1420 c 256
 709 1420 807 1322 807 1203 c 256
 807 1084 709 988 590 988 c 256
 471 988 373 1084 373 1203 c 256
EndSplineSet
EndChar

StartChar: uni030A
Encoding: 778 778 387
GlifName: uni030A_
Width: 599
VWidth: 0
GlyphClass: 4
Flags: HW
HStem: 967 186<246 357> 1266 186<246 360>
VStem: 37 207<1156 1262> 361 209<1155 1263>
AnchorPoint: "top1" 312 1000 mark 0
LayerCount: 2
Fore
SplineSet
244 1209 m 260
 244 1175 269 1152 305 1152 c 260
 339 1152 361 1175 361 1209 c 260
 361 1243 339 1266 303 1266 c 260
 268 1266 244 1243 244 1209 c 260
570 1209 m 260
 570 1064 464 967 305 967 c 260
 145 967 37 1064 37 1209 c 260
 37 1354 144 1451 303 1451 c 260
 463 1451 570 1354 570 1209 c 260
EndSplineSet
EndChar

StartChar: uni030B
Encoding: 779 779 388
GlifName: uni030B_
Width: 599
VWidth: 0
GlyphClass: 4
Flags: HW
HStem: 1000 342<62 182 543 662>
AnchorPoint: "top1" 312 1000 mark 0
LayerCount: 2
Fore
SplineSet
924 1342 m 257
 662 1000 l 257
 383 1000 l 257
 543 1342 l 257
 924 1342 l 257
443 1342 m 257
 182 1000 l 257
 -98 1000 l 257
 62 1342 l 257
 443 1342 l 257
EndSplineSet
EndChar

StartChar: uni030C
Encoding: 780 780 389
GlifName: uni030C_
Width: 599
VWidth: 0
GlyphClass: 4
Flags: W
HStem: 1000 342<121 182 422 482>
AnchorPoint: "top1" 312 1000 mark 0
LayerCount: 2
Fore
SplineSet
482 1000 m 257
 121 1000 l 257
 -139 1342 l 257
 182 1342 l 257
 301 1168 l 257
 422 1342 l 257
 742 1342 l 257
 482 1000 l 257
EndSplineSet
EndChar

StartChar: uni0312
Encoding: 786 786 390
GlifName: uni0312
Width: 599
VWidth: 0
GlyphClass: 4
Flags: HW
HStem: 1000 395<277 506> 1537 178<299 500>
VStem: 98 408<1000 1395 1537 1605> 98 180<1395 1515>
AnchorPoint: "top1" 312 1000 mark 0
LayerCount: 2
Fore
SplineSet
506 1000 m 257xe0
 98 1000 l 257xe0
 98 1457 l 258
 98 1619 208 1715 396 1715 c 258
 500 1715 l 257
 500 1537 l 257
 457 1537 l 258
 334 1537 277 1509 277 1445 c 258
 277 1395 l 257xd0
 506 1395 l 257
 506 1000 l 257xe0
EndSplineSet
Substitution2: "ss03StyleSet3inLatinlookup2 subtable" uni0312.ss03
EndChar

StartChar: uni0312.ss03
Encoding: 65616 -1 391
GlifName: uni0312.ss03
Width: 599
VWidth: 0
GlyphClass: 4
Flags: HW
HStem: 1000 432<299 461> 1561 176<324 518>
VStem: 115 434<1087 1346> 115 182<1430 1530>
AnchorPoint: "top1" 312 1000 mark 0
LayerCount: 2
Fore
SplineSet
549 1217 m 256xe0
 549 1098 451 1000 332 1000 c 256
 213 1000 115 1098 115 1217 c 258xe0
 115 1461 l 258
 115 1635 226 1736 414 1736 c 258
 518 1736 l 257
 518 1561 l 257
 477 1561 l 258
 354 1561 297 1525 297 1447 c 258
 297 1430 l 257xd0
 309 1432 320 1432 332 1432 c 256
 451 1432 549 1336 549 1217 c 256xe0
EndSplineSet
EndChar

StartChar: uni0313
Encoding: 787 787 392
GlifName: uni0313
Width: 599
VWidth: 0
GlyphClass: 4
Flags: HW
HStem: 1000 176<104 304> 1320 395<98 326>
VStem: 98 408<1109 1176 1320 1715> 326 180<1198 1320>
AnchorPoint: "top1" 312 1000 mark 0
LayerCount: 2
Fore
SplineSet
98 1715 m 257xe0
 506 1715 l 257xe0
 506 1256 l 258
 506 1094 395 1000 207 1000 c 258
 104 1000 l 257
 104 1176 l 257
 146 1176 l 258
 269 1176 326 1204 326 1268 c 258
 326 1320 l 257xd0
 98 1320 l 257
 98 1715 l 257xe0
EndSplineSet
Substitution2: "ss03StyleSet3inLatinlookup2 subtable" uni0313.ss03
EndChar

StartChar: uni0313.ss03
Encoding: 65617 -1 393
GlifName: uni0313.ss03
Width: 599
VWidth: 0
GlyphClass: 4
Flags: HW
HStem: 1000 176<146 340> 1305 41G<272 338>
VStem: 115 434<1391 1649> 367 182<1206 1307>
AnchorPoint: "top1" 312 1000 mark 0
LayerCount: 2
Fore
SplineSet
115 1520 m 256xe0
 115 1639 213 1736 332 1736 c 256
 451 1736 549 1639 549 1520 c 258xe0
 549 1275 l 258
 549 1101 438 1000 250 1000 c 258
 146 1000 l 257
 146 1176 l 257
 188 1176 l 258
 311 1176 367 1209 367 1287 c 258
 367 1307 l 257xd0
 355 1305 344 1305 332 1305 c 256
 213 1305 115 1401 115 1520 c 256xe0
EndSplineSet
EndChar

StartChar: uni0315
Encoding: 789 789 394
GlifName: uni0315
Width: 599
VWidth: 0
GlyphClass: 4
Flags: W
HStem: 1000 566<324 562>
VStem: 248 400
AnchorPoint: "top2" 248 1000 mark 0
LayerCount: 2
Fore
SplineSet
324 1566 m 257
 648 1566 l 257
 562 1000 l 257
 248 1000 l 257
 324 1566 l 257
EndSplineSet
EndChar

StartChar: uni031B
Encoding: 795 795 395
GlifName: uni031B_
Width: 599
VWidth: 0
GlyphClass: 4
Flags: W
HStem: 900 196<152 440.388>
VStem: 453 281<1108.41 1340>
AnchorPoint: "top3" 152 1096 mark 0
LayerCount: 2
Fore
SplineSet
152 1096 m 257
 354 1096 l 258
 411 1096 453 1115 453 1207 c 258
 453 1340 l 257
 734 1340 l 257
 734 1195 l 258
 734 968 547 900 377 900 c 258
 152 900 l 257
 152 1096 l 257
EndSplineSet
EndChar

StartChar: uni0326
Encoding: 806 806 396
GlifName: uni0326
Width: 599
VWidth: 0
GlyphClass: 4
Flags: W
HStem: -770 176<113 316.22> -449 392<107 336>
VStem: 107 409<-661.103 -594 -449 -57> 336 180<-571.512 -449>
AnchorPoint: "bottom1" 320 0 mark 0
LayerCount: 2
Fore
SplineSet
107 -57 m 257xe0
 516 -57 l 257xe0
 516 -514 l 258
 516 -676 407 -770 219 -770 c 258
 113 -770 l 257
 113 -594 l 257
 156 -594 l 258
 279 -594 336 -566 336 -502 c 258
 336 -449 l 257xd0
 107 -449 l 257
 107 -57 l 257xe0
EndSplineSet
Substitution2: "ss03StyleSet3inLatinlookup2 subtable" uni0326.ss03
EndChar

StartChar: uni0326.ss03
Encoding: 65618 -1 397
GlifName: uni0326.ss03
Width: 599
VWidth: 0
GlyphClass: 4
Flags: W
HStem: -812 175<135 327.784>
VStem: 104 431<-421.749 -163.529> 355 180<-604.105 -506>
AnchorPoint: "bottom1" 320 0 mark 0
LayerCount: 2
Fore
SplineSet
104 -293 m 256xc0
 104 -174 201 -76 320 -76 c 256
 439 -76 535 -174 535 -293 c 258xc0
 535 -535 l 258
 535 -709 426 -812 238 -812 c 258
 135 -812 l 257
 135 -637 l 257
 176 -637 l 258
 299 -637 355 -601 355 -523 c 258
 355 -506 l 257xa0
 343 -508 332 -508 320 -508 c 256
 201 -508 104 -412 104 -293 c 256xc0
EndSplineSet
EndChar

StartChar: uni0327
Encoding: 807 807 398
GlifName: uni0327
Width: 599
VWidth: 0
GlyphClass: 4
Flags: HW
HStem: -486 201<133 316>
VStem: 316 227<-350 -213>
AnchorPoint: "bottom1" 320 0 mark 0
LayerCount: 2
Fore
SplineSet
234 20 m 257
 428 20 l 257
 355 -90 l 257
 365 -90 l 258
 471 -90 543 -172 543 -291 c 256
 543 -410 468 -486 350 -486 c 258
 133 -486 l 257
 133 -285 l 257
 275 -285 l 258
 301 -285 316 -273 316 -252 c 256
 316 -226 297 -211 264 -211 c 258
 201 -211 l 257
 152 -131 l 257
 234 20 l 257
EndSplineSet
EndChar

StartChar: uni0328
Encoding: 808 808 399
GlifName: uni0328
Width: 599
VWidth: 0
GlyphClass: 4
Flags: W
HStem: -531 279<241.104 477> -20 20G<108 393>
VStem: -35 265<-353 -125.35>
AnchorPoint: "bottom2" 393 0 mark 0
LayerCount: 2
Fore
SplineSet
393 0 m 257
 258 -70 230 -112 230 -174 c 260
 230 -225 266 -252 334 -252 c 258
 477 -252 l 257
 477 -531 l 257
 318 -531 l 258
 103 -531 -35 -431 -35 -275 c 260
 -35 -132 58 -53 158 0 c 257
 393 0 l 257
EndSplineSet
EndChar

StartChar: uni1E9E
Encoding: 7838 7838 400
GlifName: uni1E_9E_
Width: 1369
VWidth: 0
GlyphClass: 2
Flags: HW
HStem: 0 301<643 951> 1047 295<573 1057>
VStem: 90 381<0 942> 975 365<329 474>
LayerCount: 2
Fore
SplineSet
1293 881 m 257
 1139 979 972 1047 773 1047 c 256
 560 1047 471 962 471 771 c 258
 471 0 l 257
 90 0 l 257
 90 783 l 258
 90 1150 321 1342 768 1342 c 256
 969 1342 1139 1289 1293 1211 c 257
 1293 881 l 257
1068 734 m 257
 1234 701 1340 569 1340 383 c 256
 1340 154 1166 0 902 0 c 258
 643 0 l 257
 643 301 l 257
 807 301 l 258
 914 301 975 336 975 400 c 256
 975 466 912 504 801 504 c 258
 662 504 l 257
 662 783 l 257
 1031 1064 l 257
 1293 881 l 257
 1068 734 l 257
EndSplineSet
EndChar

StartChar: uni1EA1.ss01.ss03
Encoding: 65621 -1 405
GlifName: uni1E_A_1.ss01.ss03
Width: 1214
VWidth: 0
GlyphClass: 2
Flags: HW
HStem: -523 432<513 771> -35 318<343 622> 721 318<343 624>
VStem: 66 385<342 663> 426 432<-437 -179> 750 86<180 826>
AnchorPoint: "top1" 615 1119 basechar 0
LayerCount: 2
Fore
SplineSet
426 -309 m 256xe8
 426 -190 524 -92 643 -92 c 256
 762 -92 857 -190 857 -309 c 256
 857 -428 762 -523 643 -523 c 256
 524 -523 426 -428 426 -309 c 256xe8
EndSplineSet
Refer: 132 -1 N 1 0 0 1 0 0 2
EndChar

StartChar: uni201F
Encoding: 8223 8223 528
GlifName: uni201F_
Width: 1101
VWidth: 0
GlyphClass: 2
Flags: HW
HStem: 1006 395<230 471 781 1021>
VStem: 62 408<1006 1400> 613 408<1006 1400>
LayerCount: 2
Fore
SplineSet
1021 1400 m 257
 1021 1006 l 257
 781 1006 l 257
 1031 637 l 257
 770 637 l 257
 613 1006 l 257
 613 1400 l 257
 1021 1400 l 257
471 1400 m 257
 471 1006 l 257
 230 1006 l 257
 480 637 l 257
 219 637 l 257
 62 1006 l 257
 62 1400 l 257
 471 1400 l 257
EndSplineSet
Substitution2: "ss03StyleSet3inLatinlookup2 subtable" uni201F.ss03
EndChar

StartChar: uni201F.ss03
Encoding: 65658 -1 529
GlifName: uni201F_.ss03
Width: 1101
VWidth: 0
GlyphClass: 2
Flags: HW
HStem: 641 176<90 276 641 826> 969 432<147 308 697 859>
VStem: 61 432<1055 1313> 312 180<849 971> 609 434<1055 1313> 861 182<849 971>
LayerCount: 2
Fore
SplineSet
1042 1214 m 256xe0
 1042 1100.53488372 947 1009 828 1009 c 256
 816 1009 803 1009 791 1011 c 257xd0
 791 991 l 258
 791 910.925925926 847 876 970 876 c 258
 1013 876 l 257
 1013 701 l 257
 910 701 l 258
 722 701 611 802.684563758 611 979 c 258
 611 1214 l 258xe0
 611 1327.49074074 709 1420 828 1420 c 256
 947 1420 1042 1327.49074074 1042 1214 c 256xe0
492 1214 m 256xe0
 492 1100.53488372 397 1009 278 1009 c 256
 266 1009 253 1009 241 1011 c 257xd0
 241 991 l 258
 241 910.925925926 297 876 420 876 c 258
 463 876 l 257
 463 701 l 257
 360 701 l 258
 172 701 61 802.684563758 61 979 c 258
 61 1214 l 258xe0
 61 1327.49074074 159 1420 278 1420 c 256
 397 1420 492 1327.49074074 492 1214 c 256xe0
EndSplineSet
EndChar

StartChar: uni2034
Encoding: 8244 8244 530
GlifName: uni2034
Width: 1800
VWidth: -99
GlyphClass: 2
Flags: HW
HStem: 900 400<730 770 1242 1281 1754 1793>
LayerCount: 2
Fore
SplineSet
730 1301 m 257
 350 900 l 257
 51 900 l 257
 311 1301 l 257
 730 1301 l 257
1754 1301 m 257
 1373 900 l 257
 1074 900 l 257
 1334 1301 l 257
 1754 1301 l 257
1242 1301 m 257
 861 900 l 257
 562 900 l 257
 822 1301 l 257
 1242 1301 l 257
EndSplineSet
EndChar

StartChar: uni2035
Encoding: 8245 8245 531
GlifName: uni2035
Width: 779
VWidth: -99
GlyphClass: 2
Flags: HW
HStem: 900 400<430 471>
LayerCount: 2
Fore
SplineSet
51 1301 m 257
 471 1301 l 257
 730 900 l 257
 430 900 l 257
 51 1301 l 257
EndSplineSet
EndChar

StartChar: uni2036
Encoding: 8246 8246 532
GlifName: uni2036
Width: 1289
VWidth: -99
GlyphClass: 2
Flags: HW
HStem: 900 400<521 562 1033 1074>
LayerCount: 2
Fore
SplineSet
51 1301 m 257
 471 1301 l 257
 730 900 l 257
 430 900 l 257
 51 1301 l 257
562 1301 m 257
 982 1301 l 257
 1242 900 l 257
 941 900 l 257
 562 1301 l 257
EndSplineSet
EndChar

StartChar: uni2037
Encoding: 8247 8247 533
GlifName: uni2037
Width: 1800
VWidth: -99
GlyphClass: 2
Flags: HW
HStem: 900 400<521 562 1033 1074 1545 1586>
LayerCount: 2
Fore
SplineSet
1074 1301 m 257
 1494 1301 l 257
 1754 900 l 257
 1453 900 l 257
 1074 1301 l 257
51 1301 m 257
 471 1301 l 257
 730 900 l 257
 430 900 l 257
 51 1301 l 257
562 1301 m 257
 982 1301 l 257
 1242 900 l 257
 941 900 l 257
 562 1301 l 257
EndSplineSet
EndChar

StartChar: uogonek
Encoding: 371 371 534
GlifName: uogonek
Width: 1191
VWidth: 0
GlyphClass: 2
Flags: HW
HStem: -531 279<956 1191> -39 39G<823 1107> -39 340<336 636> 0 41G<727 1105> 961 39G<86 467 727 1105>
VStem: 86 381<336 1000> 680 266<-354 -125> 727 78<133 416> 727 379<416 1000>
LayerCount: 2
Fore
SplineSet
1082 0 m 257
 979.910106434 -21.8966377777 921 -77.0791248993 921 -150.8125 c 256
 921 -217.519327821 965.980345671 -252 1053 -252 c 258
 1106 -252 l 257
 1106 -511 l 257
 1037 -511 l 258
 764.295147505 -511 598 -403.559742143 598 -227.370117188 c 256
 598 -136.665053037 641.234013235 -60.4625518296 727 0 c 257
 1082 0 l 257
467 439 m 258xb4
 467 341 518 301 600 301 c 256
 672 301 727 354 727 428 c 257xb8
 805 416 l 257
 805 133 614 -39 438 -39 c 256
 235 -39 86 101 86 359 c 258
 86 1000 l 257
 467 1000 l 257
 467 439 l 258xb4
1105 0 m 257x78
 727 0 l 257x74
 727 1000 l 257
 1105 1000 l 257
 1105 0 l 257x78
EndSplineSet
Substitution2: "ss10StyleSet10inLatinlookup9 subtable" uogonek.ss10
EndChar

StartChar: v
Encoding: 118 118 537
GlifName: v
Width: 1142
VWidth: 0
GlyphClass: 2
Flags: W
HStem: 0 21G<345.56 794.48> 980 20G<30 426.521 710.749 1112>
LayerCount: 2
Fore
SplineSet
30 1000 m 261
 422 1000 l 261
 573 332 l 261
 715 1000 l 261
 1112 1000 l 261
 788 0 l 261
 352 0 l 261
 30 1000 l 261
EndSplineSet
EndChar

StartChar: w
Encoding: 119 119 538
GlifName: w
Width: 1777
VWidth: 0
GlyphClass: 2
Flags: HW
HStem: 0 41G<302 775 1004 1461> 961 39G<30 429 660 1111 1345 1747>
AnchorPoint: "top1" 879 1119 basechar 0
LayerCount: 2
Fore
SplineSet
30 1000 m 261
 422 1000 l 261
 536 361 l 261
 668 1000 l 261
 1102 1000 l 261
 1245 361 l 261
 1352 1000 l 261
 1747 1000 l 261
 1450 0 l 261
 1012 0 l 261
 877 627 l 261
 768 0 l 261
 313 0 l 261
 30 1000 l 261
EndSplineSet
EndChar

StartChar: x
Encoding: 120 120 540
GlifName: x
Width: 1120
VWidth: 0
GlyphClass: 2
Flags: W
HStem: 0 21G<30 432.608 688.874 1090> 980 20G<30 431.126 687.392 1090>
LayerCount: 2
Fore
SplineSet
30 1000 m 261
 422 1000 l 261
 563 691 l 261
 696 1000 l 261
 1090 1000 l 261
 844 500 l 261
 1090 0 l 261
 698 0 l 261
 557 309 l 261
 424 0 l 261
 30 0 l 261
 276 500 l 261
 30 1000 l 261
EndSplineSet
EndChar

StartChar: y
Encoding: 121 121 541
GlifName: y
Width: 1181
VWidth: 0
GlyphClass: 2
Flags: HW
HStem: -367 322<100 328> 961 39G<30 434 744 1151>
AnchorPoint: "bottom1" 1053 0 basechar 0
AnchorPoint: "top1" 594 1119 basechar 0
LayerCount: 2
Fore
SplineSet
100 -45 m 257
 169 -45 l 258
 284 -45 332.993288591 -28.7046979866 352 20 c 258
 368 61 l 257
 30 1000 l 257
 422 1000 l 257
 592 412 l 257
 754 1000 l 257
 1151 1000 l 257
 799 -12 l 258
 713.293423272 -258.406408094 564 -367 292 -367 c 258
 100 -367 l 257
 100 -45 l 257
EndSplineSet
Substitution2: "ss07StyleSet7inLatinlookup6 subtable" y.ss07
EndChar

StartChar: y.ss07
Encoding: 65659 -1 542
GlifName: y.ss07
Width: 1181
VWidth: 0
GlyphClass: 2
Flags: HW
HStem: 961 39G<30 434 744 1151>
AnchorPoint: "top1" 594 1119 basechar 0
AnchorPoint: "bottom1" 1053 0 basechar 0
LayerCount: 2
Fore
SplineSet
254 -352 m 257
 387 21 l 257
 30 1000 l 257
 422 1000 l 257
 592 462 l 261
 754 1000 l 257
 1151 1000 l 257
 668 -352 l 257
 254 -352 l 257
EndSplineSet
EndChar

StartChar: z
Encoding: 122 122 548
GlifName: z
Width: 1042
VWidth: 0
GlyphClass: 2
Flags: W
HStem: 0 275<520 957> 725 275<86 521>
AnchorPoint: "top1" 539 1119 basechar 0
LayerCount: 2
Fore
SplineSet
86 1000 m 261
 957 1000 l 261
 957 664 l 261
 520 275 l 261
 957 275 l 261
 957 0 l 261
 86 0 l 261
 86 336 l 261
 521 725 l 261
 86 725 l 261
 86 1000 l 261
EndSplineSet
EndChar

StartChar: zero
Encoding: 48 48 553
GlifName: zero
Width: 1289
VWidth: 0
GlyphClass: 2
Flags: W
HStem: -16 340<530.617 760.192> 980 340<542.89 748.688>
VStem: 70 385<417.289 879.053> 834 387<406.746 881.874>
LayerCount: 2
Fore
SplineSet
70 635 m 260
 70 1067 285 1320 646 1320 c 260
 1007 1320 1221 1067 1221 635 c 260
 1221 225 1007 -16 646 -16 c 260
 283 -16 70 225 70 635 c 260
834 635 m 260
 834 865 773 980 646 980 c 260
 519 980 455 865 455 635 c 260
 455 428 517 324 646 324 c 260
 773 324 834 428 834 635 c 260
EndSplineSet
Substitution2: "'cv04' Character Variants 04 in Latin lookup 19-1" uni24EA
Substitution2: "'cv03' Character Variants 03 in Latin lookup 18-1" uni24FF
Substitution2: "'cv02' Character Variants 02 in Latin lookup 17-1" zero.cv02
Substitution2: "'cv01' Character Variants 01 in Latin lookup 16-1" zero.cv01
Substitution2: "'sups' Superscript in Latin lookup 15-1" uni2070
Substitution2: "'subs' Subscript in Latin lookup 14-1" uni2080
Substitution2: "'numr' Numerators in Latin lookup 13-1" zero.numr
Substitution2: "'dnom' Denominators in Latin lookup 12-1" zero.dnom
Substitution2: "'zero' Slashed Zero in Latin lookup 10-1" zero.slsh
Substitution2: "'tnum' Tabular Numbers in Latin lookup 11-1" zero.tabl
EndChar

StartChar: tbar.ss08
Encoding: 65679 -1 571
GlifName: tbar.ss08
Width: 755
VWidth: 0
Flags: HW
HStem: 0 41G<188 568> 430 197<47 711> 703 297<47 711>
VStem: 47 664<430 627 703 1000> 188 381<0 1260>
LayerCount: 2
Fore
SplineSet
47 627 m 261xf0
 711 627 l 261
 711 430 l 261
 47 430 l 261
 47 627 l 261xf0
47 1000 m 257
 711 1000 l 257
 711 703 l 257
 47 703 l 257
 47 1000 l 257
188 0 m 257xe8
 188 1260 l 257
 568 1260 l 257
 568 0 l 257
 188 0 l 257xe8
EndSplineSet
EndChar

StartChar: Gdotaccent.ss03.ss04
Encoding: 65706 -1 590
GlifName: G_dotaccent.ss03.ss04
Width: 1373
VWidth: 0
Flags: HW
HStem: -16 340<569 839> 463 301<641 891> 982 338<565 840> 1389 432<527 785>
VStem: 70 385<455 863> 439 432<1476 1734>
LayerCount: 2
Fore
SplineSet
439 1605 m 256xf4
 439 1724 537 1820 656 1820 c 256
 775 1820 871 1724 871 1605 c 256
 871 1486 775 1389 656 1389 c 256
 537 1389 439 1486 439 1605 c 256xf4
EndSplineSet
Refer: 39 -1 N 1 0 0 1 0 0 3
Decomposition: "G+AwcA"
EndChar

StartChar: uni0122.ss03.ss04
Encoding: 65707 -1 591
GlifName: uni0122.ss03.ss04
Width: 1373
VWidth: 0
Flags: HW
HStem: -812 176<518 711> -16 340<569 839> 463 301<641 891> 982 338<565 840>
VStem: 70 385<455 863> 488 432<-422 -164> 740 180<-604 -506>
LayerCount: 2
Fore
SplineSet
488 -293 m 260xfc
 488 -174 584 -76 703 -76 c 260
 822 -76 920 -174 920 -293 c 262xfc
 920 -535 l 262
 920 -709 809 -812 621 -812 c 262
 518 -812 l 261
 518 -637 l 261
 561 -637 l 262
 684 -637 740 -601 740 -523 c 262
 740 -506 l 261xfa
 728 -508 715 -508 703 -508 c 260
 584 -508 488 -412 488 -293 c 260xfc
EndSplineSet
Refer: 39 -1 N 1 0 0 1 0 0 3
EndChar

StartChar: uni0156.ss03.ss05
Encoding: 65708 -1 592
GlifName: uni0156.ss03.ss05
Width: 1251
VWidth: 0
Flags: HW
HStem: -812 176<451 646> 0 41G<90 471 788 1229> 418 107<580 947> 418 316<471 756> 984 316<471 778>
VStem: 90 381<0 418 734 984> 422 432<-422 -164> 674 180<-604 -506> 807 375<761 955>
LayerCount: 2
Fore
SplineSet
422 -293 m 256xca
 422 -174 520 -76 639 -76 c 256
 758 -76 854 -174 854 -293 c 258xca
 854 -535 l 258
 854 -709 745 -812 557 -812 c 258
 451 -812 l 257
 451 -637 l 257
 494 -637 l 258
 617 -637 674 -601 674 -523 c 258
 674 -506 l 257xc9
 662 -508 651 -508 639 -508 c 256
 520 -508 422 -412 422 -293 c 256xca
EndSplineSet
Refer: 91 -1 N 1 0 0 1 0 0 3
EndChar

StartChar: uni1EF5.ss03.ss07
Encoding: 65709 -1 593
GlifName: uni1E_F_5.ss03.ss07
Width: 1181
VWidth: 0
Flags: HW
HStem: -523 432<923 1181> 961 39G<51 455 765 1172>
VStem: 836 432<-437 -179>
LayerCount: 2
Fore
SplineSet
836 -309 m 260
 836 -190 934 -92 1053 -92 c 260
 1172 -92 1268 -190 1268 -309 c 260
 1268 -428 1172 -523 1053 -523 c 260
 934 -523 836 -428 836 -309 c 260
EndSplineSet
Refer: 542 -1 N 1 0 0 1 0 0 3
EndChar

StartChar: ydieresis.ss03.ss07
Encoding: 65710 -1 594
GlifName: ydieresis.ss03.ss07
Width: 1181
VWidth: 0
Flags: HW
HStem: 961 39G<51 455 765 1172> 1104 432<193 451 773 1031>
VStem: 105 432<1191 1449> 686 432<1191 1449>
LayerCount: 2
Fore
SplineSet
105 1320 m 260
 105 1439 203 1535 322 1535 c 260
 441 1535 537 1439 537 1320 c 260
 537 1201 441 1104 322 1104 c 260
 203 1104 105 1201 105 1320 c 260
686 1320 m 260
 686 1439 783 1535 902 1535 c 260
 1021 1535 1117 1439 1117 1320 c 260
 1117 1201 1021 1104 902 1104 c 260
 783 1104 686 1201 686 1320 c 260
EndSplineSet
Refer: 542 -1 N 1 0 0 1 0 0 3
EndChar

StartChar: udieresis.ss03.ss10
Encoding: 65711 -1 595
GlifName: udieresis.ss03.ss10
Width: 1191
VWidth: 0
Flags: W
HStem: -16 360<502.237 687.986> 980 20G<86 467 727 1105> 1104 431<171.529 429.749 751.529 1009.75>
VStem: 84 432<1190.89 1448.75> 86 381<378.834 1000> 664 432<1190.89 1448.75> 727 378<378.834 1000>
LayerCount: 2
Fore
SplineSet
84 1320 m 260xf0
 84 1439 182 1535 301 1535 c 260
 420 1535 516 1439 516 1320 c 260
 516 1201 420 1104 301 1104 c 260
 182 1104 84 1201 84 1320 c 260xf0
664 1320 m 260xe4
 664 1439 762 1535 881 1535 c 260
 1000 1535 1096 1439 1096 1320 c 260
 1096 1201 1000 1104 881 1104 c 260
 762 1104 664 1201 664 1320 c 260xe4
EndSplineSet
Refer: 345 -1 N 1 0 0 1 0 0 3
EndChar

StartChar: uni1EE5.ss03.ss10
Encoding: 65712 -1 596
GlifName: uni1E_E_5.ss03.ss10
Width: 1191
VWidth: 0
Flags: HW
HStem: -523 432<486 745> -16 359<502 688> 961 39G<86 467 727 1105>
VStem: 86 381<379 1000> 400 432<-437 -179> 727 379<379 1000>
LayerCount: 2
Fore
SplineSet
400 -309 m 260xe8
 400 -190 496 -92 615 -92 c 260
 734 -92 832 -190 832 -309 c 260
 832 -428 734 -523 615 -523 c 260
 496 -523 400 -428 400 -309 c 260xe8
EndSplineSet
Refer: 345 -1 N 1 0 0 1 0 0 3
EndChar

StartChar: uni1EF1.ss03.ss10
Encoding: 65713 -1 597
GlifName: uni1E_F_1.ss03.ss10
Width: 1279
Flags: HW
HStem: -523 432<486 745> -16 359<502 688> 805 195<727 1007> 961 39G<86 467 727 1105>
VStem: 86 381<379 1000> 400 432<-437 -179> 727 379<379 1000> 1027 281<1013 1244>
LayerCount: 2
Fore
SplineSet
400 -309 m 256xc4
 400 -190 496 -92 615 -92 c 256
 734 -92 832 -190 832 -309 c 256
 832 -428 734 -523 615 -523 c 256
 496 -523 400 -428 400 -309 c 256xc4
EndSplineSet
Refer: 582 -1 N 1 0 0 1 0 0 3
EndChar

StartChar: zero.slsh
Encoding: 65714 -1 598
GlifName: zero.slsh
Width: 1289
VWidth: 0
Flags: HW
HStem: -16 340<494 761> 980 340<543 749>
VStem: 70 385<506 879> 834 387<407 756>
LayerCount: 2
Fore
SplineSet
889 1043 m 257
 1020 922 l 257
 389 211 l 257
 256 330 l 257
 889 1043 l 257
70 635 m 256
 70 1067 285 1320 646 1320 c 256
 1007 1320 1221 1067 1221 635 c 256
 1221 225 1007 -16 646 -16 c 256
 283 -16 70 225 70 635 c 256
834 635 m 256
 834 865 773 980 646 980 c 256
 519 980 455 865 455 635 c 256
 455 428 517 324 646 324 c 256
 773 324 834 428 834 635 c 256
EndSplineSet
Substitution2: "'tnum' Tabular Numbers in Latin lookup 11-1" zero.slsh.tabl
EndChar

StartChar: zero.tabl
Encoding: 65715 -1 599
GlifName: zero.tabl
Width: 1250
VWidth: 0
Flags: HW
HStem: -16 340<527 726> 980 340<531 722>
VStem: 70 385<404 893> 795 385<404 893>
LayerCount: 2
Fore
SplineSet
70 635 m 256
 70 1067 277 1320 627 1320 c 260
 977 1320 1180 1067 1180 635 c 260
 1180 225 977 -16 627 -16 c 260
 275 -16 70 225 70 635 c 256
795 635 m 260
 795 865 740 980 627 980 c 260
 514 980 455 865 455 635 c 256
 455 428 512 324 627 324 c 260
 740 324 795 428 795 635 c 260
EndSplineSet
Substitution2: "'zero' Slashed Zero in Latin lookup 10-1" zero.tabl.slsh
EndChar

StartChar: one.tabl
Encoding: 65716 -1 600
GlifName: one.tabl
Width: 1250
VWidth: 0
Flags: HW
HStem: 0 336<162 451 830 1088> 760 326<162 424> 1262 39G<451 830>
VStem: 451 379<336 760 1113 1301>
LayerCount: 2
Fore
SplineSet
451 1301 m 1
 830 1301 l 1
 830 336 l 1
 1088 336 l 1
 1088 0 l 1
 162 0 l 1
 162 336 l 1
 451 336 l 1
 451 760 l 1
 162 760 l 1
 162 1086 l 1
 291 1086 l 2
 395 1086 451 1117 451 1221 c 2
 451 1301 l 1
EndSplineSet
EndChar

StartChar: two.tabl
Encoding: 65717 -1 601
GlifName: two.tabl
Width: 1250
VWidth: 0
Flags: HW
HStem: 0 336<580 1135> 1002 314<538 736>
VStem: 756 387<815 976>
LayerCount: 2
Fore
SplineSet
580 336 m 257
 1135 336 l 257
 1135 0 l 257
 107 0 l 257
 107 68 l 257
 107 484 324 629 508 715 c 256
 641 777 756 809 756 891 c 256
 756 963 709 1002 633 1002 c 256
 551 1002 498 944 494 850 c 257
 107 850 l 257
 127 1125 330 1316 607 1316 c 256
 929 1316 1143 1147 1143 891 c 256
 1143 676 982 576 834 506 c 256
 703 444 580 408 580 336 c 257
EndSplineSet
EndChar

StartChar: three.tabl
Encoding: 65718 -1 602
GlifName: three.tabl
Width: 1250
VWidth: 0
Flags: HW
HStem: -16 301<529 740> 520 273<520 777> 580 152<658 765> 1018 299<532 720>
VStem: 658 119<520 580 732 793> 766 387<310 500>
LayerCount: 2
Fore
SplineSet
777 793 m 257xd8
 777 520 l 257
 520 520 l 257
 520 793 l 257
 777 793 l 257xd8
658 580 m 257xb8
 658 793 l 257xd8
 715 793 746 829 746 893 c 256
 746 971 701 1018 627 1018 c 256
 553 1018 506 971 504 891 c 257
 117 891 l 257
 137 1147 346 1316 639 1316 c 256
 926 1316 1133 1153 1133 926 c 256
 1133 711 951 580 658 580 c 257xb8
658 732 m 257xb8
 957 732 1152 586 1152 361 c 256
 1152 136 953 -16 660 -16 c 256
 346 -16 119 162 98 424 c 257
 484 424 l 257
 494 336 551 285 637 285 c 256
 719 285 766 332 766 412 c 256xb4
 766 482 726 520 658 520 c 257xd8
 658 732 l 257xb8
EndSplineSet
EndChar

StartChar: four.tabl
Encoding: 65719 -1 603
GlifName: four.tabl
Width: 1250
VWidth: 0
Flags: HW
HStem: 0 41G<672 1031> 264 314<438 672 1031 1195> 1262 39G<522 1031>
VStem: 672 359<0 264 578 893>
LayerCount: 2
Fore
SplineSet
1031 264 m 257
 1031 0 l 257
 672 0 l 257
 672 264 l 257
 55 264 l 257
 55 658 l 257
 553 1301 l 257
 1031 1301 l 257
 1031 578 l 257
 1195 578 l 257
 1195 264 l 257
 1031 264 l 257
672 578 m 257
 672 893 l 257
 438 578 l 257
 672 578 l 257
EndSplineSet
EndChar

StartChar: five.tabl
Encoding: 65720 -1 604
GlifName: five.tabl
Width: 1250
VWidth: 0
Flags: HW
HStem: -16 320<516 730> 611 275<597 884>
VStem: 766 387<337 569>
LayerCount: 2
Fore
SplineSet
766 449 m 256
 766 355 717 305 627 305 c 256
 543 305 488 350 484 424 c 257
 98 424 l 257
 118 162 336 -16 641 -16 c 256
 953 -16 1152 168 1152 453 c 256
 1152 709 996 887 771 887 c 256
 652 887 552 836 488 744 c 257
 520 986 l 257
 1105 986 l 257
 1105 1303 l 257
 178 1303 l 257
 98 535 l 257
 477 535 l 257
 504 586 553 611 615 611 c 256
 709 611 766 551 766 449 c 256
EndSplineSet
EndChar

StartChar: six.tabl
Encoding: 65721 -1 605
GlifName: six.tabl
Width: 1250
VWidth: 0
Flags: HW
HStem: -16 281<567 763> 570 281<593 898> 1039 281<568 757>
VStem: 94 387<705 925> 801 387<302 533>
LayerCount: 2
Fore
SplineSet
78 666 m 256
 78 1105 289 1320 641 1320 c 256
 918 1320 1109 1174 1156 926 c 257
 770 926 l 257
 758 988 715 1021 643 1021 c 256
 538 1021 465 935 465 730 c 256
 465 722 465 715 465 707 c 257
 516 797 631 854 766 854 c 256
 1000 854 1172 676 1172 434 c 256
 1172 170 965 -16 664 -16 c 256
 305 -16 78 248 78 666 c 256
508 422 m 256
 508 338 568 277 652 277 c 256
 732 277 787 332 787 418 c 256
 787 504 732 561 648 561 c 256
 564 561 508 504 508 422 c 256
EndSplineSet
EndChar

StartChar: seven.tabl
Encoding: 65722 -1 606
GlifName: seven.tabl
Width: 1250
VWidth: 0
Flags: HW
VStem: 305 457<0 365>
LayerCount: 2
Fore
SplineSet
762 0 m 257
 762 426 856 711 1137 924 c 257
 1137 1301 l 257
 113 1301 l 257
 113 943 l 257
 717 943 l 257
 501 744 324 498 324 0 c 261
 762 0 l 257
EndSplineSet
EndChar

StartChar: eight.tabl
Encoding: 65723 -1 607
GlifName: eight.tabl
Width: 1250
VWidth: 0
Flags: HW
HStem: -16 289<511 737> 514 281<523 726> 1025 291<528 720>
VStem: 98 387<301 491> 139 365<814 1003> 746 365<814 1002> 766 387<302 487>
LayerCount: 2
Fore
SplineSet
930 658 m 1xec
 1080 601 1152 495 1152 354 c 0
 1152 133 937 -16 623 -16 c 0
 311 -16 98 131 98 352 c 0xf2
 98 495 170 599 322 658 c 1
 195 717 139 818 139 951 c 0
 139 1168 336 1316 623 1316 c 0
 912 1316 1111 1168 1111 949 c 0
 1111 818 1053 717 930 658 c 1xec
631 795 m 2
 705 795 746 838 746 910 c 0
 746 984 701 1025 623 1025 c 0
 547 1025 504 984 504 910 c 0xec
 504 836 545 795 619 795 c 2
 631 795 l 2
631 514 m 2
 619 514 l 2
 531 514 484 472 484 396 c 0
 484 318 535 273 623 273 c 0
 713 273 766 318 766 396 c 0xf2
 766 470 717 514 631 514 c 2
EndSplineSet
EndChar

StartChar: nine.tabl
Encoding: 65724 -1 608
GlifName: nine.tabl
Width: 1250
VWidth: 0
Flags: HW
HStem: -16 279<524 713> 451 283<383 688> 1037 283<517 716>
VStem: 94 387<771 1001> 801 387<365 598>
LayerCount: 2
Fore
SplineSet
1172 639 m 260
 1172 200 961 -16 609 -16 c 260
 332 -16 141 131 94 379 c 261
 480 379 l 261
 492 317 535 283 607 283 c 260
 712 283 785 369 785 574 c 260
 785 582 785 590 785 598 c 261
 734 508 619 451 484 451 c 260
 250 451 78 629 78 871 c 260
 78 1135 285 1320 586 1320 c 260
 945 1320 1172 1057 1172 639 c 260
742 883 m 260
 742 967 682 1027 598 1027 c 260
 518 1027 463 973 463 887 c 260
 463 801 518 744 602 744 c 260
 686 744 742 801 742 883 c 260
EndSplineSet
EndChar

StartChar: zero.slsh.tabl
Encoding: 65725 -1 609
GlifName: zero.slsh.tabl
Width: 1250
VWidth: 0
Flags: HW
HStem: -16 340<477 726> 980 340<531 722>
VStem: 70 385<536 893> 795 385<404 734>
LayerCount: 2
Fore
SplineSet
867 1043 m 257
 1000 922 l 257
 367 211 l 257
 236 330 l 257
 867 1043 l 257
70 635 m 260
 70 1067 277 1320 627 1320 c 256
 977 1320 1180 1067 1180 635 c 256
 1180 225 977 -16 627 -16 c 256
 275 -16 70 225 70 635 c 260
795 635 m 256
 795 865 740 980 627 980 c 256
 514 980 455 865 455 635 c 260
 455 428 512 324 627 324 c 256
 740 324 795 428 795 635 c 256
EndSplineSet
EndChar

StartChar: plus.tabl
Encoding: 65726 -1 610
GlifName: plus.tabl
Width: 1250
VWidth: 0
Flags: HW
HStem: 465 336<88 455 791 1162>
VStem: 455 336<94 465 801 1170>
LayerCount: 2
Fore
SplineSet
791 801 m 257
 1162 801 l 257
 1162 465 l 257
 791 465 l 257
 791 94 l 257
 455 94 l 257
 455 465 l 257
 88 465 l 257
 88 801 l 257
 455 801 l 257
 455 1170 l 257
 791 1170 l 257
 791 801 l 257
EndSplineSet
EndChar

StartChar: hyphen.tabl
Encoding: 65727 -1 611
GlifName: hyphen.tabl
Width: 1250
VWidth: 0
Flags: HW
HStem: 385 336<162 1088>
LayerCount: 2
Fore
SplineSet
162 721 m 257
 1088 721 l 257
 1088 385 l 257
 162 385 l 257
 162 721 l 257
EndSplineSet
EndChar

StartChar: period.tabl
Encoding: 65728 -1 612
GlifName: period.tabl
Width: 550
VWidth: 0
Flags: HW
HStem: 0 395<72 479>
VStem: 72 406<0 395>
LayerCount: 2
Fore
SplineSet
72 395 m 257
 479 395 l 261
 479 0 l 261
 72 0 l 257
 72 395 l 257
EndSplineSet
Substitution2: "ss03StyleSet3inLatinlookup2 subtable" period.tabl.ss03
EndChar

StartChar: slash.tabl
Encoding: 65729 -1 613
GlifName: slash.tabl
Width: 1003
VWidth: 0
Flags: HW
HStem: 0 41G<68 502> 1262 39G<502 936>
LayerCount: 2
Fore
SplineSet
516 1301 m 257
 936 1301 l 257
 488 0 l 257
 68 0 l 257
 516 1301 l 257
EndSplineSet
EndChar

StartChar: colon.tabl
Encoding: 65730 -1 614
GlifName: colon.tabl
Width: 550
VWidth: 0
Flags: HW
HStem: 0 395<72 479> 604 395<72 479>
VStem: 72 406<0 395 604 998>
LayerCount: 2
Fore
SplineSet
72 998 m 257
 479 998 l 257
 479 604 l 257
 72 604 l 257
 72 998 l 257
72 395 m 257
 479 395 l 257
 479 0 l 257
 72 0 l 257
 72 395 l 257
EndSplineSet
Substitution2: "ss03StyleSet3inLatinlookup2 subtable" colon.tabl.ss03
EndChar

StartChar: multiply.tabl
Encoding: 65731 -1 615
GlifName: multiply.tabl
Width: 1250
VWidth: 0
Flags: HW
LayerCount: 2
Fore
SplineSet
625 850 m 257
 889 1133 l 257
 1125 895 l 257
 846 633 l 257
 1125 369 l 257
 889 133 l 257
 625 414 l 257
 365 133 l 257
 125 369 l 257
 408 633 l 257
 125 895 l 257
 365 1133 l 257
 625 850 l 257
EndSplineSet
EndChar

StartChar: divide.tabl
Encoding: 65732 -1 616
GlifName: divide.tabl
Width: 1250
VWidth: 0
Flags: HW
HStem: -8 334<463 791> 404 295<162 1088> 775 334<463 791>
VStem: 463 328<-8 326 775 1109>
LayerCount: 2
Fore
SplineSet
463 1109 m 257
 791 1109 l 257
 791 775 l 257
 463 775 l 257
 463 1109 l 257
463 326 m 257
 791 326 l 257
 791 -8 l 257
 463 -8 l 257
 463 326 l 257
162 699 m 257
 1088 699 l 257
 1088 404 l 257
 162 404 l 257
 162 699 l 257
EndSplineSet
Substitution2: "ss03StyleSet3inLatinlookup2 subtable" divide.tabl.ss03
EndChar

StartChar: colon.tabl.ss03
Encoding: 65733 -1 617
GlifName: colon.ss03.tabl
Width: 550
VWidth: 0
Flags: HW
HStem: -21 432<146 405> 592 432<146 405>
VStem: 59 434<65 323 679 937>
LayerCount: 2
Fore
SplineSet
59 809 m 256
 59 928 156 1023 275 1023 c 256
 394 1023 492 928 492 809 c 256
 492 690 394 592 275 592 c 256
 156 592 59 690 59 809 c 256
59 193 m 256
 59 312 156 410 275 410 c 256
 394 410 492 312 492 193 c 256
 492 74 394 -21 275 -21 c 256
 156 -21 59 74 59 193 c 256
EndSplineSet
EndChar

StartChar: divide.tabl.ss03
Encoding: 65734 -1 618
GlifName: divide.ss03.tabl
Width: 1250
VWidth: 0
Flags: HW
HStem: -61 412<497 756> 404 295<162 1088> 750 412<497 756>
VStem: 410 434<23 269 832 1078>
LayerCount: 2
Fore
SplineSet
410 955 m 256
 410 1068 508 1162 627 1162 c 256
 746 1162 844 1068 844 955 c 256
 844 842 746 750 627 750 c 256
 508 750 410 842 410 955 c 256
410 146 m 256
 410 259 508 352 627 352 c 256
 746 352 844 259 844 146 c 256
 844 33 746 -61 627 -61 c 256
 508 -61 410 33 410 146 c 256
162 699 m 257
 1088 699 l 257
 1088 404 l 257
 162 404 l 257
 162 699 l 257
EndSplineSet
EndChar

StartChar: period.tabl.ss03
Encoding: 65735 -1 619
GlifName: period.ss03.tabl
Width: 550
VWidth: 0
Flags: HW
HStem: -21 432<146 405>
VStem: 59 434<65 323>
LayerCount: 2
Fore
SplineSet
59 193 m 256
 59 312 156 410 275 410 c 256
 394 410 492 312 492 193 c 256
 492 74 394 -21 275 -21 c 256
 156 -21 59 74 59 193 c 256
EndSplineSet
EndChar

StartChar: cent
Encoding: 162 162 620
GlifName: cent
Width: 1185
VWidth: 0
Flags: HW
HStem: 0 41G<543 662> 113 301<496 718> 891 299<495 717> 1260 39G<543 662>
VStem: 66 365<481 826> 543 119<0 1299> 754 365<457 559 729 845>
LayerCount: 2
Fore
SplineSet
543 1299 m 257
 662 1299 l 257
 662 0 l 257
 543 0 l 257
 543 1299 l 257
66 654 m 256
 66 976 278 1189 600 1189 c 256
 889 1189 1099 1024 1119 729 c 257
 754 729 l 257
 752 850 692 891 600 891 c 256
 493 891 432 804 432 654 c 256
 432 502 493 414 600 414 c 256
 690 414 750 448 754 559 c 257
 1119 559 l 257
 1092 272 887 113 600 113 c 256
 280 113 66 330 66 654 c 256
EndSplineSet
EndChar

StartChar: sterling
Encoding: 163 163 621
GlifName: sterling
Width: 1228
Flags: HW
HStem: 0 336<70 146 527 1158> 520 256<80 934> 1016 301<638 783>
VStem: 236 379<414 1002>
LayerCount: 2
Fore
SplineSet
80 775 m 1
 934 775 l 1
 934 520 l 1
 80 520 l 1
 80 775 l 1
803 924 m 1
 797 983 760 1016 703 1016 c 0
 646 1016 615 969 615 889 c 2
 615 502 l 2
 615 440 593 369 527 336 c 1
 1158 336 l 5
 1158 0 l 5
 70 0 l 1
 70 348 l 1
 197 383 236 456 236 518 c 2
 236 889 l 2
 236 1145 420 1316 693 1316 c 0
 963 1316 1159 1158 1182 924 c 1
 803 924 l 1
EndSplineSet
EndChar

StartChar: currency
Encoding: 164 164 622
GlifName: currency
Width: 1175
Flags: HW
HStem: 201 229<495 684> 693 229<495 683>
VStem: 215 254<456 668> 711 254<456 666>
LayerCount: 2
Fore
SplineSet
469 562 m 0
 469 480 514 430 590 430 c 0
 664 430 711 480 711 562 c 0
 711 642 662 693 588 693 c 0
 514 693 469 642 469 562 c 0
707 906 m 1
 850 1059 l 1
 1088 820 l 1
 943 686 l 1
 957 651 965 609 965 562 c 0
 965 517 955 475 941 432 c 1
 1088 297 l 1
 850 59 l 1
 701 217 l 1
 668 207 633 201 590 201 c 0
 545 201 508 207 475 217 c 1
 326 59 l 1
 88 297 l 1
 236 432 l 1
 222 475 215 517 215 562 c 0
 215 601 220 641 234 684 c 1
 88 820 l 1
 326 1059 l 1
 469 906 l 1
 508 916 549 922 588 922 c 0
 627 922 668 916 707 906 c 1
EndSplineSet
EndChar

StartChar: degree
Encoding: 176 176 623
GlifName: degree
Width: 849
Flags: HW
HStem: 621 248<344 506> 1094 248<343 506>
VStem: 51 273<886 1077> 525 275<887 1077>
LayerCount: 2
Fore
SplineSet
324 982 m 0
 324 912 364 869 426 869 c 0
 488 869 525 914 525 982 c 0
 525 1050 486 1094 424 1094 c 0
 363 1094 324 1050 324 982 c 0
801 982 m 0
 801 771 645 621 426 621 c 0
 205 621 51 769 51 982 c 0
 51 1193 205 1342 424 1342 c 0
 645 1342 801 1193 801 982 c 0
EndSplineSet
EndChar

StartChar: yen
Encoding: 165 165 624
GlifName: yen
Width: 1312
VWidth: 0
Flags: HW
HStem: 0 41G<465 844> 98 236<195 1119> 420 236<195 1119> 1262 39G<29 461 850 1283>
VStem: 465 379<0 473>
LayerCount: 2
Fore
SplineSet
195 334 m 257
 1119 334 l 257
 1119 98 l 257
 195 98 l 257
 195 334 l 257
195 656 m 261
 1119 656 l 261
 1119 420 l 261
 195 420 l 261
 195 656 l 261
465 475 m 257
 29 1301 l 257
 443 1301 l 257
 660 822 l 257
 867 1301 l 257
 1283 1301 l 257
 844 473 l 257
 844 0 l 257
 465 0 l 257
 465 475 l 257
EndSplineSet
EndChar

StartChar: brokenbar
Encoding: 166 166 625
GlifName: brokenbar
Width: 550
Flags: HW
VStem: 90 373<-400 496 705 1602>
LayerCount: 2
Fore
SplineSet
90 1602 m 1
 463 1602 l 5
 463 705 l 5
 90 705 l 1
 90 1602 l 1
463 496 m 5
 463 -400 l 5
 90 -400 l 1
 90 496 l 1
 463 496 l 5
EndSplineSet
EndChar

StartChar: uni2070
Encoding: 8304 8304 626
GlifName: uni2070
Width: 921
VWidth: 726
Flags: HW
HStem: 688 240<386 538> 1283 240<385 539>
VStem: 66 285<961 1252> 570 285<955 1253>
LayerCount: 2
Fore
SplineSet
66 1107 m 260
 66 1357 225 1523 463 1523 c 260
 699 1523 855 1357 855 1107 c 260
 855 855 699 688 463 688 c 260
 225 688 66 855 66 1107 c 260
570 1107 m 260
 570 1218 531 1283 463 1283 c 260
 393 1283 352 1218 352 1107 c 260
 352 994 393 928 463 928 c 260
 531 928 570 994 570 1107 c 260
EndSplineSet
EndChar

StartChar: uni2074
Encoding: 8308 8308 627
GlifName: uni2074
Width: 873
VWidth: 726
Flags: HW
HStem: 871 215<334 461 740 844>
VStem: 461 279<729 871 1086 1248>
LayerCount: 2
Fore
SplineSet
740 871 m 257
 740 729 l 257
 461 729 l 257
 461 871 l 257
 51 871 l 257
 51 1105 l 257
 400 1500 l 261
 740 1500 l 257
 740 1086 l 257
 844 1086 l 257
 844 871 l 257
 740 871 l 257
461 1086 m 257
 461 1248 l 257
 334 1086 l 257
 461 1086 l 257
EndSplineSet
EndChar

StartChar: uni2075
Encoding: 8309 8309 628
GlifName: uni2075
Width: 892
VWidth: 726
Flags: HW
HStem: 691 213<381 513> 1053 178<406 646>
VStem: 518 307<908 1046>
LayerCount: 2
Fore
SplineSet
518 977 m 256
 518 930 492 904 447 904 c 256
 404 904 379 928 377 963 c 257
 70 963 l 257
 84 803 242 691 463 691 c 256
 684 691 824 808 824 988 c 256
 824 1131 720 1230 572 1230 c 256
 494 1230 428 1209 387 1172 c 257
 402 1273 l 257
 777 1273 l 257
 777 1500 l 257
 150 1500 l 257
 74 1010 l 257
 371 1010 l 257
 385 1037 409 1053 438 1053 c 256
 489 1053 518 1024 518 977 c 256
EndSplineSet
EndChar

StartChar: uni2076
Encoding: 8310 8310 629
GlifName: uni2076
Width: 912
VWidth: 726
Flags: HW
HStem: 713 201<409 534> 1037 203<441 669> 1318 205<404 595>
VStem: 70 307<1129 1295> 537 307<917 1032>
LayerCount: 2
Fore
SplineSet
70 1113 m 256
 70 1369 217 1523 461 1523 c 256
 658 1523 795 1431 828 1275 c 257
 521 1275 l 257
 511 1302 498 1318 465 1318 c 256
 412 1318 377 1254 377 1158 c 256
 377 1148 377 1139 377 1129 c 257
 414 1197 500 1240 598 1240 c 256
 741 1240 844 1135 844 990 c 256
 844 826 701 713 496 713 c 256
 234 713 70 867 70 1113 c 256
400 980 m 256
 400 943 432 914 475 914 c 256
 514 914 537 940 537 977 c 256
 537 1014 512 1037 471 1037 c 256
 428 1037 400 1015 400 980 c 256
EndSplineSet
EndChar

StartChar: uni2077
Encoding: 8311 8311 630
GlifName: uni2077
Width: 906
VWidth: 726
Flags: HW
VStem: 201 375<729 962>
LayerCount: 2
Fore
SplineSet
576 729 m 257
 576 948 643 1094 838 1203 c 257
 838 1500 l 257
 70 1500 l 257
 70 1225 l 257
 477 1225 l 261
 327 1120 201 991 201 729 c 257
 576 729 l 257
EndSplineSet
EndChar

StartChar: uni2078
Encoding: 8312 8312 631
GlifName: uni2078
Width: 892
VWidth: 726
Flags: HW
HStem: 713 209<384 507> 1043 158<400 492> 1092 61<432 443 449 470> 1314 209<378 513>
VStem: 70 307<925 1040> 90 287<1206 1310> 422 21<1043 1201> 449 23<1043 1092 1152 1201> 518 307<927 1038>
LayerCount: 2
Fore
SplineSet
445 1523 m 257xb780
 445 1314 l 257
 400 1314 377 1293 377 1258 c 256
 377 1223 400 1201 443 1201 c 257xd780
 443 1092 l 257
 214 1092 90 1164 90 1295 c 256
 90 1432 232 1523 445 1523 c 257xb780
445 922 m 257
 445 713 l 257
 220 713 70 804 70 945 c 256
 70 1078 203 1152 443 1152 c 257xbb80
 443 1043 l 257
 398 1043 377 1021 377 984 c 256xdb80
 377 945 400 922 445 922 c 257
473 1201 m 257xd380
 473 1043 l 257
 422 1043 l 257
 422 1201 l 257
 473 1201 l 257xd380
445 1523 m 257
 660 1523 805 1432 805 1293 c 256
 805 1162 678 1092 449 1092 c 257xb380
 449 1201 l 257
 492 1201 518 1223 518 1258 c 256
 518 1293 492 1314 445 1314 c 257
 445 1523 l 257
445 922 m 257
 490 922 518 943 518 982 c 256
 518 1019 492 1043 449 1043 c 257xd380
 449 1152 l 257
 689 1152 824 1080 824 947 c 256
 824 806 672 713 445 713 c 257
 445 922 l 257
EndSplineSet
EndChar

StartChar: uni2079
Encoding: 8313 8313 632
GlifName: uni2079
Width: 912
VWidth: 726
Flags: HW
HStem: 713 205<301 503> 996 201<245 473> 1322 201<380 505>
VStem: 70 307<1200 1320> 537 307<949 1107>
LayerCount: 2
Fore
SplineSet
844 1121 m 256
 844 865 693 713 443 713 c 256
 240 713 101 805 66 961 c 257
 371 961 l 257
 377 930 399 918 432 918 c 256
 494 918 537 982 537 1078 c 256
 537 1088 537 1097 537 1107 c 257
 500 1039 414 996 316 996 c 256
 173 996 70 1101 70 1246 c 256
 70 1410 213 1523 418 1523 c 256
 680 1523 844 1367 844 1121 c 256
514 1256 m 256
 514 1293 482 1322 439 1322 c 256
 400 1322 377 1297 377 1260 c 256
 377 1223 402 1197 443 1197 c 256
 486 1197 514 1221 514 1256 c 256
EndSplineSet
EndChar

StartChar: uni207A
Encoding: 8314 8314 633
GlifName: uni207A_
Width: 775
VWidth: 726
Flags: HW
HStem: 986 256<51 260 516 727>
VStem: 260 256<775 986 1242 1451>
LayerCount: 2
Fore
SplineSet
516 1242 m 257
 727 1242 l 257
 727 986 l 257
 516 986 l 257
 516 775 l 257
 260 775 l 257
 260 986 l 257
 51 986 l 257
 51 1242 l 257
 260 1242 l 257
 260 1451 l 257
 516 1451 l 257
 516 1242 l 257
EndSplineSet
EndChar

StartChar: uni207B
Encoding: 8315 8315 634
GlifName: uni207B_
Width: 775
VWidth: 726
Flags: HW
HStem: 986 256<51 727>
LayerCount: 2
Fore
SplineSet
51 1242 m 1
 727 1242 l 1
 727 986 l 1
 51 986 l 1
 51 1242 l 1
EndSplineSet
EndChar

StartChar: uni207C
Encoding: 8316 8316 635
GlifName: uni207C_
Width: 775
VWidth: 726
Flags: HW
HStem: 801 256<51 727> 1180 256<51 727>
VStem: 51 676<801 1057 1180 1436>
LayerCount: 2
Fore
SplineSet
51 1057 m 5
 727 1057 l 5
 727 801 l 5
 51 801 l 5
 51 1057 l 5
51 1436 m 5
 727 1436 l 5
 727 1180 l 5
 51 1180 l 5
 51 1436 l 5
EndSplineSet
EndChar

StartChar: uni207D
Encoding: 8317 8317 636
GlifName: uni207D_
Width: 578
VWidth: 726
Flags: HW
VStem: 51 305<794 1409>
LayerCount: 2
Fore
SplineSet
551 500 m 261
 248 500 l 261
 135 613 51 854 51 1102 c 256
 51 1350 135 1590 248 1703 c 257
 551 1703 l 257
 422 1578 355 1366 355 1102 c 256
 355 838 422 625 551 500 c 261
EndSplineSet
EndChar

StartChar: uni207E
Encoding: 8318 8318 637
GlifName: uni207E_
Width: 578
VWidth: 726
Flags: HW
VStem: 225 305<794 1409>
LayerCount: 2
Fore
SplineSet
29 1703 m 257
 332 1703 l 257
 445 1590 529 1350 529 1102 c 256
 529 854 445 613 332 500 c 257
 29 500 l 257
 158 625 225 838 225 1102 c 256
 225 1366 158 1578 29 1703 c 257
EndSplineSet
EndChar

StartChar: uni207F
Encoding: 8319 8319 638
GlifName: uni207F_
Width: 1011
VWidth: 726
Flags: HW
HStem: 1279 260<485 721>
VStem: 90 301<727 1500> 312 78<1164 1398> 631 299<727 1249>
LayerCount: 2
Fore
SplineSet
631 1141 m 258xb0
 631 1239 582 1279 506 1279 c 256
 440 1279 391 1226 391 1152 c 257xd0
 312 1164 l 257
 312 1398 481 1539 635 1539 c 260
 807 1539 930 1426 930 1221 c 258
 930 727 l 257
 631 727 l 257
 631 1141 l 258xb0
90 1500 m 257
 391 1500 l 257
 391 727 l 257
 90 727 l 257
 90 1500 l 257
EndSplineSet
EndChar

StartChar: uni2080
Encoding: 8320 8320 639
GlifName: uni2080
Width: 921
VWidth: -199
Flags: HW
HStem: -240 240<386 538> 355 240<385 539>
VStem: 66 285<33 324> 570 285<27 325>
LayerCount: 2
Fore
SplineSet
66 180 m 260
 66 430 225 596 463 596 c 260
 699 596 855 430 855 180 c 260
 855 -72 699 -240 463 -240 c 260
 225 -240 66 -72 66 180 c 260
570 180 m 260
 570 291 531 355 463 355 c 260
 393 355 352 291 352 180 c 260
 352 67 393 0 463 0 c 260
 531 0 570 67 570 180 c 260
EndSplineSet
EndChar

StartChar: uni2081
Encoding: 8321 8321 640
GlifName: uni2081
Width: 648
VWidth: -199
Flags: HW
HStem: 182 242<51 247>
VStem: 260 301<-199 182 437 572>
LayerCount: 2
Fore
SplineSet
260 572 m 257
 561 572 l 257
 561 -199 l 257
 260 -199 l 257
 260 182 l 257
 51 182 l 257
 51 424 l 257
 143 424 l 258
 221 424 260 447 260 531 c 258
 260 572 l 257
EndSplineSet
EndChar

StartChar: uni2082
Encoding: 8322 8322 641
GlifName: uni2082
Width: 892
VWidth: -199
Flags: HW
HStem: -199 234<402 816> 383 213<383 516>
LayerCount: 2
Fore
SplineSet
402 35 m 257
 816 35 l 257
 816 -199 l 257
 70 -199 l 257
 70 -133 l 258
 70 148 232 219 363 254 c 0
 447 277 518 285 518 330 c 256
 518 363 492 383 453 383 c 256
 406 383 379 355 377 316 c 257
 70 316 l 257
 86 482 238 596 453 596 c 256
 678 596 824 490 824 330 c 256
 824 191 701 140 588 107 c 0
 510 84 433 66 402 35 c 257
EndSplineSet
EndChar

StartChar: uni2083
Encoding: 8323 8323 642
GlifName: uni2083
Width: 912
VWidth: -199
Flags: HW
HStem: -217 223<389 535> 109 154<385 551> 150 74<475 548> 379 217<383 513>
VStem: 475 76<109 150 225 264> 537 307<-64 115>
LayerCount: 2
Fore
SplineSet
551 264 m 257xd8
 551 109 l 257
 385 109 l 257
 385 264 l 257
 551 264 l 257xd8
475 150 m 257xb8
 475 264 l 257xd8
 502 264 518 281 518 312 c 256
 518 353 490 379 447 379 c 256
 404 379 379 354 377 311 c 257
 70 311 l 257
 86 483 238 596 453 596 c 256
 668 596 824 498 824 363 c 256
 824 218 711 150 475 150 c 257xb8
475 225 m 261xb8
 719 225 844 148 844 0 c 256
 844 -129 699 -217 486 -217 c 256
 254 -217 86 -96 70 82 c 257
 377 82 l 257
 383 33 416 6 469 6 c 256
 514 6 537 28 537 61 c 256xb4
 537 92 516 109 475 109 c 257xd8
 475 225 l 261xb8
EndSplineSet
EndChar

StartChar: uni2084
Encoding: 8324 8324 643
GlifName: uni2084
Width: 873
VWidth: -199
Flags: HW
HStem: -57 215<334 461 740 844>
VStem: 461 279<-199 -57 158 320>
LayerCount: 2
Fore
SplineSet
740 -57 m 257
 740 -199 l 257
 461 -199 l 257
 461 -57 l 257
 51 -57 l 257
 51 178 l 257
 400 572 l 261
 740 572 l 257
 740 158 l 257
 844 158 l 257
 844 -57 l 257
 740 -57 l 257
461 158 m 257
 461 320 l 257
 334 158 l 257
 461 158 l 257
EndSplineSet
EndChar

StartChar: uni2085
Encoding: 8325 8325 644
GlifName: uni2085
Width: 892
VWidth: -199
Flags: HW
HStem: -236 213<381 513> 123 180<406 646>
VStem: 518 307<-19 114>
LayerCount: 2
Fore
SplineSet
518 49 m 256
 518 2 492 -23 447 -23 c 256
 404 -23 379 -2 377 33 c 257
 70 33 l 257
 84 -127 242 -236 463 -236 c 256
 684 -236 824 -119 824 61 c 256
 824 204 720 303 572 303 c 256
 494 303 428 281 387 244 c 257
 402 346 l 257
 777 346 l 257
 777 572 l 257
 150 572 l 257
 74 82 l 257
 371 82 l 257
 385 109 409 123 438 123 c 256
 489 123 518 96 518 49 c 256
EndSplineSet
EndChar

StartChar: uni2086
Encoding: 8326 8326 645
GlifName: uni2086
Width: 912
VWidth: -199
Flags: HW
HStem: -217 203<409 534> 109 203<444 669> 391 205<404 595>
VStem: 70 307<199 367> 537 307<-11 104>
LayerCount: 2
Fore
SplineSet
70 186 m 256
 70 442 217 596 461 596 c 256
 658 596 795 504 828 348 c 257
 521 348 l 257
 511 375 498 391 465 391 c 256
 412 391 377 326 377 230 c 256
 377 220 377 209 377 199 c 257
 414 267 500 312 598 312 c 256
 741 312 844 207 844 62 c 256
 844 -102 701 -217 496 -217 c 256
 234 -217 70 -60 70 186 c 256
400 53 m 256
 400 16 432 -14 475 -14 c 256
 514 -14 537 12 537 49 c 256
 537 86 512 109 471 109 c 256
 428 109 400 88 400 53 c 256
EndSplineSet
EndChar

StartChar: uni2087
Encoding: 8327 8327 646
GlifName: uni2087
Width: 906
VWidth: -199
Flags: HW
VStem: 201 375<-199 34>
LayerCount: 2
Fore
SplineSet
576 -199 m 257
 576 20 643 166 838 275 c 257
 838 572 l 257
 70 572 l 257
 70 297 l 257
 477 297 l 261
 327 192 201 63 201 -199 c 257
 576 -199 l 257
EndSplineSet
EndChar

StartChar: uni2088
Encoding: 8328 8328 647
GlifName: uni2088
Width: 892
VWidth: -199
Flags: HW
HStem: -217 211<384 507> 113 160<400 492> 164 61<432 443 449 470> 387 209<378 513>
VStem: 70 307<-3 111> 90 287<278 382> 422 21<113 273> 449 23<113 164 225 273> 518 307<-1 109>
LayerCount: 2
Fore
SplineSet
445 596 m 257xb780
 445 387 l 257
 400 387 377 365 377 330 c 256
 377 295 400 273 443 273 c 257xd780
 443 164 l 257
 214 164 90 236 90 367 c 256
 90 504 232 596 445 596 c 257xb780
445 -6 m 257
 445 -217 l 257
 220 -217 70 -123 70 18 c 256
 70 151 203 225 443 225 c 257xbb80
 443 113 l 257
 398 113 377 92 377 55 c 256xdb80
 377 16 400 -6 445 -6 c 257
473 273 m 257xd380
 473 113 l 257
 422 113 l 257
 422 273 l 257
 473 273 l 257xd380
445 596 m 257
 660 596 805 504 805 365 c 256
 805 234 678 164 449 164 c 257xb380
 449 273 l 257
 492 273 518 295 518 330 c 256
 518 365 492 387 445 387 c 257
 445 596 l 257
445 -6 m 257
 490 -6 518 16 518 55 c 256
 518 92 492 113 449 113 c 257xd380
 449 225 l 257
 689 225 824 153 824 20 c 256
 824 -121 672 -217 445 -217 c 257
 445 -6 l 257
EndSplineSet
EndChar

StartChar: uni2089
Encoding: 8329 8329 648
GlifName: uni2089
Width: 912
VWidth: -199
Flags: HW
HStem: -217 207<301 503> 68 201<245 473> 395 201<380 505>
VStem: 70 307<272 392> 537 307<21 180>
LayerCount: 2
Fore
SplineSet
844 193 m 256
 844 -63 693 -217 443 -217 c 256
 240 -217 101 -125 66 31 c 257
 371 31 l 257
 377 0 399 -10 432 -10 c 256
 494 -10 537 54 537 150 c 256
 537 160 537 170 537 180 c 257
 500 112 414 68 316 68 c 256
 173 68 70 173 70 318 c 256
 70 482 213 596 418 596 c 256
 680 596 844 439 844 193 c 256
514 328 m 256
 514 365 482 395 439 395 c 256
 400 395 377 369 377 332 c 256
 377 295 402 270 443 270 c 256
 486 270 514 293 514 328 c 256
EndSplineSet
EndChar

StartChar: uni208A
Encoding: 8330 8330 649
GlifName: uni208A_
Width: 775
VWidth: -199
Flags: HW
HStem: 59 256<51 260 516 727>
VStem: 260 256<-152 59 314 523>
LayerCount: 2
Fore
SplineSet
516 314 m 257
 727 314 l 257
 727 59 l 257
 516 59 l 257
 516 -152 l 257
 260 -152 l 257
 260 59 l 257
 51 59 l 257
 51 314 l 257
 260 314 l 257
 260 523 l 257
 516 523 l 257
 516 314 l 257
EndSplineSet
EndChar

StartChar: uni208B
Encoding: 8331 8331 650
GlifName: uni208B_
Width: 775
VWidth: -199
Flags: HW
HStem: 59 256<51 727>
LayerCount: 2
Fore
SplineSet
51 314 m 1
 727 314 l 1
 727 59 l 1
 51 59 l 1
 51 314 l 1
EndSplineSet
EndChar

StartChar: uni208C
Encoding: 8332 8332 651
GlifName: uni208C_
Width: 775
VWidth: -199
Flags: HW
HStem: -129 258<51 727> 252 256<51 727>
VStem: 51 676<-129 129 252 508>
LayerCount: 2
Fore
SplineSet
51 129 m 5
 727 129 l 5
 727 -129 l 5
 51 -129 l 5
 51 129 l 5
51 508 m 5
 727 508 l 5
 727 252 l 5
 51 252 l 5
 51 508 l 5
EndSplineSet
EndChar

StartChar: uni208D
Encoding: 8333 8333 652
GlifName: uni208D_
Width: 578
VWidth: -199
Flags: HW
VStem: 51 305<-134 481>
LayerCount: 2
Fore
SplineSet
551 -428 m 261
 248 -428 l 261
 135 -315 51 -74 51 174 c 256
 51 422 135 662 248 775 c 257
 551 775 l 257
 422 650 355 438 355 174 c 256
 355 -90 422 -303 551 -428 c 261
EndSplineSet
EndChar

StartChar: uni208E
Encoding: 8334 8334 653
GlifName: uni208E_
Width: 578
VWidth: -199
Flags: HW
VStem: 225 305<-134 481>
LayerCount: 2
Fore
SplineSet
29 775 m 257
 332 775 l 257
 445 662 529 422 529 174 c 256
 529 -74 445 -315 332 -428 c 257
 29 -428 l 257
 158 -303 225 -90 225 174 c 256
 225 438 158 650 29 775 c 257
EndSplineSet
EndChar

StartChar: uni2099
Encoding: 8345 8345 654
GlifName: uni2099
Width: 1011
VWidth: -199
Flags: HW
HStem: 352 260<485 721>
VStem: 90 301<-201 572> 312 78<236 471> 631 299<-201 321>
LayerCount: 2
Fore
SplineSet
631 213 m 258xb0
 631 311 582 352 506 352 c 256
 440 352 391 299 391 225 c 257xd0
 312 236 l 257
 312 470 481 611 635 611 c 260
 807 611 930 498 930 293 c 258
 930 -201 l 257
 631 -201 l 257
 631 213 l 258xb0
90 572 m 257
 391 572 l 257
 391 -201 l 257
 90 -201 l 257
 90 572 l 257
EndSplineSet
EndChar

StartChar: uni2460
Encoding: 9312 9312 655
GlifName: uni2460
Width: 1769
VWidth: 263
Flags: HW
HStem: -119 242<649 1096> 646 242<570 767> 996 39G<779 1080> 1172 244<659 1104>
VStem: 90 270<424 873> 779 301<264 646 902 1035> 1410 270<427 873>
LayerCount: 2
Fore
SplineSet
875 123 m 0
 1193 123 1410 338 1410 652 c 0
 1410 963 1199 1172 885 1172 c 0
 571 1172 359 961 359 643 c 0
 359 331 564 123 875 123 c 0
1680 650 m 0
 1680 193 1354 -119 875 -119 c 0
 404 -119 90 180 90 629 c 0
 90 1092 418 1416 889 1416 c 0
 1356 1416 1680 1103 1680 650 c 0
779 1035 m 261
 1080 1035 l 261
 1080 264 l 261
 779 264 l 261
 779 646 l 261
 570 646 l 261
 570 889 l 261
 662 889 l 262
 740 889 779 912 779 996 c 262
 779 1035 l 261
EndSplineSet
EndChar

StartChar: uni2461
Encoding: 9313 9313 656
GlifName: uni2461
Width: 1769
VWidth: 263
Flags: HW
HStem: -119 242<649 1096> 264 236<840 1254> 846 215<822 954> 1172 244<659 1104>
VStem: 90 270<424 873> 1410 270<427 873>
LayerCount: 2
Fore
SplineSet
875 123 m 4
 1193 123 1410 338 1410 652 c 4
 1410 963 1199 1172 885 1172 c 4
 571 1172 359 961 359 643 c 4
 359 331 564 123 875 123 c 4
1680 650 m 4
 1680 193 1354 -119 875 -119 c 4
 404 -119 90 180 90 629 c 4
 90 1092 418 1416 889 1416 c 4
 1356 1416 1680 1103 1680 650 c 4
840 500 m 257
 1254 500 l 257
 1254 264 l 257
 508 264 l 257
 508 332 l 258
 508 549 596 660 803 719 c 0
 965 766 955 762 955 795 c 256
 955 828 932 846 893 846 c 256
 846 846 816 818 814 779 c 257
 508 779 l 257
 524 945 680 1061 893 1061 c 256
 1118 1061 1262 955 1262 795 c 256
 1262 688 1193 623 1025 572 c 0
 839 513 863 523 840 500 c 257
EndSplineSet
EndChar

StartChar: uni2462
Encoding: 9314 9314 657
GlifName: uni2462
Width: 1769
VWidth: 263
Flags: HW
HStem: -119 242<649 1096> 248 223<817 964> 574 154<812 945> 842 219<812 942> 1172 244<659 1104>
VStem: 90 270<424 873> 967 305<400 571> 1410 270<427 873>
LayerCount: 2
Fore
SplineSet
1680 650 m 0
 1680 193 1354 -119 875 -119 c 0
 404 -119 90 180 90 629 c 0
 90 1092 418 1416 889 1416 c 0
 1356 1416 1680 1103 1680 650 c 0
875 123 m 0
 1193 123 1410 338 1410 652 c 0
 1410 963 1199 1172 885 1172 c 0
 571 1172 359 961 359 643 c 0
 359 331 564 123 875 123 c 0
1137 652 m 1
 1227 617 1271 555 1271 465 c 0
 1271 336 1127 248 914 248 c 0
 682 248 514 369 498 547 c 1
 805 547 l 1
 811 498 843 471 896 471 c 0
 941 471 967 490 967 523 c 0
 967 554 941 574 902 574 c 2
 812 574 l 1
 812 729 l 1
 902 729 l 2
 929 729 945 746 945 775 c 0
 945 814 922 842 877 842 c 0
 832 842 807 816 805 773 c 1
 498 773 l 1
 512 945 666 1061 883 1061 c 0
 1098 1061 1252 963 1252 828 c 0
 1252 746 1215 687 1137 652 c 1
EndSplineSet
EndChar

StartChar: uni2463
Encoding: 9315 9315 658
GlifName: uni2463
Width: 1769
VWidth: 263
Flags: HW
HStem: -119 242<649 1096> 408 213<760 887 1166 1270> 996 39G<791 1166> 1172 244<659 1104>
VStem: 90 270<424 873> 887 279<264 408 621 783> 1410 270<427 873>
LayerCount: 2
Fore
SplineSet
875 123 m 0
 1193 123 1410 338 1410 652 c 0
 1410 963 1199 1172 885 1172 c 0
 571 1172 359 961 359 643 c 0
 359 331 564 123 875 123 c 0
1680 650 m 0
 1680 193 1354 -119 875 -119 c 0
 404 -119 90 180 90 629 c 0
 90 1092 418 1416 889 1416 c 0
 1356 1416 1680 1103 1680 650 c 0
1166 408 m 261
 1166 264 l 261
 887 264 l 261
 887 408 l 261
 477 408 l 261
 477 643 l 261
 826 1035 l 261
 1166 1035 l 261
 1166 621 l 261
 1270 621 l 261
 1270 408 l 261
 1166 408 l 261
887 621 m 261
 887 783 l 261
 760 621 l 261
 887 621 l 261
EndSplineSet
EndChar

StartChar: uni2464
Encoding: 9316 9316 659
GlifName: uni2464
Width: 1769
VWidth: 263
Flags: HW
HStem: -119 242<649 1096> 229 211<799 931> 588 178<824 1064> 1172 244<659 1104>
VStem: 90 270<424 873> 936 307<444 582> 1410 270<427 873>
LayerCount: 2
Fore
SplineSet
875 123 m 0
 1193 123 1410 338 1410 652 c 0
 1410 963 1199 1172 885 1172 c 0
 571 1172 359 961 359 643 c 0
 359 331 564 123 875 123 c 0
1680 650 m 0
 1680 193 1354 -119 875 -119 c 0
 404 -119 90 180 90 629 c 0
 90 1092 418 1416 889 1416 c 0
 1356 1416 1680 1103 1680 650 c 0
936 512 m 260
 936 465 910 439 865 439 c 260
 822 439 797 463 795 498 c 261
 488 498 l 261
 502 338 660 229 881 229 c 260
 1102 229 1242 343 1242 523 c 260
 1242 668 1138 766 990 766 c 260
 912 766 848 744 805 707 c 261
 820 811 l 261
 1195 811 l 261
 1195 1035 l 261
 568 1035 l 261
 492 547 l 261
 789 547 l 261
 803 574 826 588 855 588 c 260
 906 588 936 561 936 512 c 260
EndSplineSet
EndChar

StartChar: uni2465
Encoding: 9317 9317 660
GlifName: uni2465
Width: 1769
VWidth: 263
Flags: HW
HStem: -119 242<649 1096> 248 201<817 942> 574 201<846 1077> 854 207<810 1002> 1172 244<659 1104>
VStem: 90 270<424 873> 479 305<664 832> 945 307<452 571> 1410 270<427 873>
LayerCount: 2
Fore
SplineSet
875 123 m 0
 1193 123 1410 338 1410 652 c 0
 1410 963 1199 1172 885 1172 c 0
 571 1172 359 961 359 643 c 0
 359 331 564 123 875 123 c 0
1680 650 m 0
 1680 193 1354 -119 875 -119 c 0
 404 -119 90 180 90 629 c 0
 90 1092 418 1416 889 1416 c 0
 1356 1416 1680 1103 1680 650 c 0
479 650 m 260
 479 906 623 1061 867 1061 c 260
 1064 1061 1203 968 1236 812 c 261
 930 812 l 261
 920 841 900 854 871 854 c 260
 818 854 783 789 783 693 c 260
 783 683 783 674 783 664 c 261
 818 732 906 775 1006 775 c 260
 1149 775 1252 670 1252 525 c 260
 1252 361 1109 248 904 248 c 260
 642 248 479 404 479 650 c 260
809 516 m 260
 809 479 838 449 883 449 c 260
 920 449 945 475 945 512 c 260
 945 549 922 574 879 574 c 260
 836 574 809 549 809 516 c 260
EndSplineSet
EndChar

StartChar: uni2466
Encoding: 9318 9318 661
GlifName: uni2466
Width: 1769
VWidth: 263
Flags: HW
HStem: -119 242<649 1096> 1172 244<659 1104>
VStem: 90 270<424 873> 635 375<250 482> 1410 270<427 873>
LayerCount: 2
Fore
SplineSet
875 123 m 0
 1193 123 1410 338 1410 652 c 0
 1410 963 1199 1172 885 1172 c 0
 571 1172 359 961 359 643 c 0
 359 331 564 123 875 123 c 0
1680 650 m 0
 1680 193 1354 -119 875 -119 c 0
 404 -119 90 180 90 629 c 0
 90 1092 418 1416 889 1416 c 0
 1356 1416 1680 1103 1680 650 c 0
1010 250 m 261
 1010 484 1086 623 1270 727 c 261
 1270 1021 l 261
 502 1021 l 261
 502 746 l 261
 910 746 l 261
 713 607 635 469 635 250 c 261
 1010 250 l 261
EndSplineSet
EndChar

StartChar: uni2467
Encoding: 9319 9319 662
GlifName: uni2467
Width: 1769
VWidth: 263
Flags: HW
HStem: -119 242<649 1096> 248 209<820 950> 578 160<816 953> 850 211<816 953> 1172 244<659 1104>
VStem: 90 270<424 873> 508 307<462 575> 527 287<741 845> 955 307<462 574> 955 287<741 845> 1410 270<427 873>
LayerCount: 2
Fore
SplineSet
1680 650 m 0xfc20
 1680 193 1354 -119 875 -119 c 0
 404 -119 90 180 90 629 c 0
 90 1092 418 1416 889 1416 c 0
 1356 1416 1680 1103 1680 650 c 0xfc20
875 123 m 0
 1193 123 1410 338 1410 652 c 0
 1410 963 1199 1172 885 1172 c 0
 571 1172 359 961 359 643 c 0
 359 331 564 123 875 123 c 0
664 660 m 1
 576 693 527 750 527 830 c 0
 527 969 672 1061 885 1061 c 0
 1100 1061 1242 969 1242 830 c 0xfd60
 1242 750 1195 693 1105 660 c 1
 1207 627 1262 566 1262 482 c 0
 1262 341 1112 248 885 248 c 0
 658 248 508 341 508 482 c 0xfea0
 508 568 562 627 664 660 c 1
883 738 m 2
 889 738 l 2
 932 738 955 760 955 795 c 0
 955 830 932 850 885 850 c 0
 840 850 814 830 814 795 c 0
 814 760 838 738 883 738 c 2
883 578 m 2
 838 578 814 557 814 520 c 0
 814 481 840 457 885 457 c 0
 932 457 955 481 955 518 c 0xfea0
 955 555 934 578 889 578 c 2
 883 578 l 2
EndSplineSet
EndChar

StartChar: uni2468
Encoding: 9320 9320 663
GlifName: uni2468
Width: 1769
VWidth: 263
Flags: HW
HStem: -119 242<649 1096> 248 205<742 944> 531 203<685 913> 857 203<819 945> 1172 244<659 1104>
VStem: 90 270<424 873> 510 307<740 854> 979 305<486 645> 1410 270<427 873>
LayerCount: 2
Fore
SplineSet
875 123 m 0
 1193 123 1410 338 1410 652 c 0
 1410 963 1199 1172 885 1172 c 0
 571 1172 359 961 359 643 c 0
 359 331 564 123 875 123 c 0
1680 650 m 0
 1680 193 1354 -119 875 -119 c 0
 404 -119 90 180 90 629 c 0
 90 1092 418 1416 889 1416 c 0
 1356 1416 1680 1103 1680 650 c 0
1283 658 m 260
 1283 402 1135 248 885 248 c 260
 682 248 539 340 506 496 c 261
 812 496 l 261
 818 467 836 453 871 453 c 260
 935 453 979 517 979 613 c 260
 979 623 979 635 979 645 c 261
 944 577 856 531 756 531 c 260
 613 531 510 636 510 781 c 260
 510 945 652 1061 857 1061 c 260
 1119 1061 1283 904 1283 658 c 260
953 793 m 260
 953 830 926 857 881 857 c 260
 844 857 816 834 816 797 c 260
 816 760 842 734 885 734 c 260
 928 734 953 760 953 793 c 260
EndSplineSet
EndChar

StartChar: uni24EA
Encoding: 9450 9450 664
GlifName: uni24E_A_
Width: 1769
VWidth: 263
Flags: HW
HStem: -119 242<649 1096> 244 240<809 963> 820 240<808 964> 1172 244<659 1104>
VStem: 90 270<424 873> 490 285<514 793> 994 285<512 794> 1410 270<427 873>
LayerCount: 2
Fore
SplineSet
875 123 m 4
 1193 123 1410 338 1410 652 c 4
 1410 963 1199 1172 885 1172 c 4
 571 1172 359 961 359 643 c 4
 359 331 564 123 875 123 c 4
1680 650 m 4
 1680 193 1354 -119 875 -119 c 4
 404 -119 90 180 90 629 c 4
 90 1092 418 1416 889 1416 c 4
 1356 1416 1680 1103 1680 650 c 4
490 654 m 256
 490 898 649 1061 887 1061 c 256
 1123 1061 1279 898 1279 654 c 256
 1279 408 1123 244 887 244 c 256
 649 244 490 408 490 654 c 256
994 654 m 256
 994 759 955 820 887 820 c 256
 817 820 775 759 775 654 c 256
 775 547 817 484 887 484 c 256
 955 484 994 547 994 654 c 256
EndSplineSet
EndChar

StartChar: uni24FF
Encoding: 9471 9471 665
GlifName: uni24F_F_
Width: 1769
VWidth: 263
Flags: HW
HStem: -119 363<702 1071> 484 336<806 964> 1061 355<698 1075>
VStem: 90 400<459 856> 775 219<512 794> 1279 400<458 854>
CounterMasks: 1 1c
LayerCount: 2
Fore
SplineSet
1680 650 m 0
 1680 193 1354 -119 875 -119 c 0
 404 -119 90 180 90 629 c 0
 90 1092 418 1416 889 1416 c 0
 1356 1416 1680 1103 1680 650 c 0
490 654 m 256
 490 408 649 244 887 244 c 256
 1123 244 1279 408 1279 654 c 256
 1279 898 1123 1061 887 1061 c 256
 649 1061 490 898 490 654 c 256
994 654 m 256
 994 547 955 484 887 484 c 256
 817 484 775 547 775 654 c 256
 775 759 817 820 887 820 c 256
 955 820 994 759 994 654 c 256
EndSplineSet
EndChar

StartChar: uni2776
Encoding: 10102 10102 666
GlifName: uni2776
Width: 1769
VWidth: 263
Flags: HW
HStem: -119 383<789 1067> 1035 381<781 1077>
VStem: 90 480<646 873> 1080 600<391 908>
LayerCount: 2
Fore
SplineSet
1680 650 m 0
 1680 193 1354 -119 875 -119 c 0
 404 -119 90 180 90 629 c 0
 90 1092 418 1416 889 1416 c 0
 1356 1416 1680 1103 1680 650 c 0
779 1035 m 257
 779 996 l 258
 779 912 740 889 662 889 c 258
 570 889 l 257
 570 646 l 257
 779 646 l 257
 779 264 l 257
 1080 264 l 257
 1080 1035 l 257
 779 1035 l 257
EndSplineSet
EndChar

StartChar: uni2777
Encoding: 10103 10103 667
GlifName: uni2777
Width: 1769
VWidth: 263
Flags: HW
HStem: -119 383<590 1165> 500 72<986 1122> 719 127<820 940> 1061 355<694 1102>
VStem: 90 418<357 541 779 892> 814 141<780 840> 1254 426<391 500 528 915>
LayerCount: 2
Fore
SplineSet
1680 650 m 0
 1680 193 1354 -119 875 -119 c 0
 404 -119 90 180 90 629 c 0
 90 1092 418 1416 889 1416 c 0
 1356 1416 1680 1103 1680 650 c 0
840 500 m 257
 863 523 839 513 1025 572 c 0
 1193 623 1262 688 1262 795 c 256
 1262 955 1118 1061 893 1061 c 256
 680 1061 524 945 508 779 c 257
 814 779 l 257
 816 818 846 846 893 846 c 256
 932 846 955 828 955 795 c 256
 955 762 965 766 803 719 c 0
 596 660 508 549 508 332 c 258
 508 264 l 257
 1254 264 l 257
 1254 500 l 257
 840 500 l 257
EndSplineSet
EndChar

StartChar: uni2778
Encoding: 10104 10104 668
GlifName: uni2778
Width: 1769
VWidth: 263
Flags: HW
HStem: -119 367<699 1134> 471 104<814 966> 547 227<498 805> 729 113<813 942> 1061 355<678 1099>
VStem: 90 408<430 547 773 892> 805 162<481 547> 805 141<774 837> 1252 428<521 914> 1271 408<384 779>
LayerCount: 2
Fore
SplineSet
1680 650 m 0x8c80
 1680 193 1354 -119 875 -119 c 0
 404 -119 90 180 90 629 c 0
 90 1092 418 1416 889 1416 c 0
 1356 1416 1680 1103 1680 650 c 0x8c80
1137 652 m 1
 1215 687 1252 746 1252 828 c 0
 1252 963 1098 1061 883 1061 c 0
 666 1061 512 945 498 773 c 1
 805 773 l 1xad80
 807 816 832 842 877 842 c 0
 922 842 945 814 945 775 c 0x9d80
 945 746 929 729 902 729 c 2
 812 729 l 1
 812 574 l 1
 902 574 l 2
 941 574 967 554 967 523 c 0
 967 490 941 471 896 471 c 0xde
 843 471 811 498 805 547 c 1
 498 547 l 1
 514 369 682 248 914 248 c 0
 1127 248 1271 336 1271 465 c 0xad40
 1271 555 1227 617 1137 652 c 1
EndSplineSet
EndChar

StartChar: uni2779
Encoding: 10105 10105 669
GlifName: uni2779
Width: 1769
VWidth: 263
Flags: HW
HStem: -119 383<887 1165> 1035 381<826 1154>
VStem: 90 387<411 643> 1270 410<410 621>
LayerCount: 2
Fore
SplineSet
1680 650 m 0
 1680 193 1354 -119 875 -119 c 0
 404 -119 90 180 90 629 c 0
 90 1092 418 1416 889 1416 c 0
 1356 1416 1680 1103 1680 650 c 0
1166 408 m 257
 1270 408 l 257
 1270 621 l 257
 1166 621 l 257
 1166 1035 l 257
 826 1035 l 257
 477 643 l 257
 477 408 l 257
 887 408 l 257
 887 264 l 257
 1166 264 l 257
 1166 408 l 257
887 621 m 257
 760 621 l 257
 887 783 l 257
 887 621 l 257
EndSplineSet
EndChar

StartChar: uni277A
Encoding: 10106 10106 670
GlifName: uni277A_
Width: 1769
VWidth: 263
Flags: HW
HStem: -119 348<665 1086> 498 49<492 800> 766 45<867 1104> 1035 381<621 1173>
VStem: 1242 438<386 886>
LayerCount: 2
Fore
SplineSet
1680 650 m 0
 1680 193 1354 -119 875 -119 c 0
 404 -119 90 180 90 629 c 0
 90 1092 418 1416 889 1416 c 0
 1356 1416 1680 1103 1680 650 c 0
936 512 m 256
 936 465 910 439 865 439 c 256
 822 439 797 463 795 498 c 257
 488 498 l 257
 502 338 660 229 881 229 c 256
 1102 229 1242 343 1242 523 c 256
 1242 668 1138 766 990 766 c 256
 912 766 848 744 805 707 c 257
 820 811 l 257
 1195 811 l 257
 1195 1035 l 257
 568 1035 l 257
 492 547 l 257
 789 547 l 257
 803 574 826 588 855 588 c 256
 906 588 936 561 936 512 c 256
EndSplineSet
EndChar

StartChar: uni277B
Encoding: 10107 10107 671
GlifName: uni277B_
Width: 1769
VWidth: 263
Flags: HW
HStem: -119 367<698 1092> 449 125<813 943> 775 37<921 1099> 1061 355<674 1066>
VStem: 90 389<462 857> 809 137<454 570> 1252 428<387 781>
LayerCount: 2
Fore
SplineSet
1680 650 m 0
 1680 193 1354 -119 875 -119 c 0
 404 -119 90 180 90 629 c 0
 90 1092 418 1416 889 1416 c 0
 1356 1416 1680 1103 1680 650 c 0
479 650 m 256
 479 404 642 248 904 248 c 256
 1109 248 1252 361 1252 525 c 256
 1252 670 1149 775 1006 775 c 256
 906 775 818 732 783 664 c 257
 783 674 783 683 783 693 c 256
 783 789 818 854 871 854 c 256
 900 854 920 841 930 812 c 257
 1236 812 l 257
 1203 968 1064 1061 867 1061 c 256
 623 1061 479 906 479 650 c 256
809 516 m 256
 809 549 836 574 879 574 c 256
 922 574 945 549 945 512 c 256
 945 475 920 449 883 449 c 256
 838 449 809 479 809 516 c 256
EndSplineSet
EndChar

StartChar: uni277C
Encoding: 10108 10108 672
GlifName: uni277C_
Width: 1769
VWidth: 263
Flags: HW
HStem: -119 369<647 1005> 1021 395<621 1173>
VStem: 90 412<746 892> 1270 410<702 908>
LayerCount: 2
Fore
SplineSet
1680 650 m 0
 1680 193 1354 -119 875 -119 c 0
 404 -119 90 180 90 629 c 0
 90 1092 418 1416 889 1416 c 0
 1356 1416 1680 1103 1680 650 c 0
1010 250 m 257
 1010 484 1086 623 1270 727 c 257
 1270 1021 l 257
 502 1021 l 257
 502 746 l 257
 910 746 l 257
 713 607 635 469 635 250 c 257
 1010 250 l 257
EndSplineSet
EndChar

StartChar: uni277D
Encoding: 10109 10109 673
GlifName: uni277D_
Width: 1769
VWidth: 263
Flags: HW
HStem: -119 367<659 1113> 457 121<817 953> 738 111<816 954> 1061 355<672 1101>
VStem: 90 438<493 898> 90 418<370 761> 814 141<460 575 741 847> 1242 438<521 913> 1262 418<384 779>
LayerCount: 2
Fore
SplineSet
1680 650 m 0xfb
 1680 193 1354 -119 875 -119 c 0
 404 -119 90 180 90 629 c 0
 90 1092 418 1416 889 1416 c 0
 1356 1416 1680 1103 1680 650 c 0xfb
1105 660 m 1
 1195 693 1242 750 1242 830 c 0
 1242 969 1100 1061 885 1061 c 0
 672 1061 527 969 527 830 c 0xfb
 527 750 576 693 664 660 c 1
 562 627 508 568 508 482 c 0
 508 341 658 248 885 248 c 0
 1112 248 1262 341 1262 482 c 0xf680
 1262 566 1207 627 1105 660 c 1
889 738 m 2
 883 738 l 2
 838 738 814 760 814 795 c 0
 814 830 840 850 885 850 c 0
 932 850 955 830 955 795 c 0
 955 760 932 738 889 738 c 2
889 578 m 2
 934 578 955 555 955 518 c 0
 955 481 932 457 885 457 c 0
 840 457 814 481 814 520 c 0
 814 557 838 578 883 578 c 2
 889 578 l 2
EndSplineSet
EndChar

StartChar: uni277E
Encoding: 10110 10110 674
GlifName: uni277E_
Width: 1769
VWidth: 263
Flags: HW
HStem: -119 367<678 1088> 496 35<663 815> 734 123<819 950> 1061 355<662 1064>
VStem: 90 420<511 899> 816 137<738 853> 1283 396<449 852>
LayerCount: 2
Fore
SplineSet
1680 650 m 0
 1680 193 1354 -119 875 -119 c 0
 404 -119 90 180 90 629 c 0
 90 1092 418 1416 889 1416 c 0
 1356 1416 1680 1103 1680 650 c 0
1283 658 m 256
 1283 904 1119 1061 857 1061 c 256
 652 1061 510 945 510 781 c 256
 510 636 613 531 756 531 c 256
 856 531 944 577 979 645 c 257
 979 635 979 623 979 613 c 256
 979 517 935 453 871 453 c 256
 836 453 818 467 812 496 c 257
 506 496 l 257
 539 340 682 248 885 248 c 256
 1135 248 1283 402 1283 658 c 256
953 793 m 256
 953 760 928 734 885 734 c 256
 842 734 816 760 816 797 c 256
 816 834 844 857 881 857 c 256
 926 857 953 830 953 793 c 256
EndSplineSet
EndChar

StartChar: filledbox
Encoding: 9632 9632 675
GlifName: filledbox
Width: 1769
Flags: HW
HStem: -141 1580<90 1680>
VStem: 90 1590<-141 1439>
LayerCount: 2
Fore
SplineSet
1680 -141 m 5
 90 -141 l 5
 90 1439 l 5
 1680 1439 l 5
 1680 -141 l 5
EndSplineSet
EndChar

StartChar: H22073
Encoding: 9633 9633 676
GlifName: H_22073
Width: 1769
Flags: HW
HStem: -141 281<391 1381> 1160 279<391 1381>
VStem: 90 301<141 1160> 1381 299<141 1160>
LayerCount: 2
Fore
SplineSet
1381 141 m 1
 1381 1160 l 1
 391 1160 l 1
 391 141 l 1
 1381 141 l 1
1680 -141 m 1
 90 -141 l 1
 90 1439 l 1
 1680 1439 l 1
 1680 -141 l 1
EndSplineSet
EndChar

StartChar: triagup
Encoding: 9650 9650 677
GlifName: triagup
Width: 1728
Flags: HW
LayerCount: 2
Fore
SplineSet
1641 -119 m 1
 90 -119 l 1
 865 1420 l 1
 1641 -119 l 1
EndSplineSet
EndChar

StartChar: uni25B3
Encoding: 9651 9651 678
GlifName: uni25B_3
Width: 1728
Flags: HW
HStem: -119 279<570 1160>
LayerCount: 2
Fore
SplineSet
1160 160 m 1
 865 801 l 1
 570 160 l 1
 1160 160 l 1
1641 -119 m 1
 90 -119 l 1
 865 1420 l 1
 1641 -119 l 1
EndSplineSet
EndChar

StartChar: uni25B6
Encoding: 9654 9654 679
GlifName: uni25B_6
Width: 1728
Flags: HW
LayerCount: 2
Fore
SplineSet
96 -125 m 1
 96 1426 l 1
 1635 650 l 1
 96 -125 l 1
EndSplineSet
EndChar

StartChar: uni25B7
Encoding: 9655 9655 680
GlifName: uni25B_7
Width: 1728
Flags: HW
VStem: 96 279<355 945>
LayerCount: 2
Fore
SplineSet
375 355 m 1
 1016 650 l 1
 375 945 l 1
 375 355 l 1
96 -125 m 1
 96 1426 l 1
 1635 650 l 1
 96 -125 l 1
EndSplineSet
EndChar

StartChar: triagdn
Encoding: 9660 9660 681
GlifName: triagdn
Width: 1728
Flags: HW
LayerCount: 2
Fore
SplineSet
90 1420 m 1
 1641 1420 l 1
 865 -119 l 1
 90 1420 l 1
EndSplineSet
EndChar

StartChar: uni25BD
Encoding: 9661 9661 682
GlifName: uni25B_D_
Width: 1728
Flags: HW
HStem: 1141 279<570 1160>
LayerCount: 2
Fore
SplineSet
570 1141 m 1
 865 500 l 1
 1160 1141 l 1
 570 1141 l 1
90 1420 m 1
 1641 1420 l 1
 865 -119 l 1
 90 1420 l 1
EndSplineSet
EndChar

StartChar: uni25C0
Encoding: 9664 9664 683
GlifName: uni25C_0
Width: 1728
Flags: HW
LayerCount: 2
Fore
SplineSet
1635 1426 m 1
 1635 -125 l 1
 96 650 l 1
 1635 1426 l 1
EndSplineSet
EndChar

StartChar: uni25C1
Encoding: 9665 9665 684
GlifName: uni25C_1
Width: 1728
Flags: HW
VStem: 1355 279<355 945>
LayerCount: 2
Fore
SplineSet
1355 945 m 1
 715 650 l 1
 1355 355 l 1
 1355 945 l 1
1635 1426 m 1
 1635 -125 l 1
 96 650 l 1
 1635 1426 l 1
EndSplineSet
EndChar

StartChar: uni25C6
Encoding: 9670 9670 685
GlifName: uni25C_6
Width: 1728
Flags: HW
LayerCount: 2
Fore
SplineSet
1641 650 m 1
 855 -119 l 1
 90 629 l 1
 869 1416 l 1
 1641 650 l 1
EndSplineSet
EndChar

StartChar: uni25C7
Encoding: 9671 9671 686
GlifName: uni25C_7
Width: 1728
Flags: HW
LayerCount: 2
Fore
SplineSet
1641 650 m 1
 855 -119 l 1
 90 629 l 1
 869 1416 l 1
 1641 650 l 1
854 264 m 1
 1225 652 l 1
 865 1031 l 1
 486 643 l 1
 854 264 l 1
EndSplineSet
EndChar

StartChar: lozenge
Encoding: 9674 9674 687
GlifName: lozenge
Width: 1289
Flags: HW
LayerCount: 2
Fore
SplineSet
633 172 m 5
 881 656 l 1
 648 1123 l 1
 408 643 l 1
 633 172 l 5
1199 658 m 1
 775 -100 l 1
 496 -100 l 1
 90 639 l 1
 508 1396 l 1
 787 1396 l 1
 1199 658 l 1
EndSplineSet
EndChar

StartChar: circle
Encoding: 9675 9675 688
GlifName: circle
Width: 1769
VWidth: 263
Flags: HW
HStem: -119 242<649 1096> 1172 244<659 1104>
VStem: 90 270<424 873> 1410 270<427 873>
LayerCount: 2
Fore
SplineSet
875 123 m 0
 1193 123 1410 338 1410 652 c 0
 1410 963 1199 1172 885 1172 c 0
 571 1172 359 961 359 643 c 0
 359 331 564 123 875 123 c 0
1680 650 m 0
 1680 193 1354 -119 875 -119 c 0
 404 -119 90 180 90 629 c 0
 90 1092 418 1416 889 1416 c 0
 1356 1416 1680 1103 1680 650 c 0
EndSplineSet
EndChar

StartChar: H18533
Encoding: 9679 9679 689
GlifName: H_18533
Width: 1769
VWidth: 263
Flags: HW
HStem: -119 1535<621 1154>
VStem: 90 1590<393 889>
LayerCount: 2
Fore
SplineSet
1680 650 m 0
 1680 193 1354 -119 875 -119 c 0
 404 -119 90 180 90 629 c 0
 90 1092 418 1416 889 1416 c 0
 1356 1416 1680 1103 1680 650 c 0
EndSplineSet
EndChar

StartChar: uni25D0
Encoding: 9680 9680 690
GlifName: uni25D_0
Width: 1769
VWidth: 263
Flags: HW
HStem: -119 242<875 1087> 1172 244<885 1096>
VStem: 90 785<357 892> 1410 270<427 873>
LayerCount: 2
Fore
SplineSet
875 123 m 1
 1193 123 1410 338 1410 652 c 0
 1410 963 1199 1172 885 1172 c 1
 875 123 l 1
1680 650 m 0
 1680 193 1354 -119 875 -119 c 0
 404 -119 90 180 90 629 c 0
 90 1092 418 1416 889 1416 c 0
 1356 1416 1680 1103 1680 650 c 0
EndSplineSet
EndChar

StartChar: uni25D1
Encoding: 9681 9681 691
GlifName: uni25D_1
Width: 1769
VWidth: 263
Flags: HW
HStem: -119 242<673 885> 1172 244<682 896>
VStem: 90 270<422 863> 885 795<403 938>
LayerCount: 2
Fore
SplineSet
896 1172 m 1
 578 1172 359 957 359 643 c 0
 359 332 571 123 885 123 c 1
 896 1172 l 1
90 646 m 0
 90 1103 416 1416 895 1416 c 0
 1366 1416 1680 1115 1680 666 c 0
 1680 203 1352 -119 881 -119 c 0
 414 -119 90 193 90 646 c 0
EndSplineSet
EndChar

StartChar: uni25D2
Encoding: 9682 9682 692
GlifName: uni25D_2
Width: 1769
VWidth: 263
Flags: HW
HStem: -119 762<590 1165> 1172 244<659 1104>
VStem: 90 270<643 872> 1410 270<652 871>
LayerCount: 2
Fore
SplineSet
1410 652 m 1
 1410 963 1199 1172 885 1172 c 0
 571 1172 359 961 359 643 c 1
 1410 652 l 1
1680 650 m 0
 1680 193 1354 -119 875 -119 c 0
 404 -119 90 180 90 629 c 0
 90 1092 418 1416 889 1416 c 0
 1356 1416 1680 1103 1680 650 c 0
EndSplineSet
EndChar

StartChar: uni25D3
Encoding: 9683 9683 693
GlifName: uni25D_3
Width: 1769
VWidth: 263
Flags: HW
HStem: -119 242<666 1111> 643 773<604 1179>
VStem: 90 270<426 643> 1410 270<423 652>
LayerCount: 2
Fore
SplineSet
359 643 m 1
 359 332 571 123 885 123 c 0
 1199 123 1410 334 1410 652 c 1
 359 643 l 1
90 646 m 0
 90 1103 416 1416 895 1416 c 0
 1366 1416 1680 1115 1680 666 c 0
 1680 203 1352 -119 881 -119 c 0
 414 -119 90 193 90 646 c 0
EndSplineSet
EndChar

StartChar: uni25E2
Encoding: 9698 9698 694
GlifName: uni25E_2
Width: 1648
Flags: HW
LayerCount: 2
Fore
SplineSet
1561 -80 m 1
 90 -80 l 5
 1561 1381 l 5
 1561 -80 l 1
EndSplineSet
EndChar

StartChar: uni25E3
Encoding: 9699 9699 695
GlifName: uni25E_3
Width: 1648
Flags: HW
LayerCount: 2
Fore
SplineSet
96 -86 m 1
 96 1385 l 5
 1555 -86 l 5
 96 -86 l 1
EndSplineSet
EndChar

StartChar: uni25E4
Encoding: 9700 9700 696
GlifName: uni25E_4
Width: 1648
Flags: HW
LayerCount: 2
Fore
SplineSet
90 1381 m 1
 1561 1381 l 5
 90 -80 l 5
 90 1381 l 1
EndSplineSet
EndChar

StartChar: uni25E5
Encoding: 9701 9701 697
GlifName: uni25E_5
Width: 1648
Flags: HW
LayerCount: 2
Fore
SplineSet
1555 1385 m 1
 1555 -86 l 5
 96 1385 l 5
 1555 1385 l 1
EndSplineSet
EndChar

StartChar: uni00B2
Encoding: 178 178 698
GlifName: uni00B_2
Width: 892
VWidth: 726
Flags: HW
HStem: 729 236<402 816> 1311 213<383 516>
LayerCount: 2
Fore
SplineSet
402 965 m 257
 816 965 l 257
 816 729 l 257
 70 729 l 257
 70 797 l 258
 70 1078 232 1147 363 1182 c 0
 447 1205 518 1213 518 1258 c 256
 518 1291 492 1311 453 1311 c 256
 406 1311 379 1283 377 1244 c 257
 70 1244 l 257
 86 1410 238 1523 453 1523 c 256
 678 1523 824 1418 824 1258 c 256
 824 1119 701 1068 588 1035 c 0
 510 1012 433 996 402 965 c 257
EndSplineSet
EndChar

StartChar: uni00B3
Encoding: 179 179 699
GlifName: uni00B_3
Width: 912
VWidth: 726
Flags: HW
HStem: 713 221<389 535> 971 39G<70 380> 1037 154<385 551> 1078 74<475 548> 1307 217<383 513>
VStem: 475 76<1037 1078 1152 1191> 537 307<863 1043>
LayerCount: 2
Fore
SplineSet
551 1191 m 257xec
 551 1037 l 257
 385 1037 l 257
 385 1191 l 257
 551 1191 l 257xec
475 1078 m 257xdc
 475 1191 l 257xec
 502 1191 518 1209 518 1240 c 256
 518 1281 490 1307 447 1307 c 256
 404 1307 379 1281 377 1238 c 257
 70 1238 l 257
 86 1410 238 1523 453 1523 c 256
 668 1523 824 1428 824 1293 c 256
 824 1148 711 1078 475 1078 c 257xdc
475 1152 m 261xdc
 719 1152 844 1076 844 928 c 256
 844 799 699 713 486 713 c 256
 254 713 86 832 70 1010 c 257
 377 1010 l 257
 383 961 416 934 469 934 c 256
 514 934 537 955 537 988 c 256xda
 537 1019 516 1037 475 1037 c 257xec
 475 1152 l 261xdc
EndSplineSet
EndChar

StartChar: uni00B9
Encoding: 185 185 700
GlifName: uni00B_9
Width: 648
VWidth: 726
Flags: HW
HStem: 1109 242<51 246>
VStem: 260 301<729 1109 1365 1500>
LayerCount: 2
Fore
SplineSet
260 1500 m 257
 561 1500 l 257
 561 729 l 257
 260 729 l 257
 260 1109 l 257
 51 1109 l 257
 51 1352 l 257
 143 1352 l 258
 221 1352 260 1377 260 1461 c 258
 260 1500 l 257
EndSplineSet
EndChar

StartChar: zero.dnom
Encoding: 65736 -1 701
GlifName: zero.dnom
Width: 921
VWidth: 0
Flags: HW
HStem: -39 238<386 538> 557 240<385 539>
VStem: 66 285<229 525> 570 285<228 526>
LayerCount: 2
Fore
SplineSet
66 381 m 260
 66 631 225 797 463 797 c 260
 699 797 855 631 855 381 c 260
 855 129 699 -39 463 -39 c 260
 225 -39 66 129 66 381 c 260
570 381 m 260
 570 492 531 557 463 557 c 260
 393 557 352 492 352 381 c 260
 352 268 393 199 463 199 c 260
 531 199 570 268 570 381 c 260
EndSplineSet
EndChar

StartChar: one.dnom
Encoding: 65737 -1 702
GlifName: one.dnom
Width: 648
VWidth: 0
Flags: HW
HStem: 0 41G<260 561> 383 240<51 246>
VStem: 260 301<0 383 637 771>
LayerCount: 2
Fore
SplineSet
260 771 m 257
 561 771 l 257
 561 0 l 257
 260 0 l 257
 260 383 l 257
 51 383 l 257
 51 623 l 257
 143 623 l 258
 221 623 260 648 260 732 c 258
 260 771 l 257
EndSplineSet
EndChar

